<svg width="36" height="36" viewBox="0 0 36 36" fill="none" xmlns="http://www.w3.org/2000/svg">
<g id="002--2" clip-path="url(#clip0_2325_156)">
<g id="Group">
<path id="Vector" d="M34.9453 31.7812H1.05469C0.472219 31.7812 0 32.2535 0 32.8359V34.9453C0 35.5278 0.472219 36 1.05469 36H34.9453C35.5278 36 36 35.5278 36 34.9453V32.8359C36 32.2535 35.5278 31.7812 34.9453 31.7812Z" fill="white"/>
<path id="Vector_2" d="M34.9453 14.9062H1.05469C0.472219 14.9062 0 15.3785 0 15.9609V18.0703C0 18.6528 0.472219 19.125 1.05469 19.125H34.9453C35.5278 19.125 36 18.6528 36 18.0703V15.9609C36 15.3785 35.5278 14.9062 34.9453 14.9062Z" fill="white"/>
<path id="Vector_3" d="M20.1094 21.2344C19.5269 21.2344 19.0547 21.7066 19.0547 22.2891V29.6719H29.6016V22.2891C29.6016 21.7066 29.1293 21.2344 28.5469 21.2344H25.3828V23.3438C25.3828 23.9262 24.9106 24.3984 24.3281 24.3984C23.7457 24.3984 23.2734 23.9262 23.2734 23.3438V21.2344H20.1094Z" fill="white"/>
<path id="Vector_4" d="M7.45312 21.2344C6.87066 21.2344 6.39844 21.7066 6.39844 22.2891V29.6719H16.9453V22.2891C16.9453 21.7066 16.4731 21.2344 15.8906 21.2344H12.7266V23.3438C12.7266 23.9262 12.2543 24.3984 11.6719 24.3984C11.0894 24.3984 10.6172 23.9262 10.6172 23.3438V21.2344H7.45312Z" fill="white"/>
<path id="Vector_5" d="M29.6016 5.41406C29.6016 4.83159 29.1293 4.35938 28.5469 4.35938H25.3828V6.46875C25.3828 7.05122 24.9106 7.52344 24.3281 7.52344C23.7457 7.52344 23.2734 7.05122 23.2734 6.46875V4.35938H20.1094C19.5269 4.35938 19.0547 4.83159 19.0547 5.41406V12.7969H29.6016V5.41406Z" fill="white"/>
<path id="Vector_6" d="M16.9453 5.41406C16.9453 4.83159 16.4731 4.35938 15.8906 4.35938H12.7266V6.46875C12.7266 7.05122 12.2543 7.52344 11.6719 7.52344C11.0894 7.52344 10.6172 7.05122 10.6172 6.46875V4.35938H7.45312C6.87066 4.35938 6.39844 4.83159 6.39844 5.41406V12.7969H16.9453V5.41406Z" fill="white"/>
<path id="Vector_7" d="M31.7109 21.2344H33.8203V29.6719H31.7109V21.2344Z" fill="white"/>
<path id="Vector_8" d="M33.8203 1.05469C33.8203 0.472219 33.3481 0 32.7656 0C32.1832 0 31.7109 0.472219 31.7109 1.05469V12.7969H33.8203V1.05469Z" fill="white"/>
<path id="Vector_9" d="M2.17969 21.2344H4.28906V29.6719H2.17969V21.2344Z" fill="white"/>
<path id="Vector_10" d="M4.28906 1.05469C4.28906 0.472219 3.81684 0 3.23438 0C2.65191 0 2.17969 0.472219 2.17969 1.05469V12.7969H4.28906V1.05469Z" fill="white"/>
</g>
</g>
<defs>
<clipPath id="clip0_2325_156">
<rect width="36" height="36" fill="white"/>
</clipPath>
</defs>
</svg>
