<svg width="36" height="36" viewBox="0 0 36 36" fill="none" xmlns="http://www.w3.org/2000/svg">
<g id="003-icon-5400600">
<path id="Vector" d="M3.6 16.542H15.54C15.87 16.542 16.14 16.272 16.14 15.942V3.996C16.14 3.666 15.87 3.396 15.54 3.396H3.6C3.264 3.396 3 3.666 3 3.996V15.936C3 16.266 3.264 16.542 3.6 16.542Z" fill="white"/>
<path id="Vector_2" d="M26.43 3.396C22.806 3.396 19.854 6.342 19.854 9.966C19.854 13.59 22.806 16.536 26.43 16.536C30.048 16.536 33 13.59 33 9.966C33 6.342 30.048 3.396 26.43 3.396Z" fill="white"/>
<path id="Vector_3" d="M6.06601 32.298C6.16801 32.484 6.36601 32.598 6.58201 32.598H12.552C12.768 32.598 12.966 32.484 13.074 32.298L16.056 27.126C16.164 26.94 16.164 26.712 16.056 26.526L13.074 21.354C12.966 21.168 12.768 21.054 12.552 21.054H6.58201C6.36601 21.054 6.16801 21.168 6.06601 21.354L3.07801 26.526C2.97001 26.712 2.97001 26.94 3.07801 27.126L6.06601 32.298Z" fill="white"/>
<path id="Vector_4" d="M32.916 32.298C33.024 32.112 33.024 31.884 32.916 31.698L26.946 21.354C26.73 20.982 26.124 20.982 25.908 21.354L19.938 31.698C19.83 31.884 19.83 32.112 19.938 32.298C20.046 32.484 20.244 32.598 20.454 32.598H32.4C32.61 32.598 32.808 32.484 32.916 32.298Z" fill="white"/>
</g>
</svg>
