<svg width="36" height="36" viewBox="0 0 36 36" fill="none" xmlns="http://www.w3.org/2000/svg">
<g clip-path="url(#clip0_2325_149)">
<path fill-rule="evenodd" clip-rule="evenodd" d="M10.6139 11.8828H3.16406C1.41998 11.8828 0 13.3028 0 15.0469V21.9375C0 23.1493 0.697906 24.2386 1.75452 24.7673V34.9453C1.75452 35.5279 2.22665 36 2.8092 36H10.9688C11.5513 36 12.0234 35.5279 12.0234 34.9453V24.7673C13.08 24.2386 13.778 23.1493 13.778 21.9375V15.0469C13.778 13.3028 12.358 11.8828 10.6139 11.8828Z" fill="white"/>
<path fill-rule="evenodd" clip-rule="evenodd" d="M21.0234 23.341H30.3047C30.8872 23.341 31.3594 22.8689 31.3594 22.2863V13.0754C31.3594 12.4931 30.8872 12.0207 30.3047 12.0207H26.7188V13.5C26.7188 14.0826 26.2466 14.5547 25.6641 14.5547C25.0815 14.5547 24.6094 14.0826 24.6094 13.5V12.0207H21.0234C20.4409 12.0207 19.9688 12.4931 19.9688 13.0754V22.2863C19.9688 22.8689 20.4409 23.341 21.0234 23.341Z" fill="white"/>
<path fill-rule="evenodd" clip-rule="evenodd" d="M12.9375 3.92487H11.9204V2.69028C11.9204 1.20712 10.7133 0 9.23016 0H4.81421C3.33133 0 2.12421 1.20712 2.12421 2.69028V5.38852C2.12421 8.09363 4.31735 10.2868 7.02219 10.2868C9.49384 10.2868 11.5601 8.44876 11.8781 6.03424H12.9375C13.5201 6.03424 13.9922 5.5621 13.9922 4.97955C13.9922 4.39728 13.5201 3.92487 12.9375 3.92487Z" fill="white"/>
<path fill-rule="evenodd" clip-rule="evenodd" d="M23.5561 24.6797H21.024V26.159C21.024 26.7413 20.5518 27.2137 19.9693 27.2137C19.387 27.2137 18.9146 26.7413 18.9146 26.159V24.6797H16.3828C15.8003 24.6797 15.3281 25.1518 15.3281 25.7344V34.9453C15.3281 35.5279 15.8003 36 16.3828 36H23.5561C24.137 36 24.6107 35.5262 24.6107 34.9453V25.7344C24.6107 25.1535 24.137 24.6797 23.5561 24.6797Z" fill="white"/>
<path fill-rule="evenodd" clip-rule="evenodd" d="M34.9453 24.6797H32.4149V26.159C32.4149 26.7413 31.9425 27.2137 31.3602 27.2137C30.7776 27.2137 30.3055 26.7413 30.3055 26.159V24.6797H27.7748C27.1939 24.6797 26.7201 25.1535 26.7201 25.7344V34.9453C26.7201 35.5262 27.1939 36 27.7748 36H34.9453C35.5279 36 36 35.5279 36 34.9453V25.7344C36 25.1518 35.5279 24.6797 34.9453 24.6797Z" fill="white"/>
</g>
<defs>
<clipPath id="clip0_2325_149">
<rect width="36" height="36" fill="white"/>
</clipPath>
</defs>
</svg>
