<svg width="36" height="36" viewBox="0 0 36 36" fill="none" xmlns="http://www.w3.org/2000/svg">
<g clip-path="url(#clip0_2325_168)">
<path d="M5.27344 23.2734C3.5287 23.2734 2.10938 24.6928 2.10938 26.4375C2.10938 28.1822 3.5287 29.6016 5.27344 29.6016C7.01817 29.6016 8.4375 28.1822 8.4375 26.4375C8.4375 24.6928 7.01817 23.2734 5.27344 23.2734Z" fill="white"/>
<path d="M5.27344 11.6719C3.5287 11.6719 2.10938 13.0912 2.10938 14.8359C2.10938 16.5807 3.5287 18 5.27344 18C7.01817 18 8.4375 16.5807 8.4375 14.8359C8.4375 13.0912 7.01817 11.6719 5.27344 11.6719Z" fill="white"/>
<path d="M5.27344 0C3.5287 0 2.10938 1.48964 2.10938 3.23438C2.10938 4.97911 3.5287 6.39844 5.27344 6.39844C7.01817 6.39844 8.4375 4.97911 8.4375 3.23438C8.4375 1.48964 7.01817 0 5.27344 0Z" fill="white"/>
<path d="M32.8359 25.3828H17.9297C16.185 25.3828 14.7656 26.8021 14.7656 28.5469C14.7656 30.2916 16.185 31.7109 17.9297 31.7109H32.8359C34.5807 31.7109 36 30.2916 36 28.5469C36 26.8021 34.5807 25.3828 32.8359 25.3828Z" fill="white"/>
<path d="M32.8359 14.8359H17.9297C16.185 14.8359 14.7656 16.2553 14.7656 18C14.7656 19.7447 16.185 21.1641 17.9297 21.1641H32.8359C34.5807 21.1641 36 19.7447 36 18C36 16.2553 34.5807 14.8359 32.8359 14.8359Z" fill="white"/>
<path d="M32.8359 4.28906H17.9297C16.185 4.28906 14.7656 5.70839 14.7656 7.45312C14.7656 9.19786 16.185 10.6172 17.9297 10.6172H32.8359C34.5807 10.6172 36 9.19786 36 7.45312C36 5.70839 34.5807 4.28906 32.8359 4.28906Z" fill="white"/>
<path d="M8.40495 30.6562C7.52667 31.3102 6.44991 31.7109 5.27344 31.7109C4.09697 31.7109 3.02027 31.3102 2.14193 30.6562C0.849726 31.6183 0 33.2142 0 34.9453C0 35.5278 0.472219 36 1.05469 36H9.49219C10.0747 36 10.5469 35.5278 10.5469 34.9453C10.5469 33.2142 9.69715 31.6183 8.40495 30.6562Z" fill="white"/>
<path d="M8.40495 19.0547C7.52667 19.7086 6.44991 20.1094 5.27344 20.1094C4.09697 20.1094 3.02027 19.7086 2.14193 19.0547C0.849726 20.0167 0 21.5423 0 23.2734C0 23.6618 0.220148 23.9872 0.532898 24.1701C1.38417 22.3991 3.18066 21.1641 5.27344 21.1641C7.36622 21.1641 9.1627 22.399 10.014 24.1701C10.3267 23.9872 10.5469 23.662 10.5469 23.2734C10.5469 21.5423 9.69715 20.0167 8.40495 19.0547Z" fill="white"/>
<path d="M8.40495 7.45312C7.52667 8.10703 6.44991 8.50781 5.27344 8.50781C4.09697 8.50781 3.02027 8.10703 2.14193 7.45312C0.849726 8.41514 0 9.94078 0 11.6719C0 12.0603 0.220148 12.3856 0.532898 12.5686C1.38417 10.7975 3.18066 9.5625 5.27344 9.5625C7.36622 9.5625 9.1627 10.7974 10.014 12.5686C10.3267 12.3856 10.5469 12.0604 10.5469 11.6719C10.5469 9.94078 9.69715 8.41514 8.40495 7.45312Z" fill="white"/>
</g>
<defs>
<clipPath id="clip0_2325_168">
<rect width="36" height="36" fill="white"/>
</clipPath>
</defs>
</svg>
