<?xml version="1.0" standalone="no"?>
<!DOCTYPE svg PUBLIC "-//W3C//DTD SVG 1.1//EN" "http://www.w3.org/Graphics/SVG/1.1/DTD/svg11.dtd" >
<svg xmlns="http://www.w3.org/2000/svg" xmlns:xlink="http://www.w3.org/1999/xlink" version="1.1">
<metadata>
Created by FontForge 20190801 at Thu Jan 30 23:22:56 2020
 By Unknown
Copyright (c) 2019 by Fontfabric. All rights reserved.
</metadata>
<defs>
<font id="NexaText-Book" horiz-adv-x="0" >
  <font-face 
    font-family="NexaText-Book"
    font-weight="300"
    font-stretch="normal"
    units-per-em="1000"
    panose-1="1 0 0 0 0 0 0 0 0 0"
    ascent="800"
    descent="-200"
    x-height="494"
    cap-height="700"
    bbox="-464 -249 1145 959"
    underline-thickness="50"
    underline-position="-125"
    unicode-range="U+000D-FB02"
  />
<missing-glyph horiz-adv-x="655" 
d="M40 0v700h538v-700h-538zM260 216h55v28q0 26 13 40.5t53 34.5q45 23 65.5 55t20.5 80q0 63 -42.5 99.5t-115.5 36.5q-84 0 -153 -52l26 -43q66 45 127 45q48 0 75 -23t27 -65q0 -60 -67 -91q-48 -24 -66 -48.5t-18 -64.5v-32zM288 91q17 0 27.5 10.5t10.5 26.5
q0 17 -10.5 27t-27.5 10t-27.5 -10.5t-10.5 -26.5t11 -26.5t27 -10.5z" />
    <glyph glyph-name="fi" unicode="fi" horiz-adv-x="611" 
d="M528 494v-494h-74v429h-252v-429h-74v429h-95v65h95v42q0 83 42 129.5t119 46.5q57 0 104 -26l-25 -55q-37 17 -74 17q-92 0 -92 -111v-43h326zM490 696q23 0 38.5 -15t15.5 -38q0 -22 -15.5 -37t-38.5 -15t-38.5 15t-15.5 37q0 23 15.5 38t38.5 15z" />
    <glyph glyph-name="fl" unicode="fl" horiz-adv-x="689" 
d="M660 65l18 -62q-42 -15 -78 -15q-70 0 -104.5 39t-34.5 128v455q-66 38 -133 38q-58 0 -90.5 -30.5t-32.5 -90.5v-33h157v-65h-157v-429h-74v429h-98v65h98v32q0 83 50.5 134.5t141.5 51.5q74 0 138 -32v20h74v-541q0 -62 17 -83t59 -21q19 0 49 10z" />
    <glyph glyph-name="f_f" unicode="ff" horiz-adv-x="699" 
d="M620 648q-92 0 -92 -111v-43h157v-65h-157v-429h-74v429h-249v-429h-74v429h-98v65h98v42q0 83 41.5 129.5t118.5 46.5q58 0 105 -26l-26 -55q-37 17 -74 17q-91 0 -91 -111v-43h249v42q0 83 42 129.5t119 46.5q57 0 104 -26l-26 -55q-37 17 -73 17z" />
    <glyph glyph-name=".notdef" horiz-adv-x="655" 
d="M40 0v700h538v-700h-538zM260 216h55v28q0 26 13 40.5t53 34.5q45 23 65.5 55t20.5 80q0 63 -42.5 99.5t-115.5 36.5q-84 0 -153 -52l26 -43q66 45 127 45q48 0 75 -23t27 -65q0 -60 -67 -91q-48 -24 -66 -48.5t-18 -64.5v-32zM288 91q17 0 27.5 10.5t10.5 26.5
q0 17 -10.5 27t-27.5 10t-27.5 -10.5t-10.5 -26.5t11 -26.5t27 -10.5z" />
    <glyph glyph-name="uni0000" horiz-adv-x="600" 
 />
    <glyph glyph-name="uni0000" horiz-adv-x="600" 
 />
    <glyph glyph-name="nonmarkingreturn" horiz-adv-x="333" 
 />
    <glyph glyph-name="CR" unicode="&#xd;" horiz-adv-x="258" 
 />
    <glyph glyph-name="space" unicode=" " horiz-adv-x="258" 
 />
    <glyph glyph-name="exclam" unicode="!" horiz-adv-x="269" 
d="M104 171l-3 529h77l-3 -529h-71zM139 -8q-22 0 -36 14t-14 36q0 21 14 35t36 14t36 -14t14 -35q0 -22 -14 -36t-36 -14z" />
    <glyph glyph-name="quotedbl" unicode="&#x22;" horiz-adv-x="379" 
d="M79 440v260h67v-260h-67zM233 440v260h67v-260h-67z" />
    <glyph glyph-name="numbersign" unicode="#" horiz-adv-x="660" 
d="M620 474h-100l-62 -250h88v-69h-105l-38 -155h-79l39 155h-165l-38 -155h-79l38 155h-79v69h96l62 250h-83v68h100l39 158h79l-39 -158h164l39 158h79l-39 -158h83v-68zM381 222l62 253h-168l-63 -253h169z" />
    <glyph glyph-name="dollar" unicode="$" horiz-adv-x="618" 
d="M574 193q0 -85 -57.5 -138.5t-154.5 -64.5v-100h-75v98q-133 8 -235 88l39 60q104 -76 224 -76q81 0 131.5 35t50.5 97q0 55 -40.5 86t-145.5 51q-126 23 -182 67.5t-56 122.5q0 80 59.5 132t152.5 60v95h75v-95q102 -9 183 -67l-41 -57q-77 55 -181 55q-75 0 -123 -32.5
t-48 -87.5q0 -49 41 -76.5t141 -47.5q132 -26 187 -73.5t55 -131.5z" />
    <glyph glyph-name="percent" unicode="%" horiz-adv-x="763" 
d="M195 407q-68 0 -111.5 42t-43.5 107q0 66 44 108t112 42t111 -42t43 -107q0 -66 -43.5 -108t-111.5 -42zM121 0l448 700h73l-448 -700h-73zM196 461q42 0 68 26.5t26 68.5q0 43 -26.5 69.5t-68.5 26.5t-68.5 -26.5t-26.5 -68.5q0 -43 27 -69.5t69 -26.5zM567 -6
q-67 0 -110.5 42t-43.5 107q0 67 44 109t112 42q67 0 110.5 -42t43.5 -107q0 -67 -43.5 -109t-112.5 -42zM569 48q42 0 68 26.5t26 68.5q0 43 -26.5 70t-69.5 27q-41 0 -67.5 -26.5t-26.5 -68.5q0 -43 26.5 -70t69.5 -27z" />
    <glyph glyph-name="ampersand" unicode="&#x26;" horiz-adv-x="667" 
d="M653 43l-51 -51l-96 94q-95 -97 -227 -97q-102 0 -163 50t-61 125q0 126 157 211q-79 87 -79 168q0 72 54.5 120t142.5 48q75 0 122.5 -44t47.5 -111q0 -64 -43.5 -109.5t-125.5 -85.5l172 -170q52 86 56 162l68 -9q-7 -107 -74 -202zM327 644q-53 0 -86.5 -29.5
t-33.5 -71.5q0 -35 17.5 -64t60.5 -72q69 34 105 66.5t36 80.5q0 39 -27.5 64.5t-71.5 25.5zM282 58q101 0 176 75l-199 195q-61 -30 -94 -72t-33 -86q0 -49 41 -80.5t109 -31.5z" />
    <glyph glyph-name="quotesingle" unicode="'" horiz-adv-x="225" 
d="M79 440v260h67v-260h-67z" />
    <glyph glyph-name="parenleft" unicode="(" horiz-adv-x="338" 
d="M271 -137q-104 69 -163 188t-59 257t59 256.5t163 187.5l41 -56q-91 -67 -139.5 -166.5t-48.5 -221.5q0 -250 188 -389z" />
    <glyph glyph-name="parenright" unicode=")" horiz-adv-x="342" 
d="M67 -137l-40 56q91 68 139 167.5t48 221.5t-48 221.5t-139 166.5l40 56q104 -69 163 -187.5t59 -256.5t-59 -257t-163 -188z" />
    <glyph glyph-name="asterisk" unicode="*" horiz-adv-x="381" 
d="M320 588l-93 -21l64 -74l-48 -35l-54 82l-55 -82l-48 35l63 74l-87 21l17 56l85 -32l-4 88h59l-7 -89l91 33z" />
    <glyph glyph-name="plus" unicode="+" horiz-adv-x="554" 
d="M480 380v-68h-166v-170h-73v170h-166v68h166v165h73v-165h166z" />
    <glyph glyph-name="comma" unicode="," horiz-adv-x="246" 
d="M124 91q23 0 36.5 -15t13.5 -40q0 -55 -57 -163l-42 20q26 56 34 104q-36 9 -36 45q0 21 14.5 35t36.5 14z" />
    <glyph glyph-name="hyphen" unicode="-" horiz-adv-x="506" 
d="M75 255v68h356v-68h-356z" />
    <glyph glyph-name="period" unicode="." horiz-adv-x="248" 
d="M124 -8q-22 0 -36 14t-14 36q0 21 14 35t36 14t36 -14t14 -35q0 -22 -14 -36t-36 -14z" />
    <glyph glyph-name="slash" unicode="/" horiz-adv-x="490" 
d="M29 -82l359 843h74l-360 -843h-73z" />
    <glyph glyph-name="zero" unicode="0" horiz-adv-x="697" 
d="M346 -11q-133 0 -206.5 95t-73.5 265t75 266t209 96q131 0 205 -95t74 -264t-75.5 -266t-207.5 -97zM347 62q98 0 151 74.5t53 213.5q0 138 -53 213t-150 75q-99 0 -151.5 -74t-52.5 -212q0 -141 52 -215.5t151 -74.5z" />
    <glyph glyph-name="one" unicode="1" horiz-adv-x="377" 
d="M254 704h12v-704h-78v605l-146 -52v76z" />
    <glyph glyph-name="two" unicode="2" horiz-adv-x="582" 
d="M319 299q-117 -52 -157 -96.5t-44 -128.5h407v-74h-488q0 154 49 227t192 133q92 39 132 77.5t40 89.5q0 49 -42.5 79.5t-109.5 30.5q-106 0 -197 -80l-47 53q111 100 245 100q100 0 164.5 -51.5t64.5 -130.5q0 -71 -49.5 -125.5t-159.5 -103.5z" />
    <glyph glyph-name="three" unicode="3" horiz-adv-x="577" 
d="M255 -10q-134 0 -240 76l37 62q98 -64 199 -64q89 0 140 36t51 100q0 61 -50.5 93t-135.5 32h-109v72h109q77 0 124.5 34.5t47.5 90.5q0 55 -45 85t-125 30q-99 0 -191 -63l-37 60q101 76 229 76q111 0 178 -50t67 -132q0 -57 -34 -102t-91 -62v-2q65 -14 102.5 -57
t37.5 -107q0 -94 -72.5 -151t-191.5 -57z" />
    <glyph glyph-name="four" unicode="4" horiz-adv-x="625" 
d="M580 221v-72h-81v-149h-78v149h-387l-10 74l386 477h89v-479h81zM172 221h249v331q0 34 2 58h-2q-19 -28 -38 -51l-229 -285q-41 -50 -43 -53l1 -2q24 2 60 2z" />
    <glyph glyph-name="five" unicode="5" horiz-adv-x="599" 
d="M307 443q113 0 177.5 -59.5t64.5 -162.5q0 -106 -70.5 -168.5t-190.5 -62.5q-145 0 -252 76l36 62q106 -64 212 -64q88 0 138 41t50 116q0 71 -45 110t-130 39q-87 0 -158 -39l-65 16l19 353h417v-73h-347l-8 -165q-1 -23 -5 -56h1q74 37 156 37z" />
    <glyph glyph-name="six" unicode="6" horiz-adv-x="631" 
d="M340 -11q-124 0 -199 94.5t-75 258.5q0 174 74.5 271t213.5 97q114 0 207 -74l-42 -58q-78 59 -170 59q-101 0 -154 -75t-53 -200q0 -28 5 -56l2 -1q22 65 81 100.5t132 35.5q103 0 167 -61t64 -157q0 -103 -71 -168.5t-182 -65.5zM343 62q75 0 124 44t49 114
q0 66 -46 108t-118 42q-79 0 -125 -45t-46 -110q0 -67 44 -110t118 -43z" />
    <glyph glyph-name="seven" unicode="7" horiz-adv-x="520" 
d="M94 0l283 556q25 48 42 73l-2 3q-33 -5 -83 -5h-305v73h474l6 -53l-327 -647h-88z" />
    <glyph glyph-name="eight" unicode="8" horiz-adv-x="649" 
d="M324 -12q-120 0 -193.5 55.5t-73.5 145.5q0 61 36 108t95 66v2q-115 45 -115 156q0 85 70 138.5t181 53.5q112 0 181.5 -52.5t69.5 -137.5q0 -112 -116 -158v-2q61 -19 97 -65t36 -106q0 -91 -74 -147.5t-194 -56.5zM323 390q77 0 126.5 35.5t49.5 90.5q0 57 -48.5 93
t-125.5 36t-126.5 -35t-49.5 -90q0 -58 48.5 -94t125.5 -36zM323 59q85 0 138 36.5t53 96.5q0 62 -52 100t-137 38t-137.5 -37t-52.5 -97q0 -62 51.5 -99.5t136.5 -37.5z" />
    <glyph glyph-name="nine" unicode="9" horiz-adv-x="631" 
d="M277 -11q-113 0 -207 75l42 58q79 -60 170 -60q100 0 153.5 76.5t53.5 201.5q0 28 -5 55l-2 1q-20 -65 -80.5 -103t-133.5 -38q-101 0 -165.5 59.5t-64.5 161.5q0 105 71 170t182 65q124 0 199 -93.5t75 -257.5q0 -175 -75 -273t-213 -98zM278 326q78 0 125 47t47 113
q0 67 -44 109.5t-118 42.5q-75 0 -123.5 -43.5t-48.5 -115.5q0 -71 44.5 -112t117.5 -41z" />
    <glyph glyph-name="colon" unicode=":" horiz-adv-x="246" 
d="M129 290q-22 0 -36 14t-14 35q0 22 14 36t36 14t36 -14t14 -36q0 -21 -14 -35t-36 -14zM129 -8q-22 0 -36 14t-14 36q0 21 14 35t36 14t36 -14t14 -35q0 -22 -14 -36t-36 -14z" />
    <glyph glyph-name="semicolon" unicode=";" horiz-adv-x="246" 
d="M123 290q-22 0 -36 14t-14 35q0 22 14 36t36 14t36 -14t14 -36q0 -21 -14 -35t-36 -14zM124 91q23 0 36.5 -15t13.5 -40q0 -55 -57 -163l-42 20q26 56 34 104q-36 9 -36 45q0 21 14.5 35t36.5 14z" />
    <glyph glyph-name="less" unicode="&#x3c;" horiz-adv-x="411" 
d="M345 483l-182 -166l182 -167l-48 -50l-218 201v31l218 200z" />
    <glyph glyph-name="equal" unicode="=" horiz-adv-x="560" 
d="M75 385v69h410v-69h-410zM75 181v69h410v-69h-410z" />
    <glyph glyph-name="greater" unicode="&#x3e;" horiz-adv-x="382" 
d="M114 532l218 -200v-31l-218 -201l-48 50l182 167l-182 166z" />
    <glyph glyph-name="question" unicode="?" horiz-adv-x="523" 
d="M171 171v46q0 56 26 92t95 69q51 25 74 56.5t23 76.5q0 60 -39.5 93t-108.5 33q-91 0 -183 -63l-36 59q99 75 219 75q103 0 164 -52.5t61 -142.5q0 -131 -124 -193q-57 -29 -75.5 -50t-18.5 -59v-40h-77zM210 -8q-22 0 -36 14t-14 36q0 21 14 35t36 14t36 -14t14 -35
q0 -22 -14 -36t-36 -14z" />
    <glyph glyph-name="at" unicode="@" horiz-adv-x="918" 
d="M463 628q178 0 293 -100.5t115 -275.5q0 -109 -44.5 -173t-112.5 -64q-87 0 -109 90q-23 -43 -66 -68.5t-100 -25.5q-89 0 -147 62t-58 154q0 94 58 154.5t147 60.5q57 0 99 -27t58 -64h2q-1 30 -1 77h69v-249q0 -49 13.5 -71.5t44.5 -22.5q36 0 57 41.5t21 125.5
q0 151 -93 230.5t-246 79.5q-150 0 -246 -93t-96 -239t91.5 -233.5t243.5 -87.5q80 0 143 33l23 -60q-74 -40 -167 -40q-181 0 -293 107t-112 280q0 175 116 287t297 112zM450 79q63 0 105 41.5t42 104.5q0 67 -40.5 108.5t-103.5 41.5q-64 0 -104.5 -39.5t-40.5 -106.5
t39.5 -108.5t102.5 -41.5z" />
    <glyph glyph-name="A" unicode="A" horiz-adv-x="756" 
d="M651 0l-74 162h-400l-73 -162h-84l314 700h87l314 -700h-84zM377 623q-35 -84 -70 -162l-99 -228h338l-99 230q-58 134 -68 160h-2z" />
    <glyph glyph-name="B" unicode="B" horiz-adv-x="690" 
d="M509 361q58 -19 92 -63.5t34 -104.5q0 -93 -60.5 -143t-171.5 -50h-301v700h301q95 0 152 -50t57 -135q0 -52 -27 -92t-76 -59v-3zM404 630h-225v-237h218q65 0 101 31t36 86t-35 87.5t-95 32.5zM410 71q69 0 108 34t39 93t-41 92.5t-113 33.5h-224v-253h231z" />
    <glyph glyph-name="C" unicode="C" horiz-adv-x="715" 
d="M417 -13q-160 0 -261.5 101t-101.5 260q0 161 102 263t262 102q148 0 250 -100l-46 -57q-88 83 -205 83q-126 0 -205 -80t-79 -207q0 -129 79.5 -210t205.5 -81q123 0 208 81l46 -58q-99 -97 -255 -97z" />
    <glyph glyph-name="D" unicode="D" horiz-adv-x="758" 
d="M351 700q157 0 255 -96.5t98 -252.5q0 -157 -98 -254t-256 -97h-248v700h249zM351 73q122 0 198.5 76.5t76.5 199.5q0 124 -76.5 201t-199.5 77h-171v-554h172z" />
    <glyph glyph-name="E" unicode="E" horiz-adv-x="639" 
d="M179 73h398v-73h-475v700h465v-72h-388v-238h370v-72h-370v-245z" />
    <glyph glyph-name="F" unicode="F" horiz-adv-x="600" 
d="M546 628h-367v-259h346v-72h-346v-297h-77v700h444v-72z" />
    <glyph glyph-name="G" unicode="G" horiz-adv-x="751" 
d="M390 378h296v-278q-112 -113 -273 -113q-164 0 -261.5 101.5t-97.5 260.5q0 163 102.5 264t262.5 101q146 0 250 -96l-45 -57q-88 80 -204 80q-132 0 -210 -82.5t-78 -207.5q0 -129 76.5 -210.5t206.5 -81.5q113 0 198 72v177h-223v70z" />
    <glyph glyph-name="H" unicode="H" horiz-adv-x="777" 
d="M598 700h77v-700h-77v321h-419v-321h-77v700h77v-307h419v307z" />
    <glyph glyph-name="I" unicode="I" horiz-adv-x="281" 
d="M102 0v700h77v-700h-77z" />
    <glyph glyph-name="J" unicode="J" horiz-adv-x="476" 
d="M156 -12q-86 0 -159 44l34 61q57 -33 122 -33q153 0 153 187v453h77v-454q0 -127 -58.5 -192.5t-168.5 -65.5z" />
    <glyph glyph-name="K" unicode="K" horiz-adv-x="622" 
d="M256 363l372 -363h-106l-284 277q-44 42 -58 59l-2 -1q1 -16 1 -57v-278h-77v700h77v-256q0 -42 -1 -57l2 -1q5 6 14.5 15.5t23.5 24t25 25.5l251 249h103z" />
    <glyph glyph-name="L" unicode="L" horiz-adv-x="583" 
d="M179 72h385v-72h-462v700h77v-628z" />
    <glyph glyph-name="M" unicode="M" horiz-adv-x="924" 
d="M743 700h79v-700h-77v510q0 26 2 58l-2 1q-18 -29 -46 -72l-221 -337h-32l-221 336q-13 21 -46 68l-2 -1q2 -32 2 -58v-505h-77v700h79l281 -432z" />
    <glyph glyph-name="N" unicode="N" horiz-adv-x="776" 
d="M102 0v700h77l367 -504q41 -56 51 -72l2 1q-2 32 -2 58v517h77v-700h-76l-368 504q-41 56 -51 72l-2 -1q2 -32 2 -58v-517h-77z" />
    <glyph glyph-name="O" unicode="O" horiz-adv-x="820" 
d="M408 -14q-156 0 -255 101.5t-99 261.5q0 162 99.5 263.5t258.5 101.5q156 0 254.5 -101.5t98.5 -261.5q0 -162 -99 -263.5t-258 -101.5zM409 59q122 0 199.5 81t77.5 209q0 130 -77 211t-199 81t-199.5 -81t-77.5 -209q0 -130 77 -211t199 -81z" />
    <glyph glyph-name="P" unicode="P" horiz-adv-x="660" 
d="M385 700q116 0 178.5 -67.5t62.5 -167.5q0 -101 -62.5 -168.5t-178.5 -67.5h-206v-229h-77v700h283zM382 301q82 0 124 45.5t42 116.5q0 72 -42 118.5t-124 46.5h-203v-327h203z" />
    <glyph glyph-name="Q" unicode="Q" horiz-adv-x="820" 
d="M789 10l-52 -54l-104 102q-94 -72 -225 -72q-156 0 -255 101.5t-99 261.5q0 162 99.5 263.5t258.5 101.5q156 0 254.5 -101.5t98.5 -261.5q0 -143 -79 -241zM133 351q0 -130 77 -211t199 -81q97 0 170 54l-122 119l49 50l122 -119q58 77 58 186q0 130 -77 211t-199 81
t-199.5 -81t-77.5 -209z" />
    <glyph glyph-name="R" unicode="R" horiz-adv-x="682" 
d="M544 0l-226 254h-138v-254h-78v700h278q107 0 171.5 -61t64.5 -161q0 -91 -55.5 -151.5t-147.5 -70.5l230 -256h-99zM538 476q0 70 -43 110.5t-118 40.5h-197v-301h198q74 0 117 40.5t43 109.5z" />
    <glyph glyph-name="S" unicode="S" horiz-adv-x="618" 
d="M315 -13q-150 0 -263 89l39 60q104 -76 224 -76q81 0 131.5 35t50.5 97q0 55 -40.5 86t-145.5 51q-126 23 -182 67.5t-56 122.5q0 87 70 140.5t176 53.5q128 0 224 -69l-41 -57q-77 55 -181 55q-75 0 -123 -32.5t-48 -87.5q0 -49 41 -76.5t141 -47.5q132 -26 187 -73.5
t55 -131.5q0 -95 -71.5 -150.5t-187.5 -55.5z" />
    <glyph glyph-name="T" unicode="T" horiz-adv-x="593" 
d="M576 700v-71h-241v-629h-77v629h-241v71h559z" />
    <glyph glyph-name="U" unicode="U" horiz-adv-x="746" 
d="M373 -13q-125 0 -202.5 80t-77.5 211v422h77v-421q0 -100 55.5 -160t147.5 -60t147.5 60t55.5 160v421h77v-422q0 -131 -77.5 -211t-202.5 -80z" />
    <glyph glyph-name="V" unicode="V" horiz-adv-x="701" 
d="M309 0l-283 700h84l154 -387q52 -130 86 -223h2q33 90 86 223l154 387h82l-282 -700h-83z" />
    <glyph glyph-name="W" unicode="W" horiz-adv-x="1085" 
d="M267 0l-235 700h82l124 -384q17 -50 41 -126.5t29 -92.5h2q26 93 67 217l127 386h77l127 -386q40 -122 68 -217h1q31 103 69 219l126 384h81l-236 -700h-83l-105 324q-30 97 -86 266h-2q-45 -134 -87 -265l-105 -325h-82z" />
    <glyph glyph-name="X" unicode="X" horiz-adv-x="617" 
d="M359 357l248 -357h-90l-123 179l-85 128h-2q-27 -47 -85 -129l-121 -178h-90l247 357l-232 343h89l139 -209q30 -43 54 -84h2q15 25 57 86l139 207h87z" />
    <glyph glyph-name="Y" unicode="Y" horiz-adv-x="663" 
d="M641 700l-273 -413v-287h-77v285l-268 415h91l161 -258q53 -90 54 -91h2q16 29 57 93l160 256h93z" />
    <glyph glyph-name="Z" unicode="Z" horiz-adv-x="594" 
d="M25 0v45l391 545q16 20 30 38l-1 2q-15 -2 -43 -2h-343v72h494v-43l-392 -546q-15 -20 -30 -37l1 -2q14 1 43 1h378v-73h-528z" />
    <glyph glyph-name="bracketleft" unicode="[" horiz-adv-x="332" 
d="M93 -149v866h202v-68h-128v-730h128v-68h-202z" />
    <glyph glyph-name="backslash" unicode="\" horiz-adv-x="490" 
d="M462 -82h-74l-359 843h74z" />
    <glyph glyph-name="bracketright" unicode="]" horiz-adv-x="365" 
d="M272 -149h-202v68h127v730h-127v68h202v-866z" />
    <glyph glyph-name="asciicircum" unicode="^" horiz-adv-x="603" 
d="M555 364h-84l-170 254l-171 -254h-82l226 336h51z" />
    <glyph glyph-name="underscore" unicode="_" horiz-adv-x="619" 
d="M75 -86v68h469v-68h-469z" />
    <glyph glyph-name="grave" unicode="`" horiz-adv-x="204" 
d="M130 570h-69l-95 130h91z" />
    <glyph glyph-name="a" unicode="a" horiz-adv-x="560" 
d="M251 502q108 0 171 -46t63 -144v-312h-66q0 66 2 98h-2q-24 -49 -76.5 -77.5t-114.5 -28.5q-82 0 -136.5 41.5t-54.5 116.5q0 76 57 118.5t143 42.5q100 0 174 -41v42q0 63 -44 94t-120 31q-72 0 -153 -35l-20 60q89 40 177 40zM240 55q69 0 118.5 41t54.5 110
q-73 44 -164 44q-61 0 -99.5 -26t-38.5 -72q0 -45 37.5 -71t91.5 -26z" />
    <glyph glyph-name="b" unicode="b" horiz-adv-x="637" 
d="M347 -10q-71 0 -123.5 32.5t-69.5 79.5h-2v-102h-70v700h74v-174q0 -83 -5 -133h2q21 47 73.5 79t122.5 32q106 0 175 -71t69 -184q0 -115 -69.5 -187t-176.5 -72zM335 58q81 0 132.5 52.5t51.5 136.5t-51 136.5t-132 52.5q-79 0 -129.5 -52.5t-50.5 -136.5t50 -136.5
t129 -52.5z" />
    <glyph glyph-name="c" unicode="c" horiz-adv-x="515" 
d="M301 -10q-109 0 -182.5 69.5t-73.5 186.5q0 118 73.5 188t185.5 70q100 0 170 -58l-38 -56q-58 47 -133 47q-79 0 -131.5 -51t-52.5 -138q0 -88 52.5 -139.5t129.5 -51.5q80 0 144 53l35 -58q-74 -62 -179 -62z" />
    <glyph glyph-name="d" unicode="d" horiz-adv-x="637" 
d="M292 -10q-109 0 -178 71t-69 185q0 115 69 186.5t176 71.5q69 0 121 -32t74 -79h2q-6 60 -6 127v180h74v-700h-70q0 65 1 102h-2q-17 -47 -70 -79.5t-122 -32.5zM298 58q81 0 132 52t51 136q0 85 -51 137.5t-131 52.5q-79 0 -129.5 -52t-50.5 -136q0 -85 50 -137.5
t129 -52.5z" />
    <glyph glyph-name="e" unicode="e" horiz-adv-x="564" 
d="M528 259q0 -12 -2 -40h-407q5 -75 53.5 -119t123.5 -44q100 0 168 64l39 -50q-77 -80 -208 -80q-112 0 -181 71t-69 186q0 113 70 185t180 72q106 0 169.5 -64t63.5 -181zM292 438q-69 0 -115.5 -42t-56.5 -115h339q-3 76 -47 116.5t-120 40.5z" />
    <glyph glyph-name="f" unicode="f" horiz-adv-x="375" 
d="M296 648q-91 0 -91 -111v-43h157v-65h-157v-429h-74v429h-98v65h98v42q0 83 41.5 129.5t118.5 46.5q58 0 105 -26l-26 -55q-37 17 -74 17z" />
    <glyph glyph-name="g" unicode="g" horiz-adv-x="637" 
d="M309 -248q-127 0 -228 58l29 62q103 -51 198 -51q78 0 123.5 41.5t47.5 115.5q3 88 5 122h-2q-20 -48 -71.5 -78.5t-118.5 -30.5q-109 0 -178 71.5t-69 183.5q0 114 68.5 186t177.5 72q68 0 121 -31.5t72 -80.5h2q-2 34 -2 102h70v-501q0 -113 -65 -177t-180 -64zM300 59
q82 0 131.5 52t49.5 137q0 84 -50.5 136t-130.5 52t-130.5 -52.5t-50.5 -135.5t50.5 -136t130.5 -53z" />
    <glyph glyph-name="h" unicode="h" horiz-adv-x="619" 
d="M82 0v700h74v-174q0 -85 -5 -126h2q23 44 72.5 73t110.5 29q100 0 154 -58t54 -163v-281h-74v275q0 76 -37.5 118t-109.5 42q-73 0 -120 -48t-47 -120v-267h-74z" />
    <glyph glyph-name="i" unicode="i" horiz-adv-x="239" 
d="M118 591q-23 0 -38 14.5t-15 37.5t15 38t38 15q24 0 39 -15t15 -38t-15 -37.5t-39 -14.5zM82 0v494h74v-494h-74z" />
    <glyph glyph-name="j" unicode="j" horiz-adv-x="239" 
d="M118 591q-23 0 -38 14.5t-15 37.5t15 38t38 15q24 0 39 -15t15 -38t-15 -37.5t-39 -14.5zM13 -249q-51 0 -97 29l27 57q32 -17 65 -17q41 0 57.5 24.5t16.5 84.5v565h74v-565q0 -92 -34.5 -135t-108.5 -43z" />
    <glyph glyph-name="k" unicode="k" horiz-adv-x="495" 
d="M225 253l268 -253h-99l-151 143q-57 56 -87 91l-3 -1q3 -42 3 -145v-88h-74v700h74v-259q0 -126 -2 -168l2 -1q25 31 77 83l136 139h93z" />
    <glyph glyph-name="l" unicode="l" horiz-adv-x="310" 
d="M221 -12q-70 0 -104.5 39t-34.5 128v545h74v-541q0 -61 17 -82.5t59 -21.5q19 0 49 10l18 -62q-42 -15 -78 -15z" />
    <glyph glyph-name="m" unicode="m" horiz-adv-x="934" 
d="M662 502q93 0 145.5 -56.5t52.5 -151.5v-294h-74v285q0 69 -34.5 109.5t-98.5 40.5t-104.5 -44t-40.5 -111v-280h-74v283q0 71 -35.5 111.5t-99.5 40.5q-63 0 -103 -43.5t-40 -111.5v-280h-74v494h70q0 -55 -6 -98h2q16 49 61 77.5t101 28.5q131 0 170 -112q25 56 74 84
t108 28z" />
    <glyph glyph-name="n" unicode="n" horiz-adv-x="619" 
d="M82 0v494h70q0 -44 -3 -98h3q22 50 71 78t113 28q100 0 154 -58t54 -163v-281h-74v275q0 76 -37.5 118t-109.5 42q-73 0 -120 -48t-47 -120v-267h-74z" />
    <glyph glyph-name="o" unicode="o" horiz-adv-x="603" 
d="M299 -10q-111 0 -182.5 71.5t-71.5 184.5q0 114 73 186t186 72q111 0 183 -71.5t72 -184.5q0 -114 -73.5 -186t-186.5 -72zM301 57q79 0 131.5 53.5t52.5 135.5q0 83 -52 136.5t-131 53.5t-131 -53t-52 -135q0 -83 52 -137t130 -54z" />
    <glyph glyph-name="p" unicode="p" horiz-adv-x="637" 
d="M82 -235v729h74q0 -29 -4 -101h2q17 46 70.5 78.5t123.5 32.5q107 0 176 -71.5t69 -185.5q0 -115 -69.5 -186t-176.5 -71q-69 0 -121 32t-71 78h-2q3 -42 3 -120v-215h-74zM336 58q81 0 132 52t51 136q0 85 -51 137.5t-130 52.5q-81 0 -131.5 -52t-50.5 -136
q0 -85 50.5 -137.5t129.5 -52.5z" />
    <glyph glyph-name="q" unicode="q" horiz-adv-x="637" 
d="M481 -235v215q0 61 4 120h-2q-19 -47 -71 -78.5t-122 -31.5q-107 0 -176 71t-69 185q0 115 68.5 186.5t175.5 71.5q71 0 124.5 -32.5t70.5 -79.5h2q-1 37 -1 102h70v-729h-74zM299 58q81 0 132 52t51 136q0 85 -51 137.5t-131 52.5t-130.5 -52t-50.5 -136
q0 -85 50.5 -137.5t129.5 -52.5z" />
    <glyph glyph-name="r" unicode="r" horiz-adv-x="395" 
d="M82 0v494h70q0 -64 -2 -95h2q17 43 59.5 73t99.5 30q35 0 68 -11l-21 -66q-21 8 -52 8q-65 0 -107.5 -49.5t-42.5 -126.5v-257h-74z" />
    <glyph glyph-name="s" unicode="s" horiz-adv-x="490" 
d="M252 -13q-114 0 -213 66l33 57q90 -58 181 -58q54 0 87.5 23.5t33.5 60.5q0 36 -29.5 55t-101.5 30q-187 28 -187 141q0 62 53.5 101t138.5 39q99 0 178 -48l-26 -58q-76 43 -153 43q-55 0 -86.5 -20t-31.5 -55q0 -32 29 -51.5t93 -29.5q108 -17 152.5 -50.5t44.5 -97.5
q0 -66 -54 -107t-142 -41z" />
    <glyph glyph-name="t" unicode="t" horiz-adv-x="398" 
d="M364 77l24 -60q-56 -25 -105 -25q-147 0 -147 166v272h-101v64h101v138l73 7v-145h157v-64h-157v-271q0 -50 18 -75.5t64 -25.5q35 0 73 19z" />
    <glyph glyph-name="u" unicode="u" horiz-adv-x="613" 
d="M284 -8q-97 0 -153 61t-56 165v276h74v-274q0 -76 39 -118.5t109 -42.5t114.5 48t44.5 120v267h74v-494h-69q0 62 2 92h-3q-22 -47 -69 -73.5t-107 -26.5z" />
    <glyph glyph-name="v" unicode="v" horiz-adv-x="549" 
d="M234 0l-207 494h81l80 -200q51 -127 86 -218h2q40 107 85 218l82 200h79l-207 -494h-81z" />
    <glyph glyph-name="w" unicode="w" horiz-adv-x="826" 
d="M204 0l-171 494h79l66 -204q39 -120 68 -214h2q32 110 67 213l68 205h64l67 -204q43 -134 66 -214h3q23 85 66 213l67 205h77l-170 -494h-84l-44 136q-54 165 -79 255h-2q-29 -95 -81 -255l-44 -136h-85z" />
    <glyph glyph-name="x" unicode="x" horiz-adv-x="488" 
d="M290 257l185 -257h-90l-62 90q-68 101 -78 118h-2q-16 -27 -79 -118l-62 -90h-89l183 256l-171 238h91l70 -104q38 -53 57 -85h2q20 34 57 86l70 103h89z" />
    <glyph glyph-name="y" unicode="y" horiz-adv-x="544" 
d="M437 494h80l-249 -607q-27 -66 -62.5 -97t-85.5 -31q-49 0 -90 27l29 61q24 -18 57 -18q29 0 49 19.5t39 62.5l33 79l-211 504h80l98 -240q42 -104 71 -182h2q43 116 69 182z" />
    <glyph glyph-name="z" unicode="z" horiz-adv-x="474" 
d="M31 0v43l268 344q9 13 31 40l-1 2q-14 -2 -43 -2h-239v67h389v-41l-270 -347q-24 -31 -31 -38l1 -2q28 2 43 2h257v-68h-405z" />
    <glyph glyph-name="braceleft" unicode="{" horiz-adv-x="347" 
d="M243 -135q-129 0 -129 139v164q0 95 -76 95v58q76 0 76 95v164q0 139 129 139q27 0 63 -6v-60q-23 4 -46 4q-39 0 -54 -17t-15 -61v-163q0 -95 -68 -123v-2q68 -29 68 -123v-164q0 -44 15 -61t54 -17q18 0 46 5v-60q-36 -6 -63 -6z" />
    <glyph glyph-name="bar" unicode="|" horiz-adv-x="278" 
d="M102 -106v831h74v-831h-74z" />
    <glyph glyph-name="braceright" unicode="}" horiz-adv-x="347" 
d="M104 -135q-27 0 -63 6v60q28 -5 46 -5q39 0 54 17t15 61v164q0 94 68 123v2q-68 28 -68 123v163q0 44 -15 61t-54 17q-23 0 -46 -4v60q36 6 63 6q129 0 129 -139v-164q0 -95 76 -95v-58q-76 0 -76 -95v-164q0 -139 -129 -139z" />
    <glyph glyph-name="asciitilde" unicode="~" horiz-adv-x="634" 
d="M433 232q-42 0 -115 42.5t-105 42.5q-59 0 -86 -65l-52 21q17 51 53 79t82 28q43 0 117.5 -41.5t101.5 -41.5q46 0 70 59l56 -20q-17 -49 -48.5 -76.5t-73.5 -27.5z" />
    <glyph glyph-name="uni00A0" unicode="&#xa0;" horiz-adv-x="258" 
 />
    <glyph glyph-name="exclamdown" unicode="&#xa1;" horiz-adv-x="259" 
d="M129 508q22 0 36 -14t14 -36q0 -21 -14 -35t-36 -14t-36 14t-14 35q0 22 14 36t36 14zM94 329h71l2 -529h-76z" />
    <glyph glyph-name="cent" unicode="&#xa2;" horiz-adv-x="515" 
d="M480 52q-59 -51 -143 -60v-94h-72v94q-96 12 -158 79.5t-62 174.5t61.5 175.5t158.5 80.5v91h72v-91q77 -7 137 -56l-38 -56q-58 47 -133 47q-79 0 -131.5 -51t-52.5 -138q0 -88 52.5 -139.5t129.5 -51.5q80 0 144 53z" />
    <glyph glyph-name="sterling" unicode="&#xa3;" horiz-adv-x="616" 
d="M165 72h382v-72h-484v68q96 81 96 183q0 23 -4 42h-92v66h77q-24 84 -24 145q0 97 66.5 150.5t173.5 53.5q100 0 176 -57l-38 -57q-58 45 -137 45q-77 0 -120 -37.5t-43 -103.5q0 -41 25 -139h245v-66h-230q4 -32 4 -47q0 -94 -73 -174z" />
    <glyph glyph-name="currency" unicode="&#xa4;" horiz-adv-x="604" 
d="M128 90l-55 54l60 59q-37 56 -37 117q0 65 38 120l-59 57l55 55l56 -57q50 32 116 32q67 0 115 -33l60 60l54 -55l-58 -58q36 -56 36 -120t-37 -118l60 -59l-54 -54l-62 59q-49 -30 -114 -30q-63 0 -114 30zM302 182q60 0 98.5 39.5t38.5 100.5q0 62 -38.5 101.5
t-98.5 39.5q-61 0 -99.5 -39.5t-38.5 -101.5q0 -61 39 -100.5t99 -39.5z" />
    <glyph glyph-name="yen" unicode="&#xa5;" horiz-adv-x="693" 
d="M663 700l-248 -370h126v-61h-158v-57h158v-61h-158v-151h-77v151h-158v61h158v57h-158v61h126l-243 370h94l220 -345l223 345h95z" />
    <glyph glyph-name="brokenbar" unicode="&#xa6;" horiz-adv-x="278" 
d="M102 345v380h74v-380h-74zM102 -106v386h74v-386h-74z" />
    <glyph glyph-name="section" unicode="&#xa7;" horiz-adv-x="577" 
d="M424 244q41 -16 65 -47t24 -69q0 -65 -61.5 -103.5t-164.5 -38.5q-132 0 -226 68l34 56q79 -58 193 -58q68 0 107.5 21t39.5 58q0 70 -147 78q-104 5 -159.5 41t-55.5 100q0 40 23.5 70.5t62.5 43.5q-82 30 -82 113q0 63 58 100t158 37q101 0 183 -47l-30 -57
q-76 40 -154 40q-63 0 -100.5 -20.5t-37.5 -56.5q0 -67 140 -75q217 -14 217 -140q0 -40 -23 -70.5t-64 -43.5zM149 352q0 -38 37.5 -60t104.5 -22t105.5 22.5t38.5 62.5q0 38 -37.5 60t-104.5 22t-105.5 -22.5t-38.5 -62.5z" />
    <glyph glyph-name="dieresis" unicode="&#xa8;" horiz-adv-x="474" 
d="M133 591q-21 0 -35.5 13.5t-14.5 36.5t14.5 36.5t35.5 13.5q20 0 34.5 -13.5t14.5 -36.5t-14.5 -36.5t-34.5 -13.5zM329 591q-21 0 -35.5 13.5t-14.5 36.5t14.5 36.5t35.5 13.5t35.5 -13.5t14.5 -36.5t-14.5 -36.5t-35.5 -13.5z" />
    <glyph glyph-name="copyright" unicode="&#xa9;" horiz-adv-x="839" 
d="M421 -14q-160 0 -261.5 102t-101.5 262t101.5 262t261.5 102t260 -101.5t100 -262.5t-100 -262.5t-260 -101.5zM421 47q132 0 213.5 84t81.5 219t-81.5 219t-213.5 84t-215 -84.5t-83 -218.5t83 -218.5t215 -84.5zM438 156q-86 0 -142 54.5t-56 139.5q0 86 55.5 141
t142.5 55q82 0 140 -58l-40 -40q-40 39 -100 39q-61 0 -99.5 -38t-38.5 -99q0 -58 39.5 -96.5t98.5 -38.5q54 0 99 40l41 -41q-61 -58 -140 -58z" />
    <glyph glyph-name="ordfeminine" unicode="&#xaa;" horiz-adv-x="491" 
d="M217 581q60 0 111 -26v23q0 41 -28 61t-75 20q-56 0 -107 -24l-10 47q59 26 119 26q160 0 160 -127v-206h-53q0 38 1 61h-2q-15 -31 -49 -48.5t-75 -17.5q-55 0 -90.5 26.5t-35.5 75.5q0 52 37.5 80.5t96.5 28.5zM221 416q43 0 73.5 26t34.5 67q-49 27 -102 27
q-38 0 -61.5 -16t-23.5 -45q0 -27 23 -43t56 -16zM75 306h333v-60h-333v60z" />
    <glyph glyph-name="guillemotleft" unicode="&#xab;" horiz-adv-x="455" 
d="M266 517l-140 -220l140 -220h-80l-138 220l138 220h80zM403 517l-141 -220l141 -220h-80l-138 220l138 220h80z" />
    <glyph glyph-name="logicalnot" unicode="&#xac;" horiz-adv-x="521" 
d="M370 167v137h-295v65h363v-202h-68z" />
    <glyph glyph-name="uni00AD" unicode="&#xad;" horiz-adv-x="506" 
d="M75 255v68h356v-68h-356z" />
    <glyph glyph-name="registered" unicode="&#xae;" horiz-adv-x="360" 
d="M179 714q63 0 101 -38t38 -99t-38.5 -99t-100.5 -38t-100 37.5t-38 99.5q0 61 38 99t100 38zM179 472q48 0 76.5 28.5t28.5 76.5q0 47 -28.5 76t-76.5 29q-47 0 -76 -29t-29 -76t29 -76t76 -29zM242 601q0 -31 -30 -43l29 -50h-32l-27 46h-28v-46h-27v141h63
q21 0 36.5 -14.5t15.5 -33.5zM190 580q24 0 24 21t-24 21h-36v-42h36z" />
    <glyph glyph-name="macron" unicode="&#xaf;" horiz-adv-x="429" 
d="M94 594v59h274v-59h-274z" />
    <glyph glyph-name="degree" unicode="&#xb0;" horiz-adv-x="338" 
d="M169 489q-49 0 -80.5 30.5t-31.5 78.5q0 47 31.5 78t80.5 31t81 -31t32 -78q0 -48 -31.5 -78.5t-81.5 -30.5zM169 537q27 0 44.5 17.5t17.5 43.5t-17.5 43.5t-44.5 17.5t-44.5 -17.5t-17.5 -43.5t17.5 -43.5t44.5 -17.5z" />
    <glyph glyph-name="plusminus" unicode="&#xb1;" horiz-adv-x="554" 
d="M241 179v158h-164v69h164v161h73v-161h164v-69h-164v-158h-73zM75 105h405v-67h-405v67z" />
    <glyph glyph-name="uni00B2" unicode="&#xb2;" horiz-adv-x="372" 
d="M106 509h210v-54h-275q0 74 21 109t97 71q59 27 76 43.5t17 40.5q0 22 -19 36t-54 14q-48 0 -99 -35l-32 42q58 46 136 46q60 0 93.5 -28t33.5 -74q0 -42 -28 -72t-90 -58q-48 -21 -66.5 -39.5t-20.5 -41.5z" />
    <glyph glyph-name="uni00B3" unicode="&#xb3;" horiz-adv-x="368" 
d="M265 642q61 -23 61 -82q0 -51 -39 -81.5t-107 -30.5q-76 0 -134 38l25 47q48 -30 109 -30q87 0 87 57q0 58 -83 58h-55v48h53q38 0 58.5 13.5t20.5 38.5q0 23 -21 37t-60 14q-58 0 -102 -25l-21 46q59 32 123 32q67 0 102 -27t35 -70q0 -60 -52 -83z" />
    <glyph glyph-name="acute" unicode="&#xb4;" horiz-adv-x="245" 
d="M73 570l74 130h90l-94 -130h-70z" />
    <glyph glyph-name="uni00B5" unicode="&#xb5;" horiz-adv-x="639" 
d="M82 -235v729h74v-268q0 -80 39.5 -123.5t109.5 -43.5q69 0 114 48t45 119v268h74v-494h-69q0 61 2 92h-3q-22 -47 -69 -73.5t-107 -26.5q-93 0 -135 55l-2 -1q2 -35 2 -101v-180h-75z" />
    <glyph glyph-name="paragraph" unicode="&#xb6;" horiz-adv-x="811" 
d="M786 700v-73h-113v-842h-77v842h-241v-842h-77v402q-112 4 -177 77.5t-65 179.5q0 107 71 181.5t192 74.5h487z" />
    <glyph glyph-name="periodcentered" unicode="&#xb7;" horiz-adv-x="248" 
d="M124 236q-22 0 -36 14t-14 35q0 22 14 36t36 14t36 -14t14 -36q0 -21 -14 -35t-36 -14z" />
    <glyph glyph-name="cedilla" unicode="&#xb8;" horiz-adv-x="304" 
d="M176 -46q46 0 72.5 -24t26.5 -65q0 -40 -32.5 -66.5t-81.5 -26.5q-66 0 -112 44l30 38q33 -30 79 -30q27 0 44 12.5t17 32.5q0 21 -16.5 32.5t-45.5 11.5q-21 0 -34 -6l-18 14l29 95l55 -4l-18 -58h5z" />
    <glyph glyph-name="uni00B9" unicode="&#xb9;" horiz-adv-x="252" 
d="M157 821h3v-366h-58v295l-62 -19v57z" />
    <glyph glyph-name="ordmasculine" unicode="&#xba;" horiz-adv-x="489" 
d="M244 372q-76 0 -122.5 46t-46.5 121t46.5 121t122.5 46q78 0 124 -46t46 -121t-46 -121t-124 -46zM244 428q49 0 78.5 30.5t29.5 80.5t-29.5 80.5t-78.5 30.5q-48 0 -77.5 -30.5t-29.5 -80.5t29.5 -80.5t77.5 -30.5zM88 246v60h313v-60h-313z" />
    <glyph glyph-name="guillemotright" unicode="&#xbb;" horiz-adv-x="480" 
d="M157 517l138 -220l-138 -220h-80l141 220l-141 220h80zM293 517l139 -220l-139 -220h-79l140 220l-140 220h79z" />
    <glyph glyph-name="onequarter" unicode="&#xbc;" horiz-adv-x="750" 
d="M160 340h-58v295l-62 -19v57l117 33h3v-366zM498 700h69l-375 -700h-68zM669 129h42v-52h-42v-77h-57v77h-193l-5 47l179 236h76v-231zM612 258q0 26 1 44h-2q-18 -26 -32 -44l-64 -84l-35 -44v-2q13 1 35 1h97v129z" />
    <glyph glyph-name="onehalf" unicode="&#xbd;" horiz-adv-x="783" 
d="M160 340h-58v295l-62 -19v57l117 33h3v-366zM498 700h69l-375 -700h-68zM517 54h210v-54h-275q0 74 21 109t97 71q59 27 76 43.5t17 40.5q0 22 -19 36t-54 14q-48 0 -99 -35l-32 42q58 46 136 46q60 0 93.5 -28t33.5 -74q0 -42 -28 -72t-90 -58q-48 -21 -66.5 -39.5
t-20.5 -41.5z" />
    <glyph glyph-name="threequarters" unicode="&#xbe;" horiz-adv-x="836" 
d="M326 445q0 -51 -39 -81.5t-107 -30.5q-76 0 -134 38l25 47q48 -30 109 -30q87 0 87 57q0 58 -83 58h-55v48h53q38 0 58.5 13.5t20.5 38.5q0 23 -21 37t-60 14q-58 0 -102 -25l-21 46q59 32 123 32q67 0 102 -27t35 -70q0 -60 -52 -83q61 -23 61 -82zM584 700h69
l-375 -700h-68zM755 129h42v-52h-42v-77h-57v77h-193l-5 47l179 236h76v-231zM698 258q0 26 1 44h-2q-18 -26 -32 -44l-64 -84l-35 -44v-2q13 1 35 1h97v129z" />
    <glyph glyph-name="questiondown" unicode="&#xbf;" horiz-adv-x="527" 
d="M348 518q22 0 36 -14t14 -36q0 -21 -14 -35t-36 -14t-36 14t-14 35q0 22 14 36t36 14zM387 338v-45q0 -56 -26 -92t-95 -69q-51 -25 -74 -56.5t-23 -76.5q0 -60 39.5 -93t108.5 -33q91 0 182 63l37 -60q-103 -75 -219 -75q-103 0 -164.5 53t-61.5 143q0 130 124 193
q57 29 76 50.5t19 58.5v39h77z" />
    <glyph glyph-name="Agrave" unicode="&#xc0;" horiz-adv-x="756" 
d="M423 774h-69l-95 127h90zM651 0l-74 162h-400l-73 -162h-84l314 700h87l314 -700h-84zM377 623q-35 -84 -70 -162l-99 -228h338l-99 230q-58 134 -68 160h-2z" />
    <glyph glyph-name="Aacute" unicode="&#xc1;" horiz-adv-x="756" 
d="M497 901l-95 -127h-69l74 127h90zM651 0l-74 162h-400l-73 -162h-84l314 700h87l314 -700h-84zM377 623q-35 -84 -70 -162l-99 -228h338l-99 230q-58 134 -68 160h-2z" />
    <glyph glyph-name="Acircumflex" unicode="&#xc2;" horiz-adv-x="756" 
d="M378 842l-75 -68h-78l128 127h49l128 -127h-78zM651 0l-74 162h-400l-73 -162h-84l314 700h87l314 -700h-84zM377 623q-35 -84 -70 -162l-99 -228h338l-99 230q-58 134 -68 160h-2z" />
    <glyph glyph-name="Atilde" unicode="&#xc3;" horiz-adv-x="756" 
d="M317 827q-28 0 -41 -35l-46 23q23 72 81 72q23 0 71 -23q37 -18 57 -18q27 0 37 33l48 -18q-7 -38 -28.5 -56.5t-50.5 -18.5q-31 0 -71 21q-37 20 -57 20zM651 0l-74 162h-400l-73 -162h-84l314 700h87l314 -700h-84zM377 623q-35 -84 -70 -162l-99 -228h338l-99 230
q-58 134 -68 160h-2z" />
    <glyph glyph-name="Adieresis" unicode="&#xc4;" horiz-adv-x="756" 
d="M274 792q-22 0 -38 14.5t-16 38.5q0 25 16 39t38 14t37.5 -14t15.5 -39q0 -24 -15.5 -38.5t-37.5 -14.5zM482 792q-22 0 -37.5 14.5t-15.5 38.5q0 25 15.5 39t37.5 14t38 -14t16 -39q0 -24 -16 -38.5t-38 -14.5zM651 0l-74 162h-400l-73 -162h-84l314 700h87l314 -700
h-84zM377 623q-35 -84 -70 -162l-99 -228h338l-99 230q-58 134 -68 160h-2z" />
    <glyph glyph-name="Aring" unicode="&#xc5;" horiz-adv-x="756" 
d="M651 0l-74 162h-400l-73 -162h-84l300 669q-56 28 -56 93q0 46 32.5 76.5t81.5 30.5t81 -30.5t32 -76.5q0 -64 -56 -94l300 -668h-84zM378 820q-27 0 -43.5 -16t-16.5 -42t16.5 -42t43.5 -16q26 0 42.5 16t16.5 42t-16.5 42t-42.5 16zM377 623q-35 -84 -70 -162l-99 -228
h338l-99 230q-58 134 -68 160h-2z" />
    <glyph glyph-name="AE" unicode="&#xc6;" horiz-adv-x="1007" 
d="M561 73h383v-73h-459v193h-285l-136 -193h-90l485 700h474v-72h-372v-238h351v-72h-351v-245zM244 263h241v289q0 27 2 57l-2 1q-2 -3 -10.5 -15.5t-18 -26t-18.5 -26.5z" />
    <glyph glyph-name="Ccedilla" unicode="&#xc7;" horiz-adv-x="715" 
d="M435 -46q46 0 73 -24t27 -65q0 -40 -32.5 -66.5t-82.5 -26.5q-67 0 -114 45l31 38q35 -30 79 -30q28 0 44.5 12t16.5 32q0 44 -61 44q-23 0 -34 -7l-20 15l22 67q-147 11 -238.5 110.5t-91.5 249.5q0 161 102 263t262 102q148 0 250 -100l-46 -57q-88 83 -205 83
q-126 0 -205 -80t-79 -207q0 -129 79.5 -210t205.5 -81q123 0 208 81l46 -58q-91 -90 -231 -96l-10 -34h4z" />
    <glyph glyph-name="Egrave" unicode="&#xc8;" horiz-adv-x="639" 
d="M387 774h-69l-95 127h90zM179 73h398v-73h-475v700h465v-72h-388v-238h370v-72h-370v-245z" />
    <glyph glyph-name="Eacute" unicode="&#xc9;" horiz-adv-x="639" 
d="M460 901l-95 -127h-69l74 127h90zM179 73h398v-73h-475v700h465v-72h-388v-238h370v-72h-370v-245z" />
    <glyph glyph-name="Ecircumflex" unicode="&#xca;" horiz-adv-x="639" 
d="M340 842l-74 -68h-78l128 127h49l128 -127h-78zM179 73h398v-73h-475v700h465v-72h-388v-238h370v-72h-370v-245z" />
    <glyph glyph-name="Edieresis" unicode="&#xcb;" horiz-adv-x="639" 
d="M237 792q-22 0 -38 14.5t-16 38.5q0 25 16 39t38 14t37.5 -14t15.5 -39q0 -24 -15.5 -38.5t-37.5 -14.5zM445 792q-22 0 -37.5 14.5t-15.5 38.5q0 25 15.5 39t37.5 14t38 -14t16 -39q0 -24 -16 -38.5t-38 -14.5zM179 73h398v-73h-475v700h465v-72h-388v-238h370v-72h-370
v-245z" />
    <glyph glyph-name="Igrave" unicode="&#xcc;" horiz-adv-x="281" 
d="M187 774h-69l-95 127h90zM102 0v700h77v-700h-77z" />
    <glyph glyph-name="Iacute" unicode="&#xcd;" horiz-adv-x="281" 
d="M96 774l74 127h90l-95 -127h-69zM102 0v700h77v-700h-77z" />
    <glyph glyph-name="Icircumflex" unicode="&#xce;" horiz-adv-x="281" 
d="M165 901l123 -127h-79l-68 67l-69 -67h-78l123 127h48zM102 0v700h77v-700h-77z" />
    <glyph glyph-name="Idieresis" unicode="&#xcf;" horiz-adv-x="281" 
d="M37 792q-22 0 -38 14.5t-16 38.5q0 25 16 39t38 14t37.5 -14t15.5 -39q0 -24 -15.5 -38.5t-37.5 -14.5zM245 792q-22 0 -37.5 14.5t-15.5 38.5q0 25 15.5 39t37.5 14t38 -14t16 -39q0 -24 -16 -38.5t-38 -14.5zM102 0v700h77v-700h-77z" />
    <glyph glyph-name="Eth" unicode="&#xd0;" horiz-adv-x="761" 
d="M354 700q157 0 255 -96.5t98 -252.5q0 -157 -98 -254t-256 -97h-248v322h-79v66h79v312h249zM354 73q122 0 198.5 76.5t76.5 199.5q0 124 -76.5 201t-199.5 77h-172v-239h202v-66h-202v-249h173z" />
    <glyph glyph-name="Ntilde" unicode="&#xd1;" horiz-adv-x="776" 
d="M456 786q-31 0 -71 21q-37 20 -57 20q-28 0 -41 -35l-46 23q23 72 81 72q23 0 71 -23q38 -18 57 -18q27 0 37 33l48 -18q-7 -38 -28.5 -56.5t-50.5 -18.5zM102 0v700h77l367 -504q41 -56 51 -72l2 1q-2 32 -2 58v517h77v-700h-76l-368 504q-41 56 -51 72l-2 -1
q2 -32 2 -58v-517h-77z" />
    <glyph glyph-name="Ograve" unicode="&#xd2;" horiz-adv-x="820" 
d="M455 774h-69l-95 127h90zM408 -14q-156 0 -255 101.5t-99 261.5q0 162 99.5 263.5t258.5 101.5q156 0 254.5 -101.5t98.5 -261.5q0 -162 -99 -263.5t-258 -101.5zM409 59q122 0 199.5 81t77.5 209q0 130 -77 211t-199 81t-199.5 -81t-77.5 -209q0 -130 77 -211t199 -81z
" />
    <glyph glyph-name="Oacute" unicode="&#xd3;" horiz-adv-x="820" 
d="M365 774l74 127h90l-95 -127h-69zM408 -14q-156 0 -255 101.5t-99 261.5q0 162 99.5 263.5t258.5 101.5q156 0 254.5 -101.5t98.5 -261.5q0 -162 -99 -263.5t-258 -101.5zM409 59q122 0 199.5 81t77.5 209q0 130 -77 211t-199 81t-199.5 -81t-77.5 -209q0 -130 77 -211
t199 -81z" />
    <glyph glyph-name="Ocircumflex" unicode="&#xd4;" horiz-adv-x="820" 
d="M562 774h-78l-75 68l-74 -68h-78l128 127h49zM408 -14q-156 0 -255 101.5t-99 261.5q0 162 99.5 263.5t258.5 101.5q156 0 254.5 -101.5t98.5 -261.5q0 -162 -99 -263.5t-258 -101.5zM409 59q122 0 199.5 81t77.5 209q0 130 -77 211t-199 81t-199.5 -81t-77.5 -209
q0 -130 77 -211t199 -81z" />
    <glyph glyph-name="Otilde" unicode="&#xd5;" horiz-adv-x="820" 
d="M477 786q-31 0 -71 21q-37 20 -57 20q-28 0 -41 -35l-46 23q23 72 81 72q23 0 71 -23q37 -18 57 -18q27 0 37 33l48 -18q-7 -38 -28.5 -56.5t-50.5 -18.5zM408 -14q-156 0 -255 101.5t-99 261.5q0 162 99.5 263.5t258.5 101.5q156 0 254.5 -101.5t98.5 -261.5
q0 -162 -99 -263.5t-258 -101.5zM409 59q122 0 199.5 81t77.5 209q0 130 -77 211t-199 81t-199.5 -81t-77.5 -209q0 -130 77 -211t199 -81z" />
    <glyph glyph-name="Odieresis" unicode="&#xd6;" horiz-adv-x="820" 
d="M306 792q-22 0 -38 14.5t-16 38.5q0 25 16 39t38 14t37.5 -14t15.5 -39q0 -24 -15.5 -38.5t-37.5 -14.5zM514 792q-22 0 -37.5 14.5t-15.5 38.5q0 25 15.5 39t37.5 14t38 -14t16 -39q0 -24 -16 -38.5t-38 -14.5zM408 -14q-156 0 -255 101.5t-99 261.5q0 162 99.5 263.5
t258.5 101.5q156 0 254.5 -101.5t98.5 -261.5q0 -162 -99 -263.5t-258 -101.5zM409 59q122 0 199.5 81t77.5 209q0 130 -77 211t-199 81t-199.5 -81t-77.5 -209q0 -130 77 -211t199 -81z" />
    <glyph glyph-name="multiply" unicode="&#xd7;" horiz-adv-x="463" 
d="M393 201l-45 -44l-117 119l-117 -120l-45 45l118 120l-115 117l46 46l114 -117l114 116l45 -45l-115 -117z" />
    <glyph glyph-name="Oslash" unicode="&#xd8;" horiz-adv-x="820" 
d="M627 647q65 -48 101.5 -124.5t36.5 -171.5q0 -162 -99 -263.5t-258 -101.5q-85 0 -157 32l-53 -90h-80l75 125q-66 48 -102.5 124.5t-36.5 171.5q0 162 99.5 263.5t258.5 101.5q88 0 157 -33l51 86h79zM133 351q0 -153 102 -234l297 498q-55 26 -122 26
q-122 0 -199.5 -81t-77.5 -209zM409 59q122 0 199.5 81t77.5 209q0 151 -101 233l-297 -498q56 -25 121 -25z" />
    <glyph glyph-name="Ugrave" unicode="&#xd9;" horiz-adv-x="746" 
d="M418 774h-69l-95 127h90zM373 -13q-125 0 -202.5 80t-77.5 211v422h77v-421q0 -100 55.5 -160t147.5 -60t147.5 60t55.5 160v421h77v-422q0 -131 -77.5 -211t-202.5 -80z" />
    <glyph glyph-name="Uacute" unicode="&#xda;" horiz-adv-x="746" 
d="M328 774l74 127h90l-95 -127h-69zM373 -13q-125 0 -202.5 80t-77.5 211v422h77v-421q0 -100 55.5 -160t147.5 -60t147.5 60t55.5 160v421h77v-422q0 -131 -77.5 -211t-202.5 -80z" />
    <glyph glyph-name="Ucircumflex" unicode="&#xdb;" horiz-adv-x="746" 
d="M525 774h-78l-75 68l-74 -68h-78l128 127h49zM373 -13q-125 0 -202.5 80t-77.5 211v422h77v-421q0 -100 55.5 -160t147.5 -60t147.5 60t55.5 160v421h77v-422q0 -131 -77.5 -211t-202.5 -80z" />
    <glyph glyph-name="Udieresis" unicode="&#xdc;" horiz-adv-x="746" 
d="M269 792q-22 0 -38 14.5t-16 38.5q0 25 16 39t38 14t37.5 -14t15.5 -39q0 -24 -15.5 -38.5t-37.5 -14.5zM477 792q-22 0 -37.5 14.5t-15.5 38.5q0 25 15.5 39t37.5 14t38 -14t16 -39q0 -24 -16 -38.5t-38 -14.5zM373 -13q-125 0 -202.5 80t-77.5 211v422h77v-421
q0 -100 55.5 -160t147.5 -60t147.5 60t55.5 160v421h77v-422q0 -131 -77.5 -211t-202.5 -80z" />
    <glyph glyph-name="Yacute" unicode="&#xdd;" horiz-adv-x="663" 
d="M451 901l-95 -127h-69l74 127h90zM641 700l-273 -413v-287h-77v285l-268 415h91l161 -258q53 -90 54 -91h2q16 29 57 93l160 256h93z" />
    <glyph glyph-name="Thorn" unicode="&#xde;" horiz-adv-x="660" 
d="M385 587q116 0 178.5 -67.5t62.5 -167.5t-62.5 -168t-178.5 -68h-206v-116h-77v700h77v-113h206zM382 188q82 0 124 46t42 116q0 72 -42 118.5t-124 46.5h-203v-327h203z" />
    <glyph glyph-name="germandbls" unicode="&#xdf;" horiz-adv-x="618" 
d="M420 388q68 -15 109.5 -66.5t41.5 -122.5q0 -97 -60.5 -154t-163.5 -57q-65 0 -124 20l13 67q47 -19 99 -19q75 0 118.5 38t43.5 106q0 73 -51.5 112.5t-146.5 39.5h-69v63h66q70 0 109.5 30t39.5 83q0 55 -37.5 85t-107.5 30q-144 0 -144 -146v-497h-74v500
q0 101 56.5 156t161.5 55q101 0 159.5 -49t58.5 -133q0 -51 -26.5 -89t-71.5 -52z" />
    <glyph glyph-name="agrave" unicode="&#xe0;" horiz-adv-x="560" 
d="M304 570h-69l-95 130h90zM251 502q108 0 171 -46t63 -144v-312h-66q0 66 2 98h-2q-24 -49 -76.5 -77.5t-114.5 -28.5q-82 0 -136.5 41.5t-54.5 116.5q0 76 57 118.5t143 42.5q100 0 174 -41v42q0 63 -44 94t-120 31q-72 0 -153 -35l-20 60q89 40 177 40zM240 55
q69 0 118.5 41t54.5 110q-73 44 -164 44q-61 0 -99.5 -26t-38.5 -72q0 -45 37.5 -71t91.5 -26z" />
    <glyph glyph-name="aacute" unicode="&#xe1;" horiz-adv-x="560" 
d="M386 700l-94 -130h-70l74 130h90zM251 502q108 0 171 -46t63 -144v-312h-66q0 66 2 98h-2q-24 -49 -76.5 -77.5t-114.5 -28.5q-82 0 -136.5 41.5t-54.5 116.5q0 76 57 118.5t143 42.5q100 0 174 -41v42q0 63 -44 94t-120 31q-72 0 -153 -35l-20 60q89 40 177 40zM240 55
q69 0 118.5 41t54.5 110q-73 44 -164 44q-61 0 -99.5 -26t-38.5 -72q0 -45 37.5 -71t91.5 -26z" />
    <glyph glyph-name="acircumflex" unicode="&#xe2;" horiz-adv-x="560" 
d="M272 644l-80 -74h-79l135 130h49l135 -130h-79zM251 502q108 0 171 -46t63 -144v-312h-66q0 66 2 98h-2q-24 -49 -76.5 -77.5t-114.5 -28.5q-82 0 -136.5 41.5t-54.5 116.5q0 76 57 118.5t143 42.5q100 0 174 -41v42q0 63 -44 94t-120 31q-72 0 -153 -35l-20 60
q89 40 177 40zM240 55q69 0 118.5 41t54.5 110q-73 44 -164 44q-61 0 -99.5 -26t-38.5 -72q0 -45 37.5 -71t91.5 -26z" />
    <glyph glyph-name="atilde" unicode="&#xe3;" horiz-adv-x="560" 
d="M217 636q-28 0 -41 -35l-45 23q21 72 80 72q24 0 66 -23q34 -18 51 -18q28 0 38 34l48 -19q-7 -38 -29 -56.5t-50 -18.5t-66 22q-33 19 -52 19zM251 502q108 0 171 -46t63 -144v-312h-66q0 66 2 98h-2q-24 -49 -76.5 -77.5t-114.5 -28.5q-82 0 -136.5 41.5t-54.5 116.5
q0 76 57 118.5t143 42.5q100 0 174 -41v42q0 63 -44 94t-120 31q-72 0 -153 -35l-20 60q89 40 177 40zM240 55q69 0 118.5 41t54.5 110q-73 44 -164 44q-61 0 -99.5 -26t-38.5 -72q0 -45 37.5 -71t91.5 -26z" />
    <glyph glyph-name="adieresis" unicode="&#xe4;" horiz-adv-x="560" 
d="M174 591q-20 0 -34.5 13.5t-14.5 36.5t14.5 36.5t34.5 13.5q21 0 35.5 -13.5t14.5 -36.5t-14.5 -36.5t-35.5 -13.5zM371 591q-21 0 -35.5 13.5t-14.5 36.5t14.5 36.5t35.5 13.5t35.5 -13.5t14.5 -36.5t-14.5 -36.5t-35.5 -13.5zM251 502q108 0 171 -46t63 -144v-312h-66
q0 66 2 98h-2q-24 -49 -76.5 -77.5t-114.5 -28.5q-82 0 -136.5 41.5t-54.5 116.5q0 76 57 118.5t143 42.5q100 0 174 -41v42q0 63 -44 94t-120 31q-72 0 -153 -35l-20 60q89 40 177 40zM240 55q69 0 118.5 41t54.5 110q-73 44 -164 44q-61 0 -99.5 -26t-38.5 -72
q0 -45 37.5 -71t91.5 -26z" />
    <glyph glyph-name="aring" unicode="&#xe5;" horiz-adv-x="560" 
d="M272 540q-50 0 -82 30.5t-32 76.5t32.5 76t81.5 30t81 -30t32 -76q0 -47 -32 -77t-81 -30zM272 704q-27 0 -43.5 -15.5t-16.5 -41.5t16.5 -42t43.5 -16q26 0 43 16.5t17 41.5t-17 41t-43 16zM251 502q108 0 171 -46t63 -144v-312h-66q0 66 2 98h-2q-24 -49 -76.5 -77.5
t-114.5 -28.5q-82 0 -136.5 41.5t-54.5 116.5q0 76 57 118.5t143 42.5q100 0 174 -41v42q0 63 -44 94t-120 31q-72 0 -153 -35l-20 60q89 40 177 40zM240 55q69 0 118.5 41t54.5 110q-73 44 -164 44q-61 0 -99.5 -26t-38.5 -72q0 -45 37.5 -71t91.5 -26z" />
    <glyph glyph-name="ae" unicode="&#xe6;" horiz-adv-x="915" 
d="M879 259q0 -11 -2 -41h-390q8 -73 53.5 -116t117.5 -43q88 0 154 58l42 -47q-36 -37 -89 -57.5t-109 -20.5q-66 0 -123.5 31t-87.5 86q-29 -56 -87.5 -86.5t-126.5 -30.5q-83 0 -138.5 41.5t-55.5 116.5q0 76 57 118.5t143 42.5q100 0 174 -40v41q0 63 -44 94t-120 31
q-85 0 -159 -36l-13 61q87 40 176 40q170 0 210 -109q29 53 82 82t115 29q98 0 159.5 -64.5t61.5 -180.5zM655 438q-67 0 -112.5 -42t-55.5 -115h321q-2 75 -43.5 116t-109.5 41zM240 55q67 0 117 41t57 109q-33 20 -79 32.5t-86 12.5q-61 0 -99.5 -26t-38.5 -72
q0 -45 37.5 -71t91.5 -26z" />
    <glyph glyph-name="ccedilla" unicode="&#xe7;" horiz-adv-x="515" 
d="M316 -46q45 0 72 -24.5t27 -64.5t-32.5 -66.5t-81.5 -26.5q-67 0 -113 44l30 38q34 -30 80 -30q26 0 43 12.5t17 32.5q0 44 -61 44q-21 0 -34 -6l-19 14l22 71q-96 11 -158.5 78.5t-62.5 175.5q0 118 73.5 188t185.5 70q100 0 170 -58l-38 -56q-58 47 -133 47
q-79 0 -131.5 -51t-52.5 -138q0 -88 52.5 -139.5t129.5 -51.5q80 0 144 53l35 -58q-67 -56 -159 -61l-11 -37h6z" />
    <glyph glyph-name="egrave" unicode="&#xe8;" horiz-adv-x="564" 
d="M326 570h-69l-95 130h90zM528 259q0 -12 -2 -40h-407q5 -75 53.5 -119t123.5 -44q100 0 168 64l39 -50q-77 -80 -208 -80q-112 0 -181 71t-69 186q0 113 70 185t180 72q106 0 169.5 -64t63.5 -181zM292 438q-69 0 -115.5 -42t-56.5 -115h339q-3 76 -47 116.5t-120 40.5z
" />
    <glyph glyph-name="eacute" unicode="&#xe9;" horiz-adv-x="564" 
d="M409 700l-94 -130h-70l74 130h90zM528 259q0 -12 -2 -40h-407q5 -75 53.5 -119t123.5 -44q100 0 168 64l39 -50q-77 -80 -208 -80q-112 0 -181 71t-69 186q0 113 70 185t180 72q106 0 169.5 -64t63.5 -181zM292 438q-69 0 -115.5 -42t-56.5 -115h339q-3 76 -47 116.5
t-120 40.5z" />
    <glyph glyph-name="ecircumflex" unicode="&#xea;" horiz-adv-x="564" 
d="M294 644l-80 -74h-79l135 130h49l135 -130h-79zM528 259q0 -12 -2 -40h-407q5 -75 53.5 -119t123.5 -44q100 0 168 64l39 -50q-77 -80 -208 -80q-112 0 -181 71t-69 186q0 113 70 185t180 72q106 0 169.5 -64t63.5 -181zM292 438q-69 0 -115.5 -42t-56.5 -115h339
q-3 76 -47 116.5t-120 40.5z" />
    <glyph glyph-name="edieresis" unicode="&#xeb;" horiz-adv-x="564" 
d="M196 591q-20 0 -34.5 13.5t-14.5 36.5t14.5 36.5t34.5 13.5q21 0 35.5 -13.5t14.5 -36.5t-14.5 -36.5t-35.5 -13.5zM393 591q-21 0 -35.5 13.5t-14.5 36.5t14.5 36.5t35.5 13.5t35.5 -13.5t14.5 -36.5t-14.5 -36.5t-35.5 -13.5zM528 259q0 -12 -2 -40h-407
q5 -75 53.5 -119t123.5 -44q100 0 168 64l39 -50q-77 -80 -208 -80q-112 0 -181 71t-69 186q0 113 70 185t180 72q106 0 169.5 -64t63.5 -181zM292 438q-69 0 -115.5 -42t-56.5 -115h339q-3 76 -47 116.5t-120 40.5z" />
    <glyph glyph-name="igrave" unicode="&#xec;" horiz-adv-x="239" 
d="M163 570h-69l-75 130h90zM82 0v494h74v-494h-74z" />
    <glyph glyph-name="iacute" unicode="&#xed;" horiz-adv-x="239" 
d="M75 570l54 130h91l-76 -130h-69zM82 0v494h74v-494h-74z" />
    <glyph glyph-name="icircumflex" unicode="&#xee;" horiz-adv-x="239" 
d="M144 700l120 -130h-78l-66 71l-66 -71h-78l120 130h48zM82 0v494h74v-494h-74z" />
    <glyph glyph-name="idieresis" unicode="&#xef;" horiz-adv-x="239" 
d="M37 591q-21 0 -34.5 14t-13.5 36t13.5 36t34.5 14q22 0 35.5 -14t13.5 -36t-13.5 -36t-35.5 -14zM201 591q-21 0 -35 14t-14 36t14 36t35 14q22 0 35.5 -14t13.5 -36t-13.5 -36t-35.5 -14zM82 0v494h74v-494h-74z" />
    <glyph glyph-name="eth" unicode="&#xf0;" horiz-adv-x="603" 
d="M359 629q93 -63 143 -160t50 -220q0 -116 -69.5 -187.5t-184.5 -71.5q-118 0 -185.5 70.5t-67.5 179.5q0 104 67.5 175.5t178.5 71.5q54 0 98 -22t66 -55l1 1q-13 41 -49.5 85t-88.5 79l-37 -49l-40 26l36 48q-45 25 -95 39l17 61q66 -19 117 -46l45 60l41 -28zM298 56
q83 0 131.5 53.5t48.5 130.5q0 78 -49 131t-131 53t-130.5 -53t-48.5 -131q0 -79 48.5 -131.5t130.5 -52.5z" />
    <glyph glyph-name="ntilde" unicode="&#xf1;" horiz-adv-x="619" 
d="M385 595q-28 0 -66 22q-33 19 -52 19q-28 0 -41 -35l-45 23q21 72 80 72q24 0 66 -23q35 -18 51 -18q28 0 38 34l48 -19q-7 -38 -29 -56.5t-50 -18.5zM82 0v494h70q0 -44 -3 -98h3q22 50 71 78t113 28q100 0 154 -58t54 -163v-281h-74v275q0 76 -37.5 118t-109.5 42
q-73 0 -120 -48t-47 -120v-267h-74z" />
    <glyph glyph-name="ograve" unicode="&#xf2;" horiz-adv-x="603" 
d="M333 570h-69l-95 130h90zM299 -10q-111 0 -182.5 71.5t-71.5 184.5q0 114 73 186t186 72q111 0 183 -71.5t72 -184.5q0 -114 -73.5 -186t-186.5 -72zM301 57q79 0 131.5 53.5t52.5 135.5q0 83 -52 136.5t-131 53.5t-131 -53t-52 -135q0 -83 52 -137t130 -54z" />
    <glyph glyph-name="oacute" unicode="&#xf3;" horiz-adv-x="603" 
d="M252 570l74 130h90l-94 -130h-70zM299 -10q-111 0 -182.5 71.5t-71.5 184.5q0 114 73 186t186 72q111 0 183 -71.5t72 -184.5q0 -114 -73.5 -186t-186.5 -72zM301 57q79 0 131.5 53.5t52.5 135.5q0 83 -52 136.5t-131 53.5t-131 -53t-52 -135q0 -83 52 -137t130 -54z" />
    <glyph glyph-name="ocircumflex" unicode="&#xf4;" horiz-adv-x="603" 
d="M461 570h-79l-81 74l-80 -74h-79l135 130h49zM299 -10q-111 0 -182.5 71.5t-71.5 184.5q0 114 73 186t186 72q111 0 183 -71.5t72 -184.5q0 -114 -73.5 -186t-186.5 -72zM301 57q79 0 131.5 53.5t52.5 135.5q0 83 -52 136.5t-131 53.5t-131 -53t-52 -135q0 -83 52 -137
t130 -54z" />
    <glyph glyph-name="otilde" unicode="&#xf5;" horiz-adv-x="603" 
d="M364 595q-28 0 -66 22q-33 19 -52 19q-28 0 -41 -35l-45 23q21 72 80 72q24 0 66 -23q34 -18 51 -18q28 0 38 34l48 -19q-7 -38 -29 -56.5t-50 -18.5zM299 -10q-111 0 -182.5 71.5t-71.5 184.5q0 114 73 186t186 72q111 0 183 -71.5t72 -184.5q0 -114 -73.5 -186
t-186.5 -72zM301 57q79 0 131.5 53.5t52.5 135.5q0 83 -52 136.5t-131 53.5t-131 -53t-52 -135q0 -83 52 -137t130 -54z" />
    <glyph glyph-name="odieresis" unicode="&#xf6;" horiz-adv-x="603" 
d="M203 591q-20 0 -34.5 13.5t-14.5 36.5t14.5 36.5t34.5 13.5q21 0 35.5 -13.5t14.5 -36.5t-14.5 -36.5t-35.5 -13.5zM400 591q-21 0 -35.5 13.5t-14.5 36.5t14.5 36.5t35.5 13.5t35.5 -13.5t14.5 -36.5t-14.5 -36.5t-35.5 -13.5zM299 -10q-111 0 -182.5 71.5t-71.5 184.5
q0 114 73 186t186 72q111 0 183 -71.5t72 -184.5q0 -114 -73.5 -186t-186.5 -72zM301 57q79 0 131.5 53.5t52.5 135.5q0 83 -52 136.5t-131 53.5t-131 -53t-52 -135q0 -83 52 -137t130 -54z" />
    <glyph glyph-name="divide" unicode="&#xf7;" horiz-adv-x="560" 
d="M280 457q-21 0 -35.5 13t-14.5 36t14.5 36t35.5 13t35.5 -13t14.5 -36t-14.5 -36t-35.5 -13zM75 312v67h410v-67h-410zM280 129q-21 0 -35.5 13.5t-14.5 35.5q0 23 14.5 36t35.5 13t35.5 -13t14.5 -36q0 -22 -14.5 -35.5t-35.5 -13.5z" />
    <glyph glyph-name="oslash" unicode="&#xf8;" horiz-adv-x="603" 
d="M462 454q97 -73 97 -206q0 -114 -73.5 -186t-186.5 -72q-53 0 -102 19l-38 -66h-73l57 96q-98 71 -98 207q0 114 73 186t186 72q55 0 104 -19l36 60h73zM302 436q-79 0 -131 -53t-52 -135q0 -93 63 -148l192 322q-34 14 -72 14zM301 57q79 0 131.5 53.5t52.5 135.5
q0 91 -62 146l-192 -322q34 -13 70 -13z" />
    <glyph glyph-name="ugrave" unicode="&#xf9;" horiz-adv-x="613" 
d="M334 570h-69l-95 130h90zM284 -8q-97 0 -153 61t-56 165v276h74v-274q0 -76 39 -118.5t109 -42.5t114.5 48t44.5 120v267h74v-494h-69q0 62 2 92h-3q-22 -47 -69 -73.5t-107 -26.5z" />
    <glyph glyph-name="uacute" unicode="&#xfa;" horiz-adv-x="613" 
d="M253 570l74 130h90l-94 -130h-70zM284 -8q-97 0 -153 61t-56 165v276h74v-274q0 -76 39 -118.5t109 -42.5t114.5 48t44.5 120v267h74v-494h-69q0 62 2 92h-3q-22 -47 -69 -73.5t-107 -26.5z" />
    <glyph glyph-name="ucircumflex" unicode="&#xfb;" horiz-adv-x="613" 
d="M462 570h-79l-81 74l-80 -74h-79l135 130h49zM284 -8q-97 0 -153 61t-56 165v276h74v-274q0 -76 39 -118.5t109 -42.5t114.5 48t44.5 120v267h74v-494h-69q0 62 2 92h-3q-22 -47 -69 -73.5t-107 -26.5z" />
    <glyph glyph-name="udieresis" unicode="&#xfc;" horiz-adv-x="613" 
d="M204 591q-20 0 -34.5 13.5t-14.5 36.5t14.5 36.5t34.5 13.5q21 0 35.5 -13.5t14.5 -36.5t-14.5 -36.5t-35.5 -13.5zM401 591q-21 0 -35.5 13.5t-14.5 36.5t14.5 36.5t35.5 13.5t35.5 -13.5t14.5 -36.5t-14.5 -36.5t-35.5 -13.5zM284 -8q-97 0 -153 61t-56 165v276h74
v-274q0 -76 39 -118.5t109 -42.5t114.5 48t44.5 120v267h74v-494h-69q0 62 2 92h-3q-22 -47 -69 -73.5t-107 -26.5z" />
    <glyph glyph-name="yacute" unicode="&#xfd;" horiz-adv-x="544" 
d="M384 700l-94 -130h-70l74 130h90zM437 494h80l-249 -607q-27 -66 -62.5 -97t-85.5 -31q-49 0 -90 27l29 61q24 -18 57 -18q29 0 49 19.5t39 62.5l33 79l-211 504h80l98 -240q42 -104 71 -182h2q43 116 69 182z" />
    <glyph glyph-name="thorn" unicode="&#xfe;" horiz-adv-x="637" 
d="M82 -235v935h74v-174q0 -83 -5 -133h2q22 47 74 79t122 32q106 0 175 -71t69 -184q0 -116 -69 -187.5t-177 -71.5q-69 0 -121 32t-71 78h-2q3 -42 3 -120v-215h-74zM336 58q81 0 132 52t51 136q0 85 -51 137.5t-130 52.5q-81 0 -131.5 -52t-50.5 -136q0 -85 50.5 -137.5
t129.5 -52.5z" />
    <glyph glyph-name="ydieresis" unicode="&#xff;" horiz-adv-x="544" 
d="M171 591q-20 0 -34.5 13.5t-14.5 36.5t14.5 36.5t34.5 13.5q21 0 35.5 -13.5t14.5 -36.5t-14.5 -36.5t-35.5 -13.5zM368 591q-21 0 -35.5 13.5t-14.5 36.5t14.5 36.5t35.5 13.5t35.5 -13.5t14.5 -36.5t-14.5 -36.5t-35.5 -13.5zM437 494h80l-249 -607q-27 -66 -62.5 -97
t-85.5 -31q-49 0 -90 27l29 61q24 -18 57 -18q29 0 49 19.5t39 62.5l33 79l-211 504h80l98 -240q42 -104 71 -182h2q43 116 69 182z" />
    <glyph glyph-name="Amacron" unicode="&#x100;" horiz-adv-x="756" 
d="M527 859v-59h-298v59h298zM651 0l-74 162h-400l-73 -162h-84l314 700h87l314 -700h-84zM377 623q-35 -84 -70 -162l-99 -228h338l-99 230q-58 134 -68 160h-2z" />
    <glyph glyph-name="amacron" unicode="&#x101;" horiz-adv-x="560" 
d="M410 653v-59h-274v59h274zM251 502q108 0 171 -46t63 -144v-312h-66q0 66 2 98h-2q-24 -49 -76.5 -77.5t-114.5 -28.5q-82 0 -136.5 41.5t-54.5 116.5q0 76 57 118.5t143 42.5q100 0 174 -41v42q0 63 -44 94t-120 31q-72 0 -153 -35l-20 60q89 40 177 40zM240 55
q69 0 118.5 41t54.5 110q-73 44 -164 44q-61 0 -99.5 -26t-38.5 -72q0 -45 37.5 -71t91.5 -26z" />
    <glyph glyph-name="Abreve" unicode="&#x102;" horiz-adv-x="756" 
d="M378 774q-60 0 -97 35t-37 92h61q0 -32 20 -51t53 -19q32 0 52.5 19.5t20.5 50.5h61q0 -57 -37.5 -92t-96.5 -35zM651 0l-74 162h-400l-73 -162h-84l314 700h87l314 -700h-84zM377 623q-35 -84 -70 -162l-99 -228h338l-99 230q-58 134 -68 160h-2z" />
    <glyph glyph-name="abreve" unicode="&#x103;" horiz-adv-x="560" 
d="M273 577q-60 0 -97 34t-37 89h60q0 -30 20.5 -48.5t53.5 -18.5q32 0 52.5 18.5t20.5 48.5h61q0 -55 -37.5 -89t-96.5 -34zM251 502q108 0 171 -46t63 -144v-312h-66q0 66 2 98h-2q-24 -49 -76.5 -77.5t-114.5 -28.5q-82 0 -136.5 41.5t-54.5 116.5q0 76 57 118.5
t143 42.5q100 0 174 -41v42q0 63 -44 94t-120 31q-72 0 -153 -35l-20 60q89 40 177 40zM240 55q69 0 118.5 41t54.5 110q-73 44 -164 44q-61 0 -99.5 -26t-38.5 -72q0 -45 37.5 -71t91.5 -26z" />
    <glyph glyph-name="Aogonek" unicode="&#x104;" horiz-adv-x="756" 
d="M770 -101l29 -42q-47 -44 -110 -44q-47 0 -74 23.5t-27 65.5q0 59 60 104l-71 156h-400l-73 -162h-84l314 700h87l314 -700q-78 -39 -78 -82q0 -41 48 -41q34 0 65 22zM377 623q-35 -84 -70 -162l-99 -228h338l-99 230q-58 134 -68 160h-2z" />
    <glyph glyph-name="aogonek" unicode="&#x105;" horiz-adv-x="560" 
d="M509 -101l32 -40q-49 -43 -113 -43q-44 0 -70 23t-26 62q0 69 87 114q0 56 2 83h-2q-24 -49 -76.5 -77.5t-114.5 -28.5q-82 0 -136.5 41.5t-54.5 116.5q0 76 57 118.5t143 42.5q100 0 174 -41v42q0 63 -44 94t-120 31q-72 0 -153 -35l-20 60q89 40 177 40q108 0 171 -46
t63 -144v-312q-48 -22 -68.5 -41.5t-20.5 -43.5q0 -40 48 -40q35 0 65 24zM240 55q69 0 118.5 41t54.5 110q-73 44 -164 44q-61 0 -99.5 -26t-38.5 -72q0 -45 37.5 -71t91.5 -26z" />
    <glyph glyph-name="Cacute" unicode="&#x106;" horiz-adv-x="715" 
d="M371 774l74 127h90l-95 -127h-69zM417 -13q-160 0 -261.5 101t-101.5 260q0 161 102 263t262 102q148 0 250 -100l-46 -57q-88 83 -205 83q-126 0 -205 -80t-79 -207q0 -129 79.5 -210t205.5 -81q123 0 208 81l46 -58q-99 -97 -255 -97z" />
    <glyph glyph-name="cacute" unicode="&#x107;" horiz-adv-x="515" 
d="M247 570l74 130h90l-94 -130h-70zM301 -10q-109 0 -182.5 69.5t-73.5 186.5q0 118 73.5 188t185.5 70q100 0 170 -58l-38 -56q-58 47 -133 47q-79 0 -131.5 -51t-52.5 -138q0 -88 52.5 -139.5t129.5 -51.5q80 0 144 53l35 -58q-74 -62 -179 -62z" />
    <glyph glyph-name="Ccircumflex" unicode="&#x108;" horiz-adv-x="715" 
d="M416 842l-75 -68h-78l128 127h49l128 -127h-78zM626 142l46 -58q-99 -97 -255 -97q-160 0 -261.5 101t-101.5 260q0 161 102 263t262 102q148 0 250 -100l-46 -57q-88 83 -205 83q-126 0 -205 -80t-79 -207q0 -129 79.5 -210t205.5 -81q123 0 208 81z" />
    <glyph glyph-name="ccircumflex" unicode="&#x109;" horiz-adv-x="515" 
d="M456 570h-79l-81 74l-80 -74h-79l135 130h49zM301 -10q-109 0 -182.5 69.5t-73.5 186.5q0 118 73.5 188t185.5 70q100 0 170 -58l-38 -56q-58 47 -133 47q-79 0 -131.5 -51t-52.5 -138q0 -88 52.5 -139.5t129.5 -51.5q80 0 144 53l35 -58q-74 -62 -179 -62z" />
    <glyph glyph-name="Cdotaccent" unicode="&#x10a;" horiz-adv-x="715" 
d="M416 795q-22 0 -37 14.5t-15 36.5t15 37t37 15q23 0 37.5 -14.5t14.5 -37.5q0 -22 -14.5 -36.5t-37.5 -14.5zM417 -13q-160 0 -261.5 101t-101.5 260q0 161 102 263t262 102q148 0 250 -100l-46 -57q-88 83 -205 83q-126 0 -205 -80t-79 -207q0 -129 79.5 -210t205.5 -81
q123 0 208 81l46 -58q-99 -97 -255 -97z" />
    <glyph glyph-name="cdotaccent" unicode="&#x10b;" horiz-adv-x="515" 
d="M296 591q-22 0 -36.5 14t-14.5 35q0 22 14.5 36t36.5 14t36.5 -14t14.5 -36q0 -21 -14.5 -35t-36.5 -14zM301 -10q-109 0 -182.5 69.5t-73.5 186.5q0 118 73.5 188t185.5 70q100 0 170 -58l-38 -56q-58 47 -133 47q-79 0 -131.5 -51t-52.5 -138q0 -88 52.5 -139.5
t129.5 -51.5q80 0 144 53l35 -58q-74 -62 -179 -62z" />
    <glyph glyph-name="Ccaron" unicode="&#x10c;" horiz-adv-x="715" 
d="M446 777h-49l-128 127h79l74 -68l74 68h79zM626 142l46 -58q-99 -97 -255 -97q-160 0 -261.5 101t-101.5 260q0 161 102 263t262 102q148 0 250 -100l-46 -57q-88 83 -205 83q-126 0 -205 -80t-79 -207q0 -129 79.5 -210t205.5 -81q123 0 208 81z" />
    <glyph glyph-name="ccaron" unicode="&#x10d;" horiz-adv-x="515" 
d="M460 700l-135 -130h-48l-135 130h79l80 -74l81 74h78zM301 -10q-109 0 -182.5 69.5t-73.5 186.5q0 118 73.5 188t185.5 70q100 0 170 -58l-38 -56q-58 47 -133 47q-79 0 -131.5 -51t-52.5 -138q0 -88 52.5 -139.5t129.5 -51.5q80 0 144 53l35 -58q-74 -62 -179 -62z" />
    <glyph glyph-name="Dcaron" unicode="&#x10e;" horiz-adv-x="758" 
d="M371 777h-49l-128 127h79l74 -68l74 68h79zM351 700q157 0 255 -96.5t98 -252.5q0 -157 -98 -254t-256 -97h-248v700h249zM351 73q122 0 198.5 76.5t76.5 199.5q0 124 -76.5 201t-199.5 77h-171v-554h172z" />
    <glyph glyph-name="dcaron" unicode="&#x10f;" horiz-adv-x="674" 
d="M292 -10q-109 0 -178 71t-69 185q0 115 69 186.5t176 71.5q69 0 121 -32t74 -79h2q-6 60 -6 127v180h74v-700h-70q0 65 1 102h-2q-17 -47 -70 -79.5t-122 -32.5zM605 533l40 167h70l-57 -167h-53zM298 58q81 0 132 52t51 136q0 85 -51 137.5t-131 52.5q-79 0 -129.5 -52
t-50.5 -136q0 -85 50 -137.5t129 -52.5z" />
    <glyph glyph-name="Dcroat" unicode="&#x110;" horiz-adv-x="761" 
d="M354 700q157 0 255 -96.5t98 -252.5q0 -157 -98 -254t-256 -97h-248v322h-79v66h79v312h249zM354 73q122 0 198.5 76.5t76.5 199.5q0 124 -76.5 201t-199.5 77h-172v-239h202v-66h-202v-249h173z" />
    <glyph glyph-name="dcroat" unicode="&#x111;" horiz-adv-x="637" 
d="M627 627v-53h-72v-574h-70q0 65 1 102h-2q-17 -47 -70 -79.5t-122 -32.5q-109 0 -178 71t-69 185q0 115 69 186.5t176 71.5q69 0 121 -32t74 -79h2q-6 60 -6 127v54h-114v53h114v73h74v-73h72zM298 58q81 0 132 52t51 136q0 85 -51 137.5t-131 52.5q-79 0 -129.5 -52
t-50.5 -136q0 -85 50 -137.5t129 -52.5z" />
    <glyph glyph-name="Emacron" unicode="&#x112;" horiz-adv-x="639" 
d="M491 859v-59h-298v59h298zM179 73h398v-73h-475v700h465v-72h-388v-238h370v-72h-370v-245z" />
    <glyph glyph-name="emacron" unicode="&#x113;" horiz-adv-x="564" 
d="M432 653v-59h-274v59h274zM528 259q0 -12 -2 -40h-407q5 -75 53.5 -119t123.5 -44q100 0 168 64l39 -50q-77 -80 -208 -80q-112 0 -181 71t-69 186q0 113 70 185t180 72q106 0 169.5 -64t63.5 -181zM292 438q-69 0 -115.5 -42t-56.5 -115h339q-3 76 -47 116.5t-120 40.5z
" />
    <glyph glyph-name="Ebreve" unicode="&#x114;" horiz-adv-x="639" 
d="M341 774q-60 0 -97 35t-37 92h61q0 -32 20 -51t53 -19q32 0 52.5 19.5t20.5 50.5h61q0 -57 -37.5 -92t-96.5 -35zM179 73h398v-73h-475v700h465v-72h-388v-238h370v-72h-370v-245z" />
    <glyph glyph-name="ebreve" unicode="&#x115;" horiz-adv-x="564" 
d="M296 577q-60 0 -97 34t-37 89h60q0 -30 20.5 -48.5t53.5 -18.5q32 0 52.5 18.5t20.5 48.5h61q0 -55 -37.5 -89t-96.5 -34zM528 259q0 -12 -2 -40h-407q5 -75 53.5 -119t123.5 -44q100 0 168 64l39 -50q-77 -80 -208 -80q-112 0 -181 71t-69 186q0 113 70 185t180 72
q106 0 169.5 -64t63.5 -181zM292 438q-69 0 -115.5 -42t-56.5 -115h339q-3 76 -47 116.5t-120 40.5z" />
    <glyph glyph-name="Edotaccent" unicode="&#x116;" horiz-adv-x="639" 
d="M341 795q-22 0 -37 14.5t-15 36.5t14.5 37t37.5 15t37.5 -14.5t14.5 -37.5q0 -22 -14.5 -36.5t-37.5 -14.5zM179 73h398v-73h-475v700h465v-72h-388v-238h370v-72h-370v-245z" />
    <glyph glyph-name="edotaccent" unicode="&#x117;" horiz-adv-x="564" 
d="M295 591q-22 0 -36.5 14t-14.5 35q0 22 14.5 36t36.5 14t36.5 -14t14.5 -36q0 -21 -14.5 -35t-36.5 -14zM528 259q0 -12 -2 -40h-407q5 -75 53.5 -119t123.5 -44q100 0 168 64l39 -50q-77 -80 -208 -80q-112 0 -181 71t-69 186q0 113 70 185t180 72q106 0 169.5 -64
t63.5 -181zM292 438q-69 0 -115.5 -42t-56.5 -115h339q-3 76 -47 116.5t-120 40.5z" />
    <glyph glyph-name="Eogonek" unicode="&#x118;" horiz-adv-x="639" 
d="M577 -101l29 -42q-47 -44 -110 -44q-47 0 -74 23.5t-27 65.5q0 56 53 98h-346v700h465v-72h-388v-238h370v-72h-370v-245h398v-73h-35q-78 -39 -78 -82q0 -41 48 -41q34 0 65 22z" />
    <glyph glyph-name="eogonek" unicode="&#x119;" horiz-adv-x="564" 
d="M528 259q0 -12 -2 -40h-406q6 -74 54 -117.5t122 -43.5q100 0 168 62l38 -50q-37 -39 -122 -72q-83 -31 -83 -82q0 -41 47 -41q36 0 66 24l31 -40q-48 -43 -112 -43q-44 0 -70.5 23t-26.5 61q0 52 47 90q-105 5 -169.5 76t-64.5 181q0 113 70 185t180 72q106 0 169.5 -64
t63.5 -181zM292 438q-68 0 -114.5 -41.5t-56.5 -114.5h336q-2 75 -46 115.5t-119 40.5z" />
    <glyph glyph-name="Ecaron" unicode="&#x11a;" horiz-adv-x="639" 
d="M371 777h-49l-128 127h79l74 -68l74 68h79zM179 73h398v-73h-475v700h465v-72h-388v-238h370v-72h-370v-245z" />
    <glyph glyph-name="ecaron" unicode="&#x11b;" horiz-adv-x="564" 
d="M323 570h-48l-135 130h79l80 -74l81 74h78zM528 259q0 -12 -2 -40h-407q5 -75 53.5 -119t123.5 -44q100 0 168 64l39 -50q-77 -80 -208 -80q-112 0 -181 71t-69 186q0 113 70 185t180 72q106 0 169.5 -64t63.5 -181zM292 438q-69 0 -115.5 -42t-56.5 -115h339
q-3 76 -47 116.5t-120 40.5z" />
    <glyph glyph-name="Gcircumflex" unicode="&#x11c;" horiz-adv-x="751" 
d="M410 842l-74 -68h-78l128 127h49l128 -127h-78zM390 378h296v-278q-112 -113 -273 -113q-164 0 -261.5 101.5t-97.5 260.5q0 163 102.5 264t262.5 101q146 0 250 -96l-45 -57q-88 80 -204 80q-132 0 -210 -82.5t-78 -207.5q0 -129 76.5 -210.5t206.5 -81.5q113 0 198 72
v177h-223v70z" />
    <glyph glyph-name="gcircumflex" unicode="&#x11d;" horiz-adv-x="637" 
d="M467 570h-79l-81 74l-80 -74h-79l135 130h49zM309 -248q-127 0 -228 58l29 62q103 -51 198 -51q78 0 123.5 41.5t47.5 115.5q3 88 5 122h-2q-20 -48 -71.5 -78.5t-118.5 -30.5q-109 0 -178 71.5t-69 183.5q0 114 68.5 186t177.5 72q68 0 121 -31.5t72 -80.5h2
q-2 34 -2 102h70v-501q0 -113 -65 -177t-180 -64zM300 59q82 0 131.5 52t49.5 137q0 84 -50.5 136t-130.5 52t-130.5 -52.5t-50.5 -135.5t50.5 -136t130.5 -53z" />
    <glyph glyph-name="Gbreve" unicode="&#x11e;" horiz-adv-x="751" 
d="M411 774q-60 0 -97 35t-37 92h61q0 -32 20 -51t53 -19q32 0 52.5 19.5t20.5 50.5h61q0 -57 -37.5 -92t-96.5 -35zM390 378h296v-278q-112 -113 -273 -113q-164 0 -261.5 101.5t-97.5 260.5q0 163 102.5 264t262.5 101q146 0 250 -96l-45 -57q-88 80 -204 80
q-132 0 -210 -82.5t-78 -207.5q0 -129 76.5 -210.5t206.5 -81.5q113 0 198 72v177h-223v70z" />
    <glyph glyph-name="gbreve" unicode="&#x11f;" horiz-adv-x="637" 
d="M308 577q-60 0 -97 34t-37 89h60q0 -30 20.5 -48.5t53.5 -18.5q32 0 52.5 18.5t20.5 48.5h61q0 -55 -37.5 -89t-96.5 -34zM309 -248q-127 0 -228 58l29 62q103 -51 198 -51q78 0 123.5 41.5t47.5 115.5q3 88 5 122h-2q-20 -48 -71.5 -78.5t-118.5 -30.5q-109 0 -178 71.5
t-69 183.5q0 114 68.5 186t177.5 72q68 0 121 -31.5t72 -80.5h2q-2 34 -2 102h70v-501q0 -113 -65 -177t-180 -64zM300 59q82 0 131.5 52t49.5 137q0 84 -50.5 136t-130.5 52t-130.5 -52.5t-50.5 -135.5t50.5 -136t130.5 -53z" />
    <glyph glyph-name="Gdotaccent" unicode="&#x120;" horiz-adv-x="751" 
d="M410 795q-22 0 -37 14.5t-15 36.5t15 37t37 15q23 0 37.5 -14.5t14.5 -37.5q0 -22 -14.5 -36.5t-37.5 -14.5zM390 378h296v-278q-112 -113 -273 -113q-164 0 -261.5 101.5t-97.5 260.5q0 163 102.5 264t262.5 101q146 0 250 -96l-45 -57q-88 80 -204 80
q-132 0 -210 -82.5t-78 -207.5q0 -129 76.5 -210.5t206.5 -81.5q113 0 198 72v177h-223v70z" />
    <glyph glyph-name="gdotaccent" unicode="&#x121;" horiz-adv-x="637" 
d="M307 591q-22 0 -36.5 14t-14.5 35q0 22 14.5 36t36.5 14t36.5 -14t14.5 -36q0 -21 -14.5 -35t-36.5 -14zM309 -248q-127 0 -228 58l29 62q103 -51 198 -51q78 0 123.5 41.5t47.5 115.5q3 88 5 122h-2q-20 -48 -71.5 -78.5t-118.5 -30.5q-109 0 -178 71.5t-69 183.5
q0 114 68.5 186t177.5 72q68 0 121 -31.5t72 -80.5h2q-2 34 -2 102h70v-501q0 -113 -65 -177t-180 -64zM300 59q82 0 131.5 52t49.5 137q0 84 -50.5 136t-130.5 52t-130.5 -52.5t-50.5 -135.5t50.5 -136t130.5 -53z" />
    <glyph glyph-name="uni0122" unicode="&#x122;" horiz-adv-x="751" 
d="M390 378h296v-278q-112 -113 -273 -113q-164 0 -261.5 101.5t-97.5 260.5q0 163 102.5 264t262.5 101q146 0 250 -96l-45 -57q-88 80 -204 80q-132 0 -210 -82.5t-78 -207.5q0 -129 76.5 -210.5t206.5 -81.5q113 0 198 72v177h-223v70zM428 -68q21 0 33 -12.5t12 -35.5
q0 -53 -49 -131l-38 18q20 38 27 82q-31 7 -31 38q0 18 12.5 29.5t33.5 11.5z" />
    <glyph glyph-name="uni0123" unicode="&#x123;" horiz-adv-x="637" 
d="M304 564q-20 0 -32 13t-12 35q0 24 14.5 62.5t33.5 68.5l38 -17q-20 -39 -27 -82q31 -8 31 -38q0 -19 -12.5 -30.5t-33.5 -11.5zM309 -248q-127 0 -228 58l29 62q103 -51 198 -51q78 0 123.5 41.5t47.5 115.5q3 88 5 122h-2q-20 -48 -71.5 -78.5t-118.5 -30.5
q-109 0 -178 71.5t-69 183.5q0 114 68.5 186t177.5 72q68 0 121 -31.5t72 -80.5h2q-2 34 -2 102h70v-501q0 -113 -65 -177t-180 -64zM300 59q82 0 131.5 52t49.5 137q0 84 -50.5 136t-130.5 52t-130.5 -52.5t-50.5 -135.5t50.5 -136t130.5 -53z" />
    <glyph glyph-name="Hcircumflex" unicode="&#x124;" horiz-adv-x="777" 
d="M387 842l-74 -68h-78l128 127h49l128 -127h-78zM598 700h77v-700h-77v321h-419v-321h-77v700h77v-307h419v307z" />
    <glyph glyph-name="hcircumflex" unicode="&#x125;" horiz-adv-x="619" 
d="M279 776h-79l-81 74l-80 -74h-79l135 130h49zM82 0v700h74v-174q0 -85 -5 -126h2q23 44 72.5 73t110.5 29q100 0 154 -58t54 -163v-281h-74v275q0 76 -37.5 118t-109.5 42q-73 0 -120 -48t-47 -120v-267h-74z" />
    <glyph glyph-name="Hbar" unicode="&#x126;" horiz-adv-x="776" 
d="M746 585v-59h-72v-526h-77v318h-418v-318h-77v526h-73v59h73v115h77v-115h418v115h77v-115h72zM179 390h418v136h-418v-136z" />
    <glyph glyph-name="hbar" unicode="&#x127;" horiz-adv-x="613" 
d="M330 502q101 0 154.5 -57.5t53.5 -163.5v-281h-74v275q0 76 -37.5 118t-109.5 42t-119 -48t-47 -120v-267h-74v573h-64v54h64v73h74v-73h139v-54h-139v-47q0 -71 -5 -126h2q23 44 72 73t110 29z" />
    <glyph glyph-name="Itilde" unicode="&#x128;" horiz-adv-x="281" 
d="M208 786q-31 0 -71 21q-37 20 -57 20q-28 0 -41 -35l-46 23q23 72 81 72q23 0 71 -23q37 -18 57 -18q27 0 37 33l48 -18q-7 -38 -28.5 -56.5t-50.5 -18.5zM102 0v700h77v-700h-77z" />
    <glyph glyph-name="itilde" unicode="&#x129;" horiz-adv-x="239" 
d="M176 595q-23 0 -60 22q-32 19 -46 19q-29 0 -42 -35l-45 23q21 72 80 72q24 0 61 -23q32 -18 46 -18q27 0 38 34l48 -19q-7 -38 -29 -56.5t-51 -18.5zM82 0v494h74v-494h-74z" />
    <glyph glyph-name="Imacron" unicode="&#x12a;" horiz-adv-x="281" 
d="M2 800v59h278v-59h-278zM102 0v700h77v-700h-77z" />
    <glyph glyph-name="imacron" unicode="&#x12b;" horiz-adv-x="239" 
d="M-1 594v59h241v-59h-241zM82 0v494h74v-494h-74z" />
    <glyph glyph-name="Ibreve" unicode="&#x12c;" horiz-adv-x="281" 
d="M141 774q-60 0 -97 35t-37 92h61q0 -32 20 -51t53 -19q32 0 52.5 19.5t20.5 50.5h61q0 -57 -37.5 -92t-96.5 -35zM102 0v700h77v-700h-77z" />
    <glyph glyph-name="ibreve" unicode="&#x12d;" horiz-adv-x="239" 
d="M120 573q-55 0 -88.5 33.5t-33.5 89.5h59q0 -31 16.5 -49t46.5 -18t46.5 18t16.5 49h58q0 -56 -33 -89.5t-88 -33.5zM82 0v494h74v-494h-74z" />
    <glyph glyph-name="Iogonek" unicode="&#x12e;" horiz-adv-x="281" 
d="M213 -101l29 -42q-47 -44 -110 -44q-47 0 -74 23.5t-27 65.5q0 64 71 111v687h77v-700h-1q-78 -39 -78 -82q0 -41 48 -41q34 0 65 22z" />
    <glyph glyph-name="iogonek" unicode="&#x12f;" horiz-adv-x="239" 
d="M119 591q-22 0 -36.5 14t-14.5 35q0 22 14.5 36t36.5 14t36.5 -14t14.5 -36q0 -21 -14.5 -35t-36.5 -14zM179 -101l32 -40q-46 -43 -105 -43q-41 0 -64.5 22.5t-23.5 60.5q0 64 64 110v485h74v-494q-74 -37 -74 -86q0 -39 40 -39q32 0 57 24z" />
    <glyph glyph-name="Idotaccent" unicode="&#x130;" horiz-adv-x="281" 
d="M141 795q-22 0 -37 14.5t-15 36.5t14.5 37t37.5 15t37.5 -14.5t14.5 -37.5q0 -22 -14.5 -36.5t-37.5 -14.5zM102 0v700h77v-700h-77z" />
    <glyph glyph-name="dotlessi" unicode="&#x131;" horiz-adv-x="239" 
d="M82 0v494h74v-494h-74z" />
    <glyph glyph-name="IJ" unicode="&#x132;" horiz-adv-x="757" 
d="M102 0v700h77v-700h-77zM437 -12q-86 0 -159 44l34 61q57 -33 122 -33q153 0 153 187v453h77v-454q0 -127 -58.5 -192.5t-168.5 -65.5z" />
    <glyph glyph-name="ij" unicode="&#x133;" horiz-adv-x="478" 
d="M118 591q-23 0 -38 14.5t-15 37.5t15 38t38 15q24 0 39 -15t15 -38t-15 -37.5t-39 -14.5zM357 591q-23 0 -38 14.5t-15 37.5t15 38t38 15q24 0 39 -15t15 -38t-15 -37.5t-39 -14.5zM82 0v494h74v-494h-74zM252 -249q-51 0 -97 29l27 57q32 -17 65 -17q41 0 57.5 24.5
t16.5 84.5v565h74v-565q0 -92 -34.5 -135t-108.5 -43z" />
    <glyph glyph-name="Jcircumflex" unicode="&#x134;" horiz-adv-x="476" 
d="M368 901l123 -127h-79l-68 67l-69 -67h-78l123 127h48zM306 247v453h77v-454q0 -127 -58.5 -192.5t-168.5 -65.5q-86 0 -159 44l34 61q57 -33 122 -33q153 0 153 187z" />
    <glyph glyph-name="jcircumflex" unicode="&#x135;" horiz-adv-x="239" 
d="M144 700l120 -130h-78l-66 71l-66 -71h-78l120 130h48zM82 -71v565h74v-565q0 -92 -34.5 -135t-108.5 -43q-51 0 -97 29l27 57q32 -17 65 -17q41 0 57.5 24.5t16.5 84.5z" />
    <glyph glyph-name="uni0136" unicode="&#x136;" horiz-adv-x="622" 
d="M256 363l372 -363h-106l-284 277q-44 42 -58 59l-2 -1q1 -16 1 -57v-278h-77v700h77v-256q0 -42 -1 -57l2 -1q5 6 14.5 15.5t23.5 24t25 25.5l251 249h103zM314 -68q21 0 33 -12.5t12 -35.5q0 -53 -49 -131l-38 18q20 38 27 82q-31 7 -31 38q0 18 12.5 29.5t33.5 11.5z
" />
    <glyph glyph-name="uni0137" unicode="&#x137;" horiz-adv-x="495" 
d="M225 253l268 -253h-99l-151 143q-57 56 -87 91l-3 -1q3 -42 3 -145v-88h-74v700h74v-259q0 -126 -2 -168l2 -1q25 31 77 83l136 139h93zM256 -68q21 0 33 -12.5t12 -35.5q0 -53 -49 -131l-38 18q20 38 27 82q-31 7 -31 38q0 18 12.5 29.5t33.5 11.5z" />
    <glyph glyph-name="kgreenlandic" unicode="&#x138;" horiz-adv-x="495" 
d="M225 253l268 -253h-99l-151 143q-57 56 -87 91l-3 -1q3 -42 3 -145v-88h-74v494h74v-73q0 -106 -2 -148l2 -1q25 31 77 83l136 139h93z" />
    <glyph glyph-name="Lacute" unicode="&#x139;" horiz-adv-x="583" 
d="M260 901l-95 -127h-69l74 127h90zM179 72h385v-72h-462v700h77v-628z" />
    <glyph glyph-name="lacute" unicode="&#x13a;" horiz-adv-x="310" 
d="M74 774l74 127h90l-95 -127h-69zM221 -12q-70 0 -104.5 39t-34.5 128v545h74v-541q0 -61 17 -82.5t59 -21.5q19 0 49 10l18 -62q-42 -15 -78 -15z" />
    <glyph glyph-name="uni013B" unicode="&#x13b;" horiz-adv-x="583" 
d="M179 72h385v-72h-462v700h77v-628zM339 -68q21 0 33 -12.5t12 -35.5q0 -53 -49 -131l-38 18q20 38 27 82q-31 7 -31 38q0 18 12.5 29.5t33.5 11.5z" />
    <glyph glyph-name="uni013C" unicode="&#x13c;" horiz-adv-x="310" 
d="M221 -12q-70 0 -104.5 39t-34.5 128v545h74v-541q0 -61 17 -82.5t59 -21.5q19 0 49 10l18 -62q-42 -15 -78 -15zM208 -68q21 0 33 -12.5t12 -35.5q0 -53 -49 -131l-38 18q20 38 27 82q-31 7 -31 38q0 18 12.5 29.5t33.5 11.5z" />
    <glyph glyph-name="Lcaron" unicode="&#x13d;" horiz-adv-x="583" 
d="M179 72h385v-72h-462v700h77v-628zM489 700l-60 -174h-57l44 174h73z" />
    <glyph glyph-name="lcaron" unicode="&#x13e;" horiz-adv-x="346" 
d="M221 -12q-70 0 -104.5 39t-34.5 128v545h74v-541q0 -61 17 -82.5t59 -21.5q19 0 49 10l18 -62q-42 -15 -78 -15zM200 533l40 167h70l-57 -167h-53z" />
    <glyph glyph-name="Ldot" unicode="&#x13f;" horiz-adv-x="583" 
d="M179 72h385v-72h-462v700h77v-628zM456 295q-22 0 -36.5 14.5t-14.5 36.5t14.5 36.5t36.5 14.5q23 0 37.5 -14.5t14.5 -36.5t-15 -36.5t-37 -14.5z" />
    <glyph glyph-name="ldot" unicode="&#x140;" horiz-adv-x="392" 
d="M221 -12q-70 0 -104.5 39t-34.5 128v545h74v-541q0 -61 17 -82.5t59 -21.5q19 0 49 10l18 -62q-42 -15 -78 -15zM281 264q-22 0 -36 14t-14 35q0 22 14 36t36 14t36 -14t14 -36q0 -21 -14 -35t-36 -14z" />
    <glyph glyph-name="Lslash" unicode="&#x141;" horiz-adv-x="584" 
d="M179 72h386v-72h-463v285l-78 -34v62l78 35v352h77v-317l137 61v-64l-137 -61v-247z" />
    <glyph glyph-name="lslash" unicode="&#x142;" horiz-adv-x="327" 
d="M298 65l18 -62q-43 -15 -78 -15q-70 0 -105 39.5t-35 127.5v151l-73 -29v63l73 29v331h74v-301l94 38v-63l-94 -38v-177q0 -61 17 -82.5t59 -21.5q20 0 50 10z" />
    <glyph glyph-name="Nacute" unicode="&#x143;" horiz-adv-x="776" 
d="M343 774l74 127h90l-95 -127h-69zM102 0v700h77l367 -504q41 -56 51 -72l2 1q-2 32 -2 58v517h77v-700h-76l-368 504q-41 56 -51 72l-2 -1q2 -32 2 -58v-517h-77z" />
    <glyph glyph-name="nacute" unicode="&#x144;" horiz-adv-x="619" 
d="M272 570l74 130h90l-94 -130h-70zM82 0v494h70q0 -44 -3 -98h3q22 50 71 78t113 28q100 0 154 -58t54 -163v-281h-74v275q0 76 -37.5 118t-109.5 42q-73 0 -120 -48t-47 -120v-267h-74z" />
    <glyph glyph-name="uni0145" unicode="&#x145;" horiz-adv-x="776" 
d="M102 0v700h77l367 -504q41 -56 51 -72l2 1q-2 32 -2 58v517h77v-700h-76l-368 504q-41 56 -51 72l-2 -1q2 -32 2 -58v-517h-77zM391 -68q21 0 33 -12.5t12 -35.5q0 -53 -49 -131l-38 18q20 38 27 82q-31 7 -31 38q0 18 12.5 29.5t33.5 11.5z" />
    <glyph glyph-name="uni0146" unicode="&#x146;" horiz-adv-x="619" 
d="M82 0v494h70q0 -44 -3 -98h3q22 50 71 78t113 28q100 0 154 -58t54 -163v-281h-74v275q0 76 -37.5 118t-109.5 42q-73 0 -120 -48t-47 -120v-267h-74zM316 -68q21 0 33 -12.5t12 -35.5q0 -53 -49 -131l-38 18q20 38 27 82q-31 7 -31 38q0 18 12.5 29.5t33.5 11.5z" />
    <glyph glyph-name="Ncaron" unicode="&#x147;" horiz-adv-x="776" 
d="M547 904l-129 -127h-49l-128 127h79l74 -68l74 68h79zM102 0v700h77l367 -504q41 -56 51 -72l2 1q-2 32 -2 58v517h77v-700h-76l-368 504q-41 56 -51 72l-2 -1q2 -32 2 -58v-517h-77z" />
    <glyph glyph-name="ncaron" unicode="&#x148;" horiz-adv-x="619" 
d="M486 700l-135 -130h-48l-135 130h79l80 -74l81 74h78zM82 0v494h70q0 -44 -3 -98h3q22 50 71 78t113 28q100 0 154 -58t54 -163v-281h-74v275q0 76 -37.5 118t-109.5 42q-73 0 -120 -48t-47 -120v-267h-74z" />
    <glyph glyph-name="napostrophe" unicode="&#x149;" horiz-adv-x="725" 
d="M136 708q21 0 34 -14t13 -37q0 -51 -53 -154l-40 19q26 56 32 98q-34 7 -34 42q0 20 13.5 33t34.5 13zM442 502q100 0 154 -58t54 -163v-281h-74v275q0 76 -37.5 118t-109.5 42q-73 0 -119.5 -48t-46.5 -120v-267h-74v494h69q0 -44 -3 -98h3q22 50 71 78t113 28z" />
    <glyph glyph-name="Eng" unicode="&#x14a;" horiz-adv-x="777" 
d="M598 700h77v-729q0 -91 -33 -133t-105 -42q-52 0 -99 28l23 59q37 -17 66 -17q40 0 55.5 23t15.5 82v29l-368 504q-41 56 -51 72l-2 -1q2 -32 2 -58v-517h-77v700h77l368 -504q41 -56 51 -72l2 1q-2 32 -2 58v517z" />
    <glyph glyph-name="eng" unicode="&#x14b;" horiz-adv-x="619" 
d="M404 -202q-51 0 -97 29l26 58q33 -18 66 -18q39 0 55 25t16 87v296q0 76 -37.5 118t-109.5 42q-73 0 -120 -48t-47 -120v-267h-74v494h70q0 -62 -2 -92h2q23 47 71.5 73.5t112.5 26.5q100 0 154 -60t54 -167v-296q0 -93 -34 -137t-106 -44z" />
    <glyph glyph-name="Omacron" unicode="&#x14c;" horiz-adv-x="820" 
d="M261 800v59h298v-59h-298zM408 -14q-156 0 -255 101.5t-99 261.5q0 162 99.5 263.5t258.5 101.5q156 0 254.5 -101.5t98.5 -261.5q0 -162 -99 -263.5t-258 -101.5zM409 59q122 0 199.5 81t77.5 209q0 130 -77 211t-199 81t-199.5 -81t-77.5 -209q0 -130 77 -211t199 -81z
" />
    <glyph glyph-name="omacron" unicode="&#x14d;" horiz-adv-x="603" 
d="M165 594v59h274v-59h-274zM299 -10q-111 0 -182.5 71.5t-71.5 184.5q0 114 73 186t186 72q111 0 183 -71.5t72 -184.5q0 -114 -73.5 -186t-186.5 -72zM301 57q79 0 131.5 53.5t52.5 135.5q0 83 -52 136.5t-131 53.5t-131 -53t-52 -135q0 -83 52 -137t130 -54z" />
    <glyph glyph-name="Obreve" unicode="&#x14e;" horiz-adv-x="820" 
d="M410 774q-60 0 -97 35t-37 92h61q0 -32 20 -51t53 -19q32 0 52.5 19.5t20.5 50.5h61q0 -57 -37.5 -92t-96.5 -35zM408 -14q-156 0 -255 101.5t-99 261.5q0 162 99.5 263.5t258.5 101.5q156 0 254.5 -101.5t98.5 -261.5q0 -162 -99 -263.5t-258 -101.5zM409 59
q122 0 199.5 81t77.5 209q0 130 -77 211t-199 81t-199.5 -81t-77.5 -209q0 -130 77 -211t199 -81z" />
    <glyph glyph-name="obreve" unicode="&#x14f;" horiz-adv-x="603" 
d="M302 577q-60 0 -97 34t-37 89h60q0 -30 20.5 -48.5t53.5 -18.5q32 0 52.5 18.5t20.5 48.5h61q0 -55 -37.5 -89t-96.5 -34zM299 -10q-111 0 -182.5 71.5t-71.5 184.5q0 114 73 186t186 72q111 0 183 -71.5t72 -184.5q0 -114 -73.5 -186t-186.5 -72zM301 57
q79 0 131.5 53.5t52.5 135.5q0 83 -52 136.5t-131 53.5t-131 -53t-52 -135q0 -83 52 -137t130 -54z" />
    <glyph glyph-name="Ohungarumlaut" unicode="&#x150;" horiz-adv-x="820" 
d="M292 776l76 130h81l-92 -130h-65zM442 776l77 130h79l-92 -130h-64zM408 -14q-156 0 -255 101.5t-99 261.5q0 162 99.5 263.5t258.5 101.5q156 0 254.5 -101.5t98.5 -261.5q0 -162 -99 -263.5t-258 -101.5zM409 59q122 0 199.5 81t77.5 209q0 130 -77 211t-199 81
t-199.5 -81t-77.5 -209q0 -130 77 -211t199 -81z" />
    <glyph glyph-name="ohungarumlaut" unicode="&#x151;" horiz-adv-x="603" 
d="M185 570l75 130h81l-91 -130h-65zM334 570l77 130h79l-91 -130h-65zM299 -10q-111 0 -182.5 71.5t-71.5 184.5q0 114 73 186t186 72q111 0 183 -71.5t72 -184.5q0 -114 -73.5 -186t-186.5 -72zM301 57q79 0 131.5 53.5t52.5 135.5q0 83 -52 136.5t-131 53.5t-131 -53
t-52 -135q0 -83 52 -137t130 -54z" />
    <glyph glyph-name="OE" unicode="&#x152;" horiz-adv-x="999" 
d="M936 73v-73h-438q-42 -10 -85 -10q-163 0 -261 98t-98 261q0 164 97 262.5t260 98.5q33 0 88 -10h429v-72h-355v-238h337v-72h-337v-245h363zM133 352q0 -132 77.5 -211t207.5 -79q34 0 78 9v556q-39 12 -83 12q-128 0 -204 -78t-76 -209z" />
    <glyph glyph-name="oe" unicode="&#x153;" horiz-adv-x="980" 
d="M944 259q0 -11 -2 -41h-396q7 -73 53 -116t117 -43q95 0 161 58l42 -47q-36 -38 -91 -59t-113 -21q-67 0 -124 34.5t-86 93.5q-30 -60 -87.5 -94t-129.5 -34q-105 0 -174 71.5t-69 184.5q0 114 69.5 186t175.5 72q71 0 128 -34t88 -95q30 60 85 94.5t127 34.5
q102 0 164 -64.5t62 -180.5zM714 438q-64 0 -110.5 -42t-56.5 -114h326q-3 75 -45 115.5t-114 40.5zM296 57q78 0 129.5 53.5t51.5 135.5q0 83 -51 137t-128 54t-128 -53.5t-51 -135.5q0 -83 50.5 -137t126.5 -54z" />
    <glyph glyph-name="Racute" unicode="&#x154;" horiz-adv-x="682" 
d="M446 901l-95 -127h-69l74 127h90zM544 0l-226 254h-138v-254h-78v700h278q107 0 171.5 -61t64.5 -161q0 -91 -55.5 -151.5t-147.5 -70.5l230 -256h-99zM538 476q0 70 -43 110.5t-118 40.5h-197v-301h198q74 0 117 40.5t43 109.5z" />
    <glyph glyph-name="racute" unicode="&#x155;" horiz-adv-x="395" 
d="M189 570l74 130h90l-94 -130h-70zM82 0v494h70q0 -64 -2 -95h2q17 43 59.5 73t99.5 30q35 0 68 -11l-21 -66q-21 8 -52 8q-65 0 -107.5 -49.5t-42.5 -126.5v-257h-74z" />
    <glyph glyph-name="uni0156" unicode="&#x156;" horiz-adv-x="682" 
d="M413 256l230 -256h-99l-226 254h-138v-254h-78v700h278q107 0 171.5 -61t64.5 -161q0 -91 -55.5 -151.5t-147.5 -70.5zM538 476q0 70 -43 110.5t-118 40.5h-197v-301h198q74 0 117 40.5t43 109.5zM340 -68q21 0 33 -12.5t12 -35.5q0 -53 -49 -131l-38 18q20 38 27 82
q-31 7 -31 38q0 18 12.5 29.5t33.5 11.5z" />
    <glyph glyph-name="uni0157" unicode="&#x157;" horiz-adv-x="395" 
d="M82 0v494h70q0 -64 -2 -95h2q17 43 59.5 73t99.5 30q35 0 68 -11l-21 -66q-21 8 -52 8q-65 0 -107.5 -49.5t-42.5 -126.5v-257h-74zM122 -68q21 0 33 -12.5t12 -35.5q0 -53 -49 -131l-38 18q20 38 27 82q-31 7 -31 38q0 18 12.5 29.5t33.5 11.5z" />
    <glyph glyph-name="Rcaron" unicode="&#x158;" horiz-adv-x="682" 
d="M357 777h-49l-128 127h79l74 -68l74 68h79zM544 0l-226 254h-138v-254h-78v700h278q107 0 171.5 -61t64.5 -161q0 -91 -55.5 -151.5t-147.5 -70.5l230 -256h-99zM538 476q0 70 -43 110.5t-118 40.5h-197v-301h198q74 0 117 40.5t43 109.5z" />
    <glyph glyph-name="rcaron" unicode="&#x159;" horiz-adv-x="395" 
d="M403 700l-135 -130h-48l-135 130h79l80 -74l81 74h78zM82 0v494h70q0 -64 -2 -95h2q17 43 59.5 73t99.5 30q35 0 68 -11l-21 -66q-21 8 -52 8q-65 0 -107.5 -49.5t-42.5 -126.5v-257h-74z" />
    <glyph glyph-name="Sacute" unicode="&#x15a;" horiz-adv-x="618" 
d="M264 774l74 127h90l-95 -127h-69zM315 -13q-150 0 -263 89l39 60q104 -76 224 -76q81 0 131.5 35t50.5 97q0 55 -40.5 86t-145.5 51q-126 23 -182 67.5t-56 122.5q0 87 70 140.5t176 53.5q128 0 224 -69l-41 -57q-77 55 -181 55q-75 0 -123 -32.5t-48 -87.5
q0 -49 41 -76.5t141 -47.5q132 -26 187 -73.5t55 -131.5q0 -95 -71.5 -150.5t-187.5 -55.5z" />
    <glyph glyph-name="sacute" unicode="&#x15b;" horiz-adv-x="490" 
d="M182 570l74 130h90l-94 -130h-70zM252 -13q-114 0 -213 66l33 57q90 -58 181 -58q54 0 87.5 23.5t33.5 60.5q0 36 -29.5 55t-101.5 30q-187 28 -187 141q0 62 53.5 101t138.5 39q99 0 178 -48l-26 -58q-76 43 -153 43q-55 0 -86.5 -20t-31.5 -55q0 -32 29 -51.5t93 -29.5
q108 -17 152.5 -50.5t44.5 -97.5q0 -66 -54 -107t-142 -41z" />
    <glyph glyph-name="Scircumflex" unicode="&#x15c;" horiz-adv-x="618" 
d="M461 774h-78l-75 68l-74 -68h-78l128 127h49zM315 -13q-150 0 -263 89l39 60q104 -76 224 -76q81 0 131.5 35t50.5 97q0 55 -40.5 86t-145.5 51q-126 23 -182 67.5t-56 122.5q0 87 70 140.5t176 53.5q128 0 224 -69l-41 -57q-77 55 -181 55q-75 0 -123 -32.5t-48 -87.5
q0 -49 41 -76.5t141 -47.5q132 -26 187 -73.5t55 -131.5q0 -95 -71.5 -150.5t-187.5 -55.5z" />
    <glyph glyph-name="scircumflex" unicode="&#x15d;" horiz-adv-x="490" 
d="M391 570h-79l-81 74l-80 -74h-79l135 130h49zM252 -13q-114 0 -213 66l33 57q90 -58 181 -58q54 0 87.5 23.5t33.5 60.5q0 36 -29.5 55t-101.5 30q-187 28 -187 141q0 62 53.5 101t138.5 39q99 0 178 -48l-26 -58q-76 43 -153 43q-55 0 -86.5 -20t-31.5 -55
q0 -32 29 -51.5t93 -29.5q108 -17 152.5 -50.5t44.5 -97.5q0 -66 -54 -107t-142 -41z" />
    <glyph glyph-name="Scedilla" unicode="&#x15e;" horiz-adv-x="618" 
d="M574 193q0 -91 -65.5 -146t-173.5 -60l-10 -33h4q46 0 73 -24t27 -65q0 -40 -32.5 -66.5t-82.5 -26.5q-67 0 -114 45l31 38q35 -30 79 -30q28 0 44.5 12t16.5 32q0 44 -61 44q-23 0 -34 -7l-20 15l22 68q-128 10 -226 87l39 60q104 -76 224 -76q81 0 131.5 35t50.5 97
q0 55 -40.5 86t-145.5 51q-126 23 -182 67.5t-56 122.5q0 87 70 140.5t176 53.5q128 0 224 -69l-41 -57q-77 55 -181 55q-75 0 -123 -32.5t-48 -87.5q0 -49 41 -76.5t141 -47.5q132 -26 187 -73.5t55 -131.5z" />
    <glyph glyph-name="scedilla" unicode="&#x15f;" horiz-adv-x="490" 
d="M448 135q0 -63 -50 -103.5t-132 -44.5l-10 -33h6q45 0 72 -24.5t27 -64.5t-32.5 -66.5t-81.5 -26.5q-67 0 -113 44l30 38q34 -30 80 -30q26 0 43 12.5t17 32.5q0 44 -61 44q-20 0 -34 -6l-19 14l22 68q-93 10 -173 64l33 57q90 -58 181 -58q54 0 87.5 23.5t33.5 60.5
q0 36 -29.5 55t-101.5 30q-187 28 -187 141q0 62 53.5 101t138.5 39q99 0 178 -48l-26 -58q-76 43 -153 43q-55 0 -86.5 -20t-31.5 -55q0 -32 29 -51.5t93 -29.5q108 -17 152.5 -50.5t44.5 -97.5z" />
    <glyph glyph-name="Scaron" unicode="&#x160;" horiz-adv-x="618" 
d="M468 904l-129 -127h-49l-128 127h79l74 -68l74 68h79zM315 -13q-150 0 -263 89l39 60q104 -76 224 -76q81 0 131.5 35t50.5 97q0 55 -40.5 86t-145.5 51q-126 23 -182 67.5t-56 122.5q0 87 70 140.5t176 53.5q128 0 224 -69l-41 -57q-77 55 -181 55q-75 0 -123 -32.5
t-48 -87.5q0 -49 41 -76.5t141 -47.5q132 -26 187 -73.5t55 -131.5q0 -95 -71.5 -150.5t-187.5 -55.5z" />
    <glyph glyph-name="scaron" unicode="&#x161;" horiz-adv-x="490" 
d="M395 700l-135 -130h-48l-135 130h79l80 -74l81 74h78zM252 -13q-114 0 -213 66l33 57q90 -58 181 -58q54 0 87.5 23.5t33.5 60.5q0 36 -29.5 55t-101.5 30q-187 28 -187 141q0 62 53.5 101t138.5 39q99 0 178 -48l-26 -58q-76 43 -153 43q-55 0 -86.5 -20t-31.5 -55
q0 -32 29 -51.5t93 -29.5q108 -17 152.5 -50.5t44.5 -97.5q0 -66 -54 -107t-142 -41z" />
    <glyph glyph-name="uni0162" unicode="&#x162;" horiz-adv-x="593" 
d="M335 0h-9l-13 -46h4q46 0 73.5 -24.5t27.5 -64.5t-33 -66.5t-83 -26.5q-67 0 -114 45l31 38q35 -30 80 -30q27 0 43.5 12t16.5 32q0 44 -61 44q-23 0 -34 -7l-19 15l24 79h-11v629h-241v71h559v-71h-241v-629z" />
    <glyph glyph-name="uni0163" unicode="&#x163;" horiz-adv-x="398" 
d="M273 -46q45 0 72 -24.5t27 -64.5t-32.5 -66.5t-81.5 -26.5q-67 0 -113 44l30 38q35 -30 80 -30q26 0 43 12.5t17 32.5q0 44 -61 44q-20 0 -34 -6l-19 14l25 79q-90 27 -90 158v272h-101v64h101v138l73 7v-145h157v-64h-157v-271q0 -50 18 -75.5t64 -25.5q35 0 73 19
l24 -60q-56 -25 -105 -25h-4l-12 -38h6z" />
    <glyph glyph-name="Tcaron" unicode="&#x164;" horiz-adv-x="593" 
d="M326 777h-49l-128 127h79l74 -68l74 68h79zM576 700v-71h-241v-629h-77v629h-241v71h559z" />
    <glyph glyph-name="tcaron" unicode="&#x165;" horiz-adv-x="431" 
d="M404 649h71l-58 -171h-55zM291 58q35 0 73 19l24 -60q-56 -25 -105 -25q-147 0 -147 166v272h-101v64h101v138l73 7v-145h117v-64h-117v-270q0 -51 18 -76.5t64 -25.5z" />
    <glyph glyph-name="Tbar" unicode="&#x166;" horiz-adv-x="593" 
d="M576 629h-241v-253h126v-60h-126v-316h-77v316h-127v60h127v253h-241v71h559v-71z" />
    <glyph glyph-name="tbar" unicode="&#x167;" horiz-adv-x="398" 
d="M364 79l24 -62q-56 -25 -105 -25q-147 0 -147 166v82h-81v60h81v129h-101v65h101v138l73 7v-145h157v-65h-157v-129h117v-60h-117v-80q0 -50 18 -75.5t64 -25.5q36 0 73 20z" />
    <glyph glyph-name="Utilde" unicode="&#x168;" horiz-adv-x="746" 
d="M440 786q-31 0 -71 21q-37 20 -57 20q-28 0 -41 -35l-46 23q23 72 81 72q23 0 71 -23q37 -18 57 -18q27 0 37 33l48 -18q-7 -38 -28.5 -56.5t-50.5 -18.5zM373 -13q-125 0 -202.5 80t-77.5 211v422h77v-421q0 -100 55.5 -160t147.5 -60t147.5 60t55.5 160v421h77v-422
q0 -131 -77.5 -211t-202.5 -80z" />
    <glyph glyph-name="utilde" unicode="&#x169;" horiz-adv-x="613" 
d="M365 595q-28 0 -66 22q-33 19 -52 19q-28 0 -41 -35l-45 23q21 72 80 72q24 0 66 -23q34 -18 51 -18q28 0 38 34l48 -19q-7 -38 -29 -56.5t-50 -18.5zM284 -8q-97 0 -153 61t-56 165v276h74v-274q0 -76 39 -118.5t109 -42.5t114.5 48t44.5 120v267h74v-494h-69q0 62 2 92
h-3q-22 -47 -69 -73.5t-107 -26.5z" />
    <glyph glyph-name="Umacron" unicode="&#x16a;" horiz-adv-x="746" 
d="M224 800v59h298v-59h-298zM373 -13q-125 0 -202.5 80t-77.5 211v422h77v-421q0 -100 55.5 -160t147.5 -60t147.5 60t55.5 160v421h77v-422q0 -131 -77.5 -211t-202.5 -80z" />
    <glyph glyph-name="umacron" unicode="&#x16b;" horiz-adv-x="613" 
d="M166 594v59h274v-59h-274zM284 -8q-97 0 -153 61t-56 165v276h74v-274q0 -76 39 -118.5t109 -42.5t114.5 48t44.5 120v267h74v-494h-69q0 62 2 92h-3q-22 -47 -69 -73.5t-107 -26.5z" />
    <glyph glyph-name="Ubreve" unicode="&#x16c;" horiz-adv-x="746" 
d="M373 774q-60 0 -97 35t-37 92h61q0 -32 20 -51t53 -19q32 0 52.5 19.5t20.5 50.5h61q0 -57 -37.5 -92t-96.5 -35zM373 -13q-125 0 -202.5 80t-77.5 211v422h77v-421q0 -100 55.5 -160t147.5 -60t147.5 60t55.5 160v421h77v-422q0 -131 -77.5 -211t-202.5 -80z" />
    <glyph glyph-name="ubreve" unicode="&#x16d;" horiz-adv-x="613" 
d="M304 577q-60 0 -97 34t-37 89h60q0 -30 20.5 -48.5t53.5 -18.5q32 0 52.5 18.5t20.5 48.5h61q0 -55 -37.5 -89t-96.5 -34zM284 -8q-97 0 -153 61t-56 165v276h74v-274q0 -76 39 -118.5t109 -42.5t114.5 48t44.5 120v267h74v-494h-69q0 62 2 92h-3q-22 -47 -69 -73.5
t-107 -26.5z" />
    <glyph glyph-name="Uring" unicode="&#x16e;" horiz-adv-x="746" 
d="M373 746q-50 0 -82 30.5t-32 76.5t32.5 76t81.5 30t81 -30t32 -76q0 -47 -32 -77t-81 -30zM373 795q26 0 43 16.5t17 41.5t-17 41t-43 16q-27 0 -43.5 -15.5t-16.5 -41.5t16.5 -42t43.5 -16zM373 -13q-125 0 -202.5 80t-77.5 211v422h77v-421q0 -100 55.5 -160t147.5 -60
t147.5 60t55.5 160v421h77v-422q0 -131 -77.5 -211t-202.5 -80z" />
    <glyph glyph-name="uring" unicode="&#x16f;" horiz-adv-x="613" 
d="M302 540q-50 0 -82 30.5t-32 76.5t32.5 76t81.5 30t81 -30t32 -76q0 -47 -32 -77t-81 -30zM302 589q26 0 43 16.5t17 41.5t-17 41t-43 16q-27 0 -43.5 -15.5t-16.5 -41.5t16.5 -42t43.5 -16zM284 -8q-97 0 -153 61t-56 165v276h74v-274q0 -76 39 -118.5t109 -42.5
t114.5 48t44.5 120v267h74v-494h-69q0 62 2 92h-3q-22 -47 -69 -73.5t-107 -26.5z" />
    <glyph glyph-name="Uhungarumlaut" unicode="&#x170;" horiz-adv-x="746" 
d="M255 776l76 130h81l-92 -130h-65zM405 776l77 130h79l-92 -130h-64zM373 -13q-125 0 -202.5 80t-77.5 211v422h77v-421q0 -100 55.5 -160t147.5 -60t147.5 60t55.5 160v421h77v-422q0 -131 -77.5 -211t-202.5 -80z" />
    <glyph glyph-name="uhungarumlaut" unicode="&#x171;" horiz-adv-x="613" 
d="M186 570l75 130h81l-91 -130h-65zM335 570l77 130h79l-91 -130h-65zM284 -8q-97 0 -153 61t-56 165v276h74v-274q0 -76 39 -118.5t109 -42.5t114.5 48t44.5 120v267h74v-494h-69q0 62 2 92h-3q-22 -47 -69 -73.5t-107 -26.5z" />
    <glyph glyph-name="Uogonek" unicode="&#x172;" horiz-adv-x="746" 
d="M576 700h77v-422q0 -105 -51 -178.5t-139 -100.5q-77 -38 -77 -81q0 -41 48 -41q34 0 65 22l29 -42q-47 -44 -110 -44q-47 0 -74 23.5t-27 65.5q0 47 39 85q-119 6 -191 85.5t-72 205.5v422h77v-421q0 -100 55.5 -160t147.5 -60t147.5 60t55.5 160v421z" />
    <glyph glyph-name="uogonek" unicode="&#x173;" horiz-adv-x="613" 
d="M554 -101l32 -40q-49 -43 -113 -43q-44 0 -70 23t-26 62q0 67 84 113q0 53 2 78h-3q-22 -47 -69 -73.5t-107 -26.5q-97 0 -153 61t-56 165v276h74v-274q0 -76 39 -118.5t109 -42.5t114.5 48t44.5 120v267h74v-494q-48 -22 -68.5 -41.5t-20.5 -43.5q0 -40 48 -40
q35 0 65 24z" />
    <glyph glyph-name="Wcircumflex" unicode="&#x174;" horiz-adv-x="1085" 
d="M695 774h-78l-75 68l-74 -68h-78l128 127h49zM267 0l-235 700h82l124 -384q17 -50 41 -126.5t29 -92.5h2q26 93 67 217l127 386h77l127 -386q40 -122 68 -217h1q31 103 69 219l126 384h81l-236 -700h-83l-105 324q-30 97 -86 266h-2q-45 -134 -87 -265l-105 -325h-82z
" />
    <glyph glyph-name="wcircumflex" unicode="&#x175;" horiz-adv-x="826" 
d="M574 570h-79l-81 74l-80 -74h-79l135 130h49zM204 0l-171 494h79l66 -204q39 -120 68 -214h2q32 110 67 213l68 205h64l67 -204q43 -134 66 -214h3q23 85 66 213l67 205h77l-170 -494h-84l-44 136q-54 165 -79 255h-2q-29 -95 -81 -255l-44 -136h-85z" />
    <glyph glyph-name="Ycircumflex" unicode="&#x176;" horiz-adv-x="663" 
d="M331 842l-74 -68h-78l128 127h49l128 -127h-78zM641 700l-273 -413v-287h-77v285l-268 415h91l161 -258q53 -90 54 -91h2q16 29 57 93l160 256h93z" />
    <glyph glyph-name="ycircumflex" unicode="&#x177;" horiz-adv-x="544" 
d="M269 644l-80 -74h-79l135 130h49l135 -130h-79zM437 494h80l-249 -607q-27 -66 -62.5 -97t-85.5 -31q-49 0 -90 27l29 61q24 -18 57 -18q29 0 49 19.5t39 62.5l33 79l-211 504h80l98 -240q42 -104 71 -182h2q43 116 69 182z" />
    <glyph glyph-name="Ydieresis" unicode="&#x178;" horiz-adv-x="663" 
d="M228 792q-22 0 -38 14.5t-16 38.5q0 25 16 39t38 14t37.5 -14t15.5 -39q0 -24 -15.5 -38.5t-37.5 -14.5zM436 792q-22 0 -37.5 14.5t-15.5 38.5q0 25 15.5 39t37.5 14t38 -14t16 -39q0 -24 -16 -38.5t-38 -14.5zM641 700l-273 -413v-287h-77v285l-268 415h91l161 -258
q53 -90 54 -91h2q16 29 57 93l160 256h93z" />
    <glyph glyph-name="Zacute" unicode="&#x179;" horiz-adv-x="594" 
d="M253 774l74 127h90l-95 -127h-69zM25 0v45l391 545q16 20 30 38l-1 2q-15 -2 -43 -2h-343v72h494v-43l-392 -546q-15 -20 -30 -37l1 -2q14 1 43 1h378v-73h-528z" />
    <glyph glyph-name="zacute" unicode="&#x17a;" horiz-adv-x="474" 
d="M190 570l74 130h90l-94 -130h-70zM31 0v43l268 344q9 13 31 40l-1 2q-14 -2 -43 -2h-239v67h389v-41l-270 -347q-24 -31 -31 -38l1 -2q28 2 43 2h257v-68h-405z" />
    <glyph glyph-name="Zdotaccent" unicode="&#x17b;" horiz-adv-x="594" 
d="M297 795q-22 0 -37 14.5t-15 36.5t14.5 37t37.5 15t37.5 -14.5t14.5 -37.5q0 -22 -14.5 -36.5t-37.5 -14.5zM25 0v45l391 545q16 20 30 38l-1 2q-15 -2 -43 -2h-343v72h494v-43l-392 -546q-15 -20 -30 -37l1 -2q14 1 43 1h378v-73h-528z" />
    <glyph glyph-name="zdotaccent" unicode="&#x17c;" horiz-adv-x="474" 
d="M240 591q-22 0 -36.5 14t-14.5 35q0 22 14.5 36t36.5 14t36.5 -14t14.5 -36q0 -21 -14.5 -35t-36.5 -14zM31 0v43l268 344q9 13 31 40l-1 2q-14 -2 -43 -2h-239v67h389v-41l-270 -347q-24 -31 -31 -38l1 -2q28 2 43 2h257v-68h-405z" />
    <glyph glyph-name="Zcaron" unicode="&#x17d;" horiz-adv-x="594" 
d="M456 904l-129 -127h-49l-128 127h79l74 -68l74 68h79zM25 0v45l391 545q16 20 30 38l-1 2q-15 -2 -43 -2h-343v72h494v-43l-392 -546q-15 -20 -30 -37l1 -2q14 1 43 1h378v-73h-528z" />
    <glyph glyph-name="zcaron" unicode="&#x17e;" horiz-adv-x="474" 
d="M403 700l-135 -130h-48l-135 130h79l80 -74l81 74h78zM31 0v43l268 344q9 13 31 40l-1 2q-14 -2 -43 -2h-239v67h389v-41l-270 -347q-24 -31 -31 -38l1 -2q28 2 43 2h257v-68h-405z" />
    <glyph glyph-name="longs" unicode="&#x17f;" horiz-adv-x="303" 
d="M291 712q58 0 105 -26l-26 -55q-38 16 -74 16q-91 0 -91 -110v-537h-74v428h-98v66h98v42q0 83 41.5 129.5t118.5 46.5z" />
    <glyph glyph-name="florin" unicode="&#x192;" horiz-adv-x="394" 
d="M318 648q-92 0 -92 -111v-43h157v-65h-157v-430q0 -84 -37 -129.5t-108 -45.5q-54 0 -107 31l30 54q32 -20 68 -20q80 0 80 110v430h-98v65h98v42q0 83 42 129.5t119 46.5q57 0 104 -26l-26 -55q-37 17 -73 17z" />
    <glyph glyph-name="AEacute" unicode="&#x1fc;" horiz-adv-x="1007" 
d="M645 901l-95 -127h-69l74 127h90zM561 73h383v-73h-459v193h-285l-136 -193h-90l485 700h474v-72h-372v-238h351v-72h-351v-245zM244 263h241v289q0 27 2 57l-2 1q-2 -3 -10.5 -15.5t-18 -26t-18.5 -26.5z" />
    <glyph glyph-name="aeacute" unicode="&#x1fd;" horiz-adv-x="915" 
d="M572 700l-94 -130h-70l74 130h90zM879 259q0 -11 -2 -41h-390q8 -73 53.5 -116t117.5 -43q88 0 154 58l42 -47q-36 -37 -89 -57.5t-109 -20.5q-66 0 -123.5 31t-87.5 86q-29 -56 -87.5 -86.5t-126.5 -30.5q-83 0 -138.5 41.5t-55.5 116.5q0 76 57 118.5t143 42.5
q100 0 174 -40v41q0 63 -44 94t-120 31q-85 0 -159 -36l-13 61q87 40 176 40q170 0 210 -109q29 53 82 82t115 29q98 0 159.5 -64.5t61.5 -180.5zM655 438q-67 0 -112.5 -42t-55.5 -115h321q-2 75 -43.5 116t-109.5 41zM240 55q67 0 117 41t57 109q-33 20 -79 32.5t-86 12.5
q-61 0 -99.5 -26t-38.5 -72q0 -45 37.5 -71t91.5 -26z" />
    <glyph glyph-name="Oslashacute" unicode="&#x1fe;" horiz-adv-x="820" 
d="M529 901l-95 -127h-69l74 127h90zM627 647q65 -48 101.5 -124.5t36.5 -171.5q0 -162 -99 -263.5t-258 -101.5q-85 0 -157 32l-53 -90h-80l75 125q-66 48 -102.5 124.5t-36.5 171.5q0 162 99.5 263.5t258.5 101.5q88 0 157 -33l51 86h79zM133 351q0 -153 102 -234l297 498
q-55 26 -122 26q-122 0 -199.5 -81t-77.5 -209zM409 59q122 0 199.5 81t77.5 209q0 151 -101 233l-297 -498q56 -25 121 -25z" />
    <glyph glyph-name="oslashacute" unicode="&#x1ff;" horiz-adv-x="603" 
d="M415 700l-94 -130h-70l74 130h90zM462 454q97 -73 97 -206q0 -114 -73.5 -186t-186.5 -72q-53 0 -102 19l-38 -66h-73l57 96q-98 71 -98 207q0 114 73 186t186 72q55 0 104 -19l36 60h73zM302 436q-79 0 -131 -53t-52 -135q0 -93 63 -148l192 322q-34 14 -72 14zM301 57
q79 0 131.5 53.5t52.5 135.5q0 91 -62 146l-192 -322q34 -13 70 -13z" />
    <glyph glyph-name="uni0218" unicode="&#x218;" horiz-adv-x="618" 
d="M315 -13q-150 0 -263 89l39 60q104 -76 224 -76q81 0 131.5 35t50.5 97q0 55 -40.5 86t-145.5 51q-126 23 -182 67.5t-56 122.5q0 87 70 140.5t176 53.5q128 0 224 -69l-41 -57q-77 55 -181 55q-75 0 -123 -32.5t-48 -87.5q0 -49 41 -76.5t141 -47.5q132 -26 187 -73.5
t55 -131.5q0 -95 -71.5 -150.5t-187.5 -55.5zM312 -68q21 0 33 -12.5t12 -35.5q0 -53 -49 -131l-38 18q20 38 27 82q-31 7 -31 38q0 18 12.5 29.5t33.5 11.5z" />
    <glyph glyph-name="uni0219" unicode="&#x219;" horiz-adv-x="490" 
d="M252 -13q-114 0 -213 66l33 57q90 -58 181 -58q54 0 87.5 23.5t33.5 60.5q0 36 -29.5 55t-101.5 30q-187 28 -187 141q0 62 53.5 101t138.5 39q99 0 178 -48l-26 -58q-76 43 -153 43q-55 0 -86.5 -20t-31.5 -55q0 -32 29 -51.5t93 -29.5q108 -17 152.5 -50.5t44.5 -97.5
q0 -66 -54 -107t-142 -41zM251 -68q21 0 33 -12.5t12 -35.5q0 -53 -49 -131l-38 18q20 38 27 82q-31 7 -31 38q0 18 12.5 29.5t33.5 11.5z" />
    <glyph glyph-name="uni021A" unicode="&#x21a;" horiz-adv-x="593" 
d="M17 700h559v-71h-241v-629h-77v629h-241v71zM299 -68q21 0 33 -12.5t12 -35.5q0 -53 -49 -131l-38 18q20 38 27 82q-31 7 -31 38q0 18 12.5 29.5t33.5 11.5z" />
    <glyph glyph-name="uni021B" unicode="&#x21b;" horiz-adv-x="398" 
d="M388 17q-56 -25 -105 -25q-147 0 -147 166v272h-101v64h101v138l73 7v-145h157v-64h-157v-271q0 -50 18 -75.5t64 -25.5q35 0 73 19zM262 -68q21 0 33 -12.5t12 -35.5q0 -53 -49 -131l-38 18q20 38 27 82q-31 7 -31 38q0 18 12.5 29.5t33.5 11.5z" />
    <glyph glyph-name="uni0237" unicode="&#x237;" horiz-adv-x="239" 
d="M13 -249q-51 0 -97 29l27 57q32 -17 65 -17q41 0 57.5 24.5t16.5 84.5v565h74v-565q0 -92 -34.5 -135t-108.5 -43z" />
    <glyph glyph-name="circumflex" unicode="&#x2c6;" horiz-adv-x="441" 
d="M385 570h-79l-80 74l-81 -74h-78l134 130h49z" />
    <glyph glyph-name="caron" unicode="&#x2c7;" horiz-adv-x="428" 
d="M412 700l-135 -130h-48l-135 130h78l81 -74l81 74h78z" />
    <glyph glyph-name="breve" unicode="&#x2d8;" horiz-adv-x="346" 
d="M189 577q-60 0 -97 34t-37 89h60q0 -30 20.5 -48.5t53.5 -18.5q32 0 52.5 18.5t20.5 48.5h61q0 -55 -37.5 -89t-96.5 -34z" />
    <glyph glyph-name="dotaccent" unicode="&#x2d9;" horiz-adv-x="227" 
d="M115 591q-22 0 -36.5 14t-14.5 35q0 22 14.5 36t36.5 14t36.5 -14t14.5 -36q0 -21 -14.5 -35t-36.5 -14z" />
    <glyph glyph-name="ring" unicode="&#x2da;" horiz-adv-x="327" 
d="M171 540q-50 0 -82 30.5t-32 76.5t32.5 76t81.5 30t81 -30t32 -76t-32 -76.5t-81 -30.5zM171 589q26 0 43 16.5t17 41.5t-17 41t-43 16q-27 0 -43.5 -15.5t-16.5 -41.5t16.5 -42t43.5 -16z" />
    <glyph glyph-name="ogonek" unicode="&#x2db;" horiz-adv-x="455" 
d="M255 -184q-44 0 -70 23t-26 62q0 81 123 131l30 -32q-48 -22 -68.5 -41.5t-20.5 -43.5q0 -40 48 -40q35 0 65 24l32 -40q-49 -43 -113 -43z" />
    <glyph glyph-name="tilde" unicode="&#x2dc;" horiz-adv-x="356" 
d="M254 595q-27 0 -66 22q-33 19 -51 19q-28 0 -42 -35l-45 23q21 72 80 72q25 0 67 -23q34 -18 51 -18q27 0 37 34l49 -19q-16 -75 -80 -75z" />
    <glyph glyph-name="hungarumlaut" unicode="&#x2dd;" horiz-adv-x="393" 
d="M98 570l75 130h81l-92 -130h-64zM247 570l77 130h79l-91 -130h-65z" />
    <glyph glyph-name="gravecomb" unicode="&#x300;" 
d="M-85 570h-69l-95 130h90z" />
    <glyph glyph-name="acutecomb" unicode="&#x301;" 
d="M-183 570l74 130h90l-94 -130h-70z" />
    <glyph glyph-name="uni0302" unicode="&#x302;" 
d="M-63 570h-79l-81 74l-80 -74h-79l135 130h49z" />
    <glyph glyph-name="tildecomb" unicode="&#x303;" 
d="M-133 595q-28 0 -66 22q-33 19 -52 19q-28 0 -41 -35l-45 23q21 72 80 72q24 0 66 -23q35 -18 51 -18q28 0 38 34l48 -19q-7 -38 -29 -56.5t-50 -18.5z" />
    <glyph glyph-name="uni0304" unicode="&#x304;" 
d="M-354 594v59h274v-59h-274z" />
    <glyph glyph-name="uni0306" unicode="&#x306;" 
d="M-187 577q-60 0 -97 34t-37 89h60q0 -30 20.5 -48.5t53.5 -18.5q32 0 52.5 18.5t20.5 48.5h61q0 -55 -37.5 -89t-96.5 -34z" />
    <glyph glyph-name="uni0307" unicode="&#x307;" 
d="M-107 591q-22 0 -36.5 14t-14.5 35q0 22 14.5 36t36.5 14t36.5 -14t14.5 -36q0 -21 -14.5 -35t-36.5 -14z" />
    <glyph glyph-name="uni0308" unicode="&#x308;" 
d="M-302 591q-20 0 -34.5 13.5t-14.5 36.5t14.5 36.5t34.5 13.5q21 0 35.5 -13.5t14.5 -36.5t-14.5 -36.5t-35.5 -13.5zM-105 591q-21 0 -35.5 13.5t-14.5 36.5t14.5 36.5t35.5 13.5t35.5 -13.5t14.5 -36.5t-14.5 -36.5t-35.5 -13.5z" />
    <glyph glyph-name="uni030A" unicode="&#x30a;" 
d="M-168 540q-50 0 -82 30.5t-32 76.5t32.5 76t81.5 30t81 -30t32 -76q0 -47 -32 -77t-81 -30zM-168 589q26 0 43 16.5t17 41.5t-17 41t-43 16q-27 0 -43.5 -15.5t-16.5 -41.5t16.5 -42t43.5 -16z" />
    <glyph glyph-name="uni030B" unicode="&#x30b;" 
d="M-320 570l75 130h81l-91 -130h-65zM-171 570l77 130h79l-91 -130h-65z" />
    <glyph glyph-name="uni030C" unicode="&#x30c;" 
d="M-56 700l-135 -130h-48l-135 130h79l80 -74l81 74h78z" />
    <glyph glyph-name="uni0312" unicode="&#x312;" 
d="M-128 564q-20 0 -32 13t-12 35q0 24 14.5 62.5t33.5 68.5l38 -17q-20 -39 -27 -82q31 -8 31 -38q0 -19 -12.5 -30.5t-33.5 -11.5z" />
    <glyph glyph-name="uni0326" unicode="&#x326;" 
d="M-109 -68q21 0 33 -12.5t12 -35.5q0 -53 -49 -131l-38 18q20 38 27 82q-31 7 -31 38q0 18 12.5 29.5t33.5 11.5z" />
    <glyph glyph-name="uni0327" unicode="&#x327;" 
d="M-156 -46q45 0 72 -24.5t27 -64.5t-32.5 -66.5t-81.5 -26.5q-67 0 -113 44l30 38q34 -30 80 -30q26 0 43 12.5t17 32.5q0 44 -61 44q-21 0 -34 -6l-19 14l30 95l54 -4l-18 -58h6z" />
    <glyph glyph-name="uni0328" unicode="&#x328;" 
d="M-161 -184q-44 0 -70 23t-26 62q0 81 123 131l30 -32q-48 -22 -68.5 -41.5t-20.5 -43.5q0 -40 48 -40q35 0 65 24l32 -40q-49 -43 -113 -43z" />
    <glyph glyph-name="uni03BC" unicode="&#x3bc;" horiz-adv-x="621" 
d="M82 -235v729h74v-268q0 -80 39.5 -123.5t109.5 -43.5q69 0 114 48t45 119v268h74v-494h-69q0 61 2 92h-3q-22 -47 -69 -73.5t-107 -26.5q-93 0 -135 55l-2 -1q2 -35 2 -101v-180h-75z" />
    <glyph glyph-name="pi" unicode="&#x3c0;" horiz-adv-x="675" 
d="M641 429h-118v-293q0 -42 15 -59t52 -17q16 0 31 3l7 -65q-27 -6 -51 -6q-63 0 -95.5 37.5t-32.5 105.5v294h-237v-429h-74v429h-115v65h618v-65z" />
    <glyph glyph-name="uni0400" unicode="&#x400;" horiz-adv-x="639" 
d="M387 774h-69l-95 127h90zM179 73h398v-73h-475v700h465v-72h-388v-238h370v-72h-370v-245z" />
    <glyph glyph-name="uni0401" unicode="&#x401;" horiz-adv-x="639" 
d="M237 792q-22 0 -38 14.5t-16 38.5q0 25 16 39t38 14t37.5 -14t15.5 -39q0 -24 -15.5 -38.5t-37.5 -14.5zM445 792q-22 0 -37.5 14.5t-15.5 38.5q0 25 15.5 39t37.5 14t38 -14t16 -39q0 -24 -16 -38.5t-38 -14.5zM179 73h398v-73h-475v700h465v-72h-388v-238h370v-72h-370
v-245z" />
    <glyph glyph-name="uni0402" unicode="&#x402;" horiz-adv-x="783" 
d="M517 465q102 0 161.5 -62t59.5 -170t-59.5 -170t-174.5 -74l-13 72q86 11 127 53t41 119t-41 119t-117 42q-78 0 -128.5 -43.5t-50.5 -114.5v-236h-78v629h-227v71h533v-69h-228v-174q0 -32 -3 -86h2q32 43 83.5 68.5t112.5 25.5z" />
    <glyph glyph-name="uni0403" unicode="&#x403;" horiz-adv-x="559" 
d="M451 901l-95 -127h-69l74 127h90zM536 700v-71h-357v-629h-77v700h434z" />
    <glyph glyph-name="uni0404" unicode="&#x404;" horiz-adv-x="713" 
d="M420 59q119 0 203 81l47 -56q-99 -96 -255 -96q-158 0 -259.5 101t-101.5 260q0 160 101.5 262t261.5 102q149 0 253 -101l-52 -52q-81 81 -203 81q-114 0 -191 -69t-90 -181h357v-69h-358q10 -117 88.5 -190t198.5 -73z" />
    <glyph glyph-name="uni0405" unicode="&#x405;" horiz-adv-x="618" 
d="M315 -13q-150 0 -263 89l39 60q104 -76 224 -76q81 0 131.5 35t50.5 97q0 55 -40.5 86t-145.5 51q-126 23 -182 67.5t-56 122.5q0 87 70 140.5t176 53.5q128 0 224 -69l-41 -57q-77 55 -181 55q-75 0 -123 -32.5t-48 -87.5q0 -49 41 -76.5t141 -47.5q132 -26 187 -73.5
t55 -131.5q0 -95 -71.5 -150.5t-187.5 -55.5z" />
    <glyph glyph-name="uni0406" unicode="&#x406;" horiz-adv-x="281" 
d="M102 0v700h77v-700h-77z" />
    <glyph glyph-name="uni0407" unicode="&#x407;" horiz-adv-x="281" 
d="M37 792q-22 0 -38 14.5t-16 38.5q0 25 16 39t38 14t37.5 -14t15.5 -39q0 -24 -15.5 -38.5t-37.5 -14.5zM245 792q-22 0 -37.5 14.5t-15.5 38.5q0 25 15.5 39t37.5 14t38 -14t16 -39q0 -24 -16 -38.5t-38 -14.5zM102 0v700h77v-700h-77z" />
    <glyph glyph-name="uni0408" unicode="&#x408;" horiz-adv-x="476" 
d="M156 -12q-86 0 -159 44l34 61q57 -33 122 -33q153 0 153 187v453h77v-454q0 -127 -58.5 -192.5t-168.5 -65.5z" />
    <glyph glyph-name="uni0409" unicode="&#x409;" horiz-adv-x="1159" 
d="M838 456q123 0 190 -58t67 -165q0 -115 -66 -174t-191 -59h-255v628h-308l-16 -302q-5 -88 -21 -148t-45.5 -96t-59 -54t-75.5 -35l-22 72q47 16 74 38t48 79.5t27 156.5l21 361h454v-244h178zM845 72q80 0 126.5 41t46.5 115q0 75 -46 115.5t-127 40.5h-185v-312h185z
" />
    <glyph glyph-name="uni040A" unicode="&#x40a;" horiz-adv-x="1143" 
d="M828 432q119 0 185 -52t66 -160q0 -110 -66.5 -165t-184.5 -55h-264v357h-385v-357h-77v700h77v-271h385v271h77v-268h187zM835 72q75 0 120.5 38t45.5 107q0 143 -166 143h-194v-288h194z" />
    <glyph glyph-name="uni040B" unicode="&#x40b;" horiz-adv-x="797" 
d="M502 465q102 0 161.5 -61t59.5 -167v-237h-77v235q0 77 -41 118.5t-118 41.5q-69 0 -117 -45.5t-48 -113.5v-236h-77v629h-228v71h533v-68h-228v-181q0 -32 -4 -81l2 -1q30 45 78 70.5t104 25.5z" />
    <glyph glyph-name="uni040C" unicode="&#x40c;" horiz-adv-x="622" 
d="M430 901l-95 -127h-69l74 127h90zM256 363l372 -363h-106l-284 277q-44 42 -58 59l-2 -1q1 -16 1 -57v-278h-77v700h77v-256q0 -42 -1 -57l2 -1q5 6 14.5 15.5t23.5 24t25 25.5l251 249h103z" />
    <glyph glyph-name="uni040D" unicode="&#x40d;" horiz-adv-x="777" 
d="M440 774h-69l-95 127h90zM102 0v700h77v-508q0 -23 -2 -67l3 -1q20 30 67 95l356 481h72v-700h-76v508q0 48 1 71l-2 1q-40 -62 -69 -99l-355 -481h-72z" />
    <glyph glyph-name="uni040E" unicode="&#x40e;" horiz-adv-x="654" 
d="M331 764q-127 0 -154 127l54 16q17 -82 100 -82t100 82l54 -16q-27 -127 -154 -127zM181 -11q-46 0 -89 21l23 65q31 -14 65 -14q36 0 59 20t46 65l18 35l-283 519h90l166 -317q43 -81 64 -126h2q23 54 57 126l153 317h83l-272 -566q-38 -78 -77 -111.5t-105 -33.5z" />
    <glyph glyph-name="uni040F" unicode="&#x40f;" horiz-adv-x="777" 
d="M675 700v-700h-248v-155h-77v155h-248v700h77v-628h419v628h77z" />
    <glyph glyph-name="uni0410" unicode="&#x410;" horiz-adv-x="756" 
d="M651 0l-74 162h-400l-73 -162h-84l314 700h87l314 -700h-84zM377 623q-35 -84 -70 -162l-99 -228h338l-99 230q-58 134 -68 160h-2z" />
    <glyph glyph-name="uni0411" unicode="&#x411;" horiz-adv-x="700" 
d="M396 418q115 0 177 -54t62 -153q0 -100 -63 -155.5t-176 -55.5h-294v700h476v-72h-399v-210h217zM403 72q74 0 114 35.5t40 101.5q0 67 -40 103t-114 36h-224v-276h224z" />
    <glyph glyph-name="uni0412" unicode="&#x412;" horiz-adv-x="690" 
d="M509 361q58 -19 92 -63.5t34 -104.5q0 -93 -60.5 -143t-171.5 -50h-301v700h301q95 0 152 -50t57 -135q0 -52 -27 -92t-76 -59v-3zM404 630h-225v-237h218q65 0 101 31t36 86t-35 87.5t-95 32.5zM410 71q69 0 108 34t39 93t-41 92.5t-113 33.5h-224v-253h231z" />
    <glyph glyph-name="uni0413" unicode="&#x413;" horiz-adv-x="559" 
d="M536 700v-71h-357v-629h-77v700h434z" />
    <glyph glyph-name="uni0414" unicode="&#x414;" horiz-adv-x="803" 
d="M665 72h104v-227h-76v155h-598v-155h-77v227h63q44 40 66.5 89.5t27.5 139.5l26 399h464v-628zM251 295q-9 -151 -75 -224h413v557h-318z" />
    <glyph glyph-name="uni0415" unicode="&#x415;" horiz-adv-x="639" 
d="M179 73h398v-73h-475v700h465v-72h-388v-238h370v-72h-370v-245z" />
    <glyph glyph-name="uni0416" unicode="&#x416;" horiz-adv-x="923" 
d="M-6 0l353 363l-323 337h100l172 -178q81 -86 128 -141l2 1q-2 42 -2 130v188h75v-187q0 -88 -2 -131l2 -1q46 52 128 140l173 179h98l-323 -337l354 -363h-102l-196 202q-86 88 -131 137l-2 -1q1 -26 1 -128v-210h-75v210q0 102 1 128l-2 1q-70 -75 -131 -137l-196 -202
h-102z" />
    <glyph glyph-name="uni0417" unicode="&#x417;" horiz-adv-x="608" 
d="M293 -13q-147 0 -254 90l36 58q97 -77 214 -77q86 0 137 36.5t51 99.5q0 59 -41.5 94.5t-108.5 35.5h-146v68h140q56 0 95 33.5t39 88.5q0 58 -46.5 94t-121.5 36q-105 0 -196 -77l-40 52q105 95 245 95q106 0 170 -52.5t64 -142.5q0 -55 -29.5 -97t-82.5 -60v-3
q63 -18 99 -64t36 -107q0 -93 -71 -147t-189 -54z" />
    <glyph glyph-name="uni0418" unicode="&#x418;" horiz-adv-x="777" 
d="M102 0v700h77v-508q0 -23 -2 -67l3 -1q20 30 67 95l356 481h72v-700h-76v508q0 48 1 71l-2 1q-40 -62 -69 -99l-355 -481h-72z" />
    <glyph glyph-name="uni0419" unicode="&#x419;" horiz-adv-x="777" 
d="M394 764q-127 0 -154 127l54 16q17 -82 100 -82t100 82l54 -16q-27 -127 -154 -127zM102 0v700h77v-508q0 -23 -2 -67l3 -1q20 30 67 95l356 481h72v-700h-76v508q0 48 1 71l-2 1q-40 -62 -69 -99l-355 -481h-72z" />
    <glyph glyph-name="uni041A" unicode="&#x41a;" horiz-adv-x="622" 
d="M256 363l372 -363h-106l-284 277q-44 42 -58 59l-2 -1q1 -16 1 -57v-278h-77v700h77v-256q0 -42 -1 -57l2 -1q5 6 14.5 15.5t23.5 24t25 25.5l251 249h103z" />
    <glyph glyph-name="uni041B" unicode="&#x41b;" horiz-adv-x="782" 
d="M206 700h474v-700h-76v628h-328l-17 -305q-4 -70 -16.5 -122.5t-29.5 -86t-43 -58t-51 -38t-60 -25.5l-23 71q28 11 44 19.5t37 28t32.5 46t21 72t13.5 107.5z" />
    <glyph glyph-name="uni041C" unicode="&#x41c;" horiz-adv-x="924" 
d="M743 700h79v-700h-77v510q0 26 2 58l-2 1q-18 -29 -46 -72l-221 -337h-32l-221 336q-13 21 -46 68l-2 -1q2 -32 2 -58v-505h-77v700h79l281 -432z" />
    <glyph glyph-name="uni041D" unicode="&#x41d;" horiz-adv-x="777" 
d="M598 700h77v-700h-77v321h-419v-321h-77v700h77v-307h419v307z" />
    <glyph glyph-name="uni041E" unicode="&#x41e;" horiz-adv-x="820" 
d="M408 -14q-156 0 -255 101.5t-99 261.5q0 162 99.5 263.5t258.5 101.5q156 0 254.5 -101.5t98.5 -261.5q0 -162 -99 -263.5t-258 -101.5zM409 59q122 0 199.5 81t77.5 209q0 130 -77 211t-199 81t-199.5 -81t-77.5 -209q0 -130 77 -211t199 -81z" />
    <glyph glyph-name="uni041F" unicode="&#x41f;" horiz-adv-x="777" 
d="M102 700h573v-700h-78v628h-417v-628h-78v700z" />
    <glyph glyph-name="uni0420" unicode="&#x420;" horiz-adv-x="660" 
d="M385 700q116 0 178.5 -67.5t62.5 -167.5q0 -101 -62.5 -168.5t-178.5 -67.5h-206v-229h-77v700h283zM382 301q82 0 124 45.5t42 116.5q0 72 -42 118.5t-124 46.5h-203v-327h203z" />
    <glyph glyph-name="uni0421" unicode="&#x421;" horiz-adv-x="715" 
d="M417 -13q-160 0 -261.5 101t-101.5 260q0 161 102 263t262 102q148 0 250 -100l-46 -57q-88 83 -205 83q-126 0 -205 -80t-79 -207q0 -129 79.5 -210t205.5 -81q123 0 208 81l46 -58q-99 -97 -255 -97z" />
    <glyph glyph-name="uni0422" unicode="&#x422;" horiz-adv-x="593" 
d="M576 700v-71h-241v-629h-77v629h-241v71h559z" />
    <glyph glyph-name="uni0423" unicode="&#x423;" horiz-adv-x="654" 
d="M181 -11q-46 0 -89 21l23 65q31 -14 65 -14q36 0 59 20t46 65l18 35l-283 519h90l166 -317q43 -81 64 -126h2q23 54 57 126l153 317h83l-272 -566q-38 -78 -77 -111.5t-105 -33.5z" />
    <glyph glyph-name="uni0424" unicode="&#x424;" horiz-adv-x="850" 
d="M795 351q0 -132 -85.5 -213t-245.5 -83v-92h-78v92q-159 1 -245.5 82.5t-86.5 211.5q0 131 86 211.5t246 82.5v91h78v-91q160 -2 245.5 -82t85.5 -210zM129 351q0 -100 66.5 -162.5t193.5 -63.5v450q-127 -1 -193.5 -63t-66.5 -161zM460 125q127 1 193.5 63t66.5 161
q0 100 -66.5 162.5t-193.5 63.5v-450z" />
    <glyph glyph-name="uni0425" unicode="&#x425;" horiz-adv-x="617" 
d="M359 357l248 -357h-90l-123 179l-85 128h-2q-27 -47 -85 -129l-121 -178h-90l247 357l-232 343h89l139 -209q30 -43 54 -84h2q15 25 57 86l139 207h87z" />
    <glyph glyph-name="uni0426" unicode="&#x426;" horiz-adv-x="809" 
d="M675 72h100v-227h-76v155h-597v700h77v-628h419v628h77v-628z" />
    <glyph glyph-name="uni0427" unicode="&#x427;" horiz-adv-x="712" 
d="M534 0v187q0 93 3 127l-2 1q-76 -97 -214 -97q-121 0 -188 70.5t-67 196.5v215h76v-209q0 -203 191 -203q94 0 147.5 52t53.5 143v217h76v-700h-76z" />
    <glyph glyph-name="uni0428" unicode="&#x428;" horiz-adv-x="1147" 
d="M967 700h78v-700h-943v700h78v-628h355v628h78v-628h354v628z" />
    <glyph glyph-name="uni0429" unicode="&#x429;" horiz-adv-x="1178" 
d="M1045 72h100v-227h-77v155h-966v700h77v-628h356v628h77v-628h356v628h77v-628z" />
    <glyph glyph-name="uni042A" unicode="&#x42a;" horiz-adv-x="797" 
d="M477 456q124 0 190.5 -57.5t66.5 -164.5q0 -116 -66.5 -175t-190.5 -59h-273v628h-175v72h252v-244h196zM484 72q81 0 126.5 41.5t45.5 118.5q0 72 -45.5 112t-126.5 40h-203v-312h203z" />
    <glyph glyph-name="uni042B" unicode="&#x42b;" horiz-adv-x="940" 
d="M375 456q123 0 190 -58t67 -164q0 -116 -66.5 -175t-190.5 -59h-273v700h77v-244h196zM761 700h77v-700h-77v700zM382 72q80 0 126 41.5t46 118.5q0 72 -45.5 112t-126.5 40h-203v-312h203z" />
    <glyph glyph-name="uni042C" unicode="&#x42c;" horiz-adv-x="695" 
d="M375 456q123 0 190 -58t67 -164q0 -116 -66.5 -175t-190.5 -59h-273v700h77v-244h196zM382 72q80 0 126 41.5t46 118.5q0 72 -45.5 112t-126.5 40h-203v-312h203z" />
    <glyph glyph-name="uni042D" unicode="&#x42d;" horiz-adv-x="714" 
d="M298 713q159 0 260 -101.5t101 -260.5q0 -161 -102 -262.5t-266 -101.5q-149 0 -248 99l46 54q84 -82 208 -82q118 0 196 73.5t87 190.5h-359v69h358q-14 113 -91.5 182t-193.5 69q-113 0 -201 -83l-50 52q105 102 255 102z" />
    <glyph glyph-name="uni042E" unicode="&#x42e;" horiz-adv-x="1098" 
d="M694 714q153 0 251.5 -101.5t98.5 -261.5q0 -162 -98.5 -263.5t-252.5 -101.5q-147 0 -244 93.5t-105 243.5h-164v-323h-78v700h78v-307h165q14 144 110 232.5t239 88.5zM694 59q118 0 194 81.5t76 208.5q0 129 -76 210.5t-195 81.5q-118 0 -194.5 -81.5t-76.5 -208.5
q0 -129 76.5 -210.5t195.5 -81.5z" />
    <glyph glyph-name="uni042F" unicode="&#x42f;" horiz-adv-x="691" 
d="M313 700h276v-700h-78v254h-140l-223 -254h-99l227 256q-92 11 -146.5 70.5t-54.5 150.5q0 101 65 162t173 61zM153 477q0 -70 42 -111t119 -41h197v304h-197q-74 0 -117.5 -41.5t-43.5 -110.5z" />
    <glyph glyph-name="uni0430" unicode="&#x430;" horiz-adv-x="560" 
d="M251 502q108 0 171 -46t63 -144v-312h-66q0 66 2 98h-2q-24 -49 -76.5 -77.5t-114.5 -28.5q-82 0 -136.5 41.5t-54.5 116.5q0 76 57 118.5t143 42.5q100 0 174 -41v42q0 63 -44 94t-120 31q-72 0 -153 -35l-20 60q89 40 177 40zM240 55q69 0 118.5 41t54.5 110
q-73 44 -164 44q-61 0 -99.5 -26t-38.5 -72q0 -45 37.5 -71t91.5 -26z" />
    <glyph glyph-name="uni0431" unicode="&#x431;" horiz-adv-x="612" 
d="M307 -10q-120 0 -189 77t-69 212v41q0 166 71.5 253t226.5 109q64 9 98.5 18t75.5 29l27 -64q-74 -41 -187 -55q-122 -14 -177.5 -66.5t-65.5 -168.5l2 -1q64 109 204 109q110 0 176.5 -67t66.5 -177q0 -113 -71 -181t-189 -68zM311 58q81 0 131.5 49.5t50.5 129.5
q0 82 -50.5 131.5t-133.5 49.5t-133 -49t-50 -130q0 -82 51 -131.5t134 -49.5z" />
    <glyph glyph-name="uni0432" unicode="&#x432;" horiz-adv-x="532" 
d="M394 251q44 -12 68 -43.5t24 -71.5q0 -65 -42.5 -100.5t-121.5 -35.5h-240v494h240q68 0 108 -35t40 -96q0 -79 -76 -110v-2zM397 357q0 34 -23.5 54t-63.5 20h-157v-148h154q43 0 66.5 19.5t23.5 54.5zM314 63q49 0 74 21t25 57t-26.5 57.5t-75.5 21.5h-158v-157h161z
" />
    <glyph glyph-name="uni0433" unicode="&#x433;" horiz-adv-x="450" 
d="M82 0v494h326v-68h-252v-426h-74z" />
    <glyph glyph-name="uni0434" unicode="&#x434;" horiz-adv-x="603" 
d="M504 68h76v-203h-71v135h-416v-135h-71v203h53q26 29 40 65.5t20 105.5l21 255h348v-426zM208 233q-7 -106 -55 -169h277v364h-207z" />
    <glyph glyph-name="uni0435" unicode="&#x435;" horiz-adv-x="564" 
d="M528 259q0 -12 -2 -40h-407q5 -75 53.5 -119t123.5 -44q100 0 168 64l39 -50q-77 -80 -208 -80q-112 0 -181 71t-69 186q0 113 70 185t180 72q106 0 169.5 -64t63.5 -181zM292 438q-69 0 -115.5 -42t-56.5 -115h339q-3 76 -47 116.5t-120 40.5z" />
    <glyph glyph-name="uni0436" unicode="&#x436;" horiz-adv-x="715" 
d="M466 255l247 -255h-98l-153 157q-36 36 -68 75l-2 -1q1 -30 1 -95v-136h-72v135q0 63 2 96l-2 1q-36 -42 -69 -75l-154 -157h-96l246 254l-215 240h92l133 -146q11 -14 33 -38.5t30 -34.5l2 1q-2 34 -2 93v125h72v-125q0 -59 -2 -94l2 -1q40 49 63 75l133 145h91z" />
    <glyph glyph-name="uni0437" unicode="&#x437;" horiz-adv-x="471" 
d="M229 -14q-109 0 -197 61l32 58q85 -53 165 -53q56 0 89 23.5t33 64.5q0 38 -29 60.5t-76 22.5h-103v63h100q43 0 68 20.5t25 55.5q0 38 -29 59.5t-80 21.5q-70 0 -147 -51l-35 54q87 62 183 62q83 0 131.5 -38t48.5 -103q0 -81 -77 -112v-2q44 -16 68.5 -47.5t24.5 -71.5
q0 -69 -52.5 -108.5t-142.5 -39.5z" />
    <glyph glyph-name="uni0438" unicode="&#x438;" horiz-adv-x="609" 
d="M82 0v494h74v-260q0 -73 -2 -113l2 -1q20 25 67 84l244 290h59v-494h-74v265q0 69 2 108l-2 1q-38 -52 -74 -93l-234 -281h-62z" />
    <glyph glyph-name="uni0439" unicode="&#x439;" horiz-adv-x="609" 
d="M304 557q-111 0 -138 126l53 17q15 -82 85 -82q71 0 86 82l53 -17q-27 -126 -139 -126zM82 0v494h74v-260q0 -73 -2 -113l2 -1q20 25 67 84l244 290h59v-494h-74v265q0 69 2 108l-2 1q-38 -52 -74 -93l-234 -281h-62z" />
    <glyph glyph-name="uni043A" unicode="&#x43a;" horiz-adv-x="495" 
d="M225 254l268 -254h-99l-181 172q-33 31 -57 58l-2 -1q2 -23 2 -65v-164h-74v494h74v-155q0 -41 -2 -64l2 -1l56 61l157 159h93z" />
    <glyph glyph-name="uni043B" unicode="&#x43b;" horiz-adv-x="591" 
d="M161 494h348v-494h-74v426h-208l-14 -188q-9 -118 -42.5 -169.5t-115.5 -77.5l-18 64q56 20 77 57t28 129z" />
    <glyph glyph-name="uni043C" unicode="&#x43c;" horiz-adv-x="707" 
d="M82 0v494h78l143 -199q30 -42 51 -70h2q32 48 49 71l143 198h77v-494h-72v308q0 20 2 82l-1 1q-16 -24 -50 -70l-143 -197h-15l-143 198q-22 28 -49 68h-2q2 -32 2 -82v-308h-72z" />
    <glyph glyph-name="uni043D" unicode="&#x43d;" horiz-adv-x="609" 
d="M452 494h74v-494h-74v223h-296v-223h-74v494h74v-204h296v204z" />
    <glyph glyph-name="uni043E" unicode="&#x43e;" horiz-adv-x="603" 
d="M299 -10q-111 0 -182.5 71.5t-71.5 184.5q0 114 73 186t186 72q111 0 183 -71.5t72 -184.5q0 -114 -73.5 -186t-186.5 -72zM301 57q79 0 131.5 53.5t52.5 135.5q0 83 -52 136.5t-131 53.5t-131 -53t-52 -135q0 -83 52 -137t130 -54z" />
    <glyph glyph-name="uni043F" unicode="&#x43f;" horiz-adv-x="609" 
d="M82 494h444v-494h-74v426h-296v-426h-74v494z" />
    <glyph glyph-name="uni0440" unicode="&#x440;" horiz-adv-x="637" 
d="M82 -235v729h74q0 -29 -4 -101h2q17 46 70.5 78.5t123.5 32.5q107 0 176 -71.5t69 -185.5q0 -115 -69.5 -186t-176.5 -71q-69 0 -121 32t-71 78h-2q3 -42 3 -120v-215h-74zM336 58q81 0 132 52t51 136q0 85 -51 137.5t-130 52.5q-81 0 -131.5 -52t-50.5 -136
q0 -85 50.5 -137.5t129.5 -52.5z" />
    <glyph glyph-name="uni0441" unicode="&#x441;" horiz-adv-x="515" 
d="M301 -10q-109 0 -182.5 69.5t-73.5 186.5q0 118 73.5 188t185.5 70q100 0 170 -58l-38 -56q-58 47 -133 47q-79 0 -131.5 -51t-52.5 -138q0 -88 52.5 -139.5t129.5 -51.5q80 0 144 53l35 -58q-74 -62 -179 -62z" />
    <glyph glyph-name="uni0442" unicode="&#x442;" horiz-adv-x="497" 
d="M459 494v-67h-173v-427h-74v427h-174v67h421z" />
    <glyph glyph-name="uni0443" unicode="&#x443;" horiz-adv-x="544" 
d="M437 494h80l-249 -607q-27 -66 -62.5 -97t-85.5 -31q-49 0 -90 27l29 61q24 -18 57 -18q29 0 49 19.5t39 62.5l33 79l-211 504h80l98 -240q42 -104 71 -182h2q43 116 69 182z" />
    <glyph glyph-name="uni0444" unicode="&#x444;" horiz-adv-x="712" 
d="M393 497q122 0 198 -67.5t76 -181.5q0 -116 -75.5 -183t-197.5 -67h-1v-233h-74v233q-123 0 -198.5 66.5t-75.5 181.5q0 114 75 182.5t196 68.5h3v203h74v-203zM318 65h3v365h-3q-88 0 -143.5 -50.5t-55.5 -131.5q0 -84 55 -133.5t144 -49.5zM393 65q89 0 144.5 49
t55.5 132t-55.5 133.5t-143.5 50.5h-2v-365h1z" />
    <glyph glyph-name="uni0445" unicode="&#x445;" horiz-adv-x="488" 
d="M290 257l185 -257h-90l-62 90q-68 101 -78 118h-2q-16 -27 -79 -118l-62 -90h-89l183 256l-171 238h91l70 -104q38 -53 57 -85h2q20 34 57 86l70 103h89z" />
    <glyph glyph-name="uni0446" unicode="&#x446;" horiz-adv-x="626" 
d="M526 68h77v-203h-72v135h-449v494h74v-426h296v426h74v-426z" />
    <glyph glyph-name="uni0447" unicode="&#x447;" horiz-adv-x="547" 
d="M390 0v97q0 61 5 125l-3 1q-51 -78 -155 -78q-81 0 -131 53.5t-50 141.5v154h71v-145q0 -67 32 -101.5t94 -34.5q64 0 100.5 35.5t36.5 96.5v149h74v-494h-74z" />
    <glyph glyph-name="uni0448" unicode="&#x448;" horiz-adv-x="843" 
d="M686 494h74v-494h-678v494h74v-426h230v426h74v-426h226v426z" />
    <glyph glyph-name="uni0449" unicode="&#x449;" horiz-adv-x="860" 
d="M760 67h77v-202h-72v135h-683v494h74v-426h230v426h74v-426h226v426h74v-427z" />
    <glyph glyph-name="uni044A" unicode="&#x44a;" horiz-adv-x="597" 
d="M386 330q81 0 128 -43t47 -120q0 -84 -47 -125.5t-128 -41.5h-220v426h-144v68h218v-164h146zM378 67q52 0 81 24.5t29 73.5q0 98 -110 98h-140v-196h140z" />
    <glyph glyph-name="uni044B" unicode="&#x44b;" horiz-adv-x="753" 
d="M303 330q81 0 128 -43t47 -120q0 -84 -47 -125.5t-128 -41.5h-221v494h74v-164h147zM596 494h74v-494h-74v494zM295 67q52 0 81 24.5t29 73.5q0 98 -110 98h-140v-196h140z" />
    <glyph glyph-name="uni044C" unicode="&#x44c;" horiz-adv-x="514" 
d="M303 330q81 0 128 -43t47 -120q0 -84 -47 -125.5t-128 -41.5h-221v494h74v-164h147zM295 67q52 0 81 24.5t29 73.5q0 98 -110 98h-140v-196h140z" />
    <glyph glyph-name="uni044D" unicode="&#x44d;" horiz-adv-x="516" 
d="M214 504q110 0 183.5 -70t73.5 -187q0 -118 -73.5 -187.5t-183.5 -69.5q-103 0 -178 62l35 58q65 -53 143 -53q71 0 122.5 45t59.5 121h-236v64h234q-12 70 -62 109.5t-118 39.5q-78 0 -137 -46l-38 56q76 58 175 58z" />
    <glyph glyph-name="uni044E" unicode="&#x44e;" horiz-adv-x="813" 
d="M518 504q109 0 179.5 -71.5t70.5 -184.5q0 -115 -70 -186.5t-180 -71.5q-105 0 -172.5 64.5t-74.5 169.5h-115v-224h-74v494h74v-207h117q13 98 80 157.5t165 59.5zM518 57q76 0 126 54t50 135q0 82 -50 136.5t-126 54.5q-77 0 -126.5 -54t-49.5 -135q0 -83 49.5 -137
t126.5 -54z" />
    <glyph glyph-name="uni044F" unicode="&#x44f;" horiz-adv-x="525" 
d="M231 494h212v-494h-75v172h-100l-146 -172h-90l152 176q-62 12 -98 54t-36 102q0 75 48 118.5t133 43.5zM122 334q0 -45 29 -71t80 -26h138v192h-138q-51 0 -80 -26t-29 -69z" />
    <glyph glyph-name="uni0450" unicode="&#x450;" horiz-adv-x="564" 
d="M326 570h-69l-95 130h90zM528 259q0 -12 -2 -40h-407q5 -75 53.5 -119t123.5 -44q100 0 168 64l39 -50q-77 -80 -208 -80q-112 0 -181 71t-69 186q0 113 70 185t180 72q106 0 169.5 -64t63.5 -181zM292 438q-69 0 -115.5 -42t-56.5 -115h339q-3 76 -47 116.5t-120 40.5z
" />
    <glyph glyph-name="uni0451" unicode="&#x451;" horiz-adv-x="564" 
d="M196 591q-20 0 -34.5 13.5t-14.5 36.5t14.5 36.5t34.5 13.5q21 0 35.5 -13.5t14.5 -36.5t-14.5 -36.5t-35.5 -13.5zM393 591q-21 0 -35.5 13.5t-14.5 36.5t14.5 36.5t35.5 13.5t35.5 -13.5t14.5 -36.5t-14.5 -36.5t-35.5 -13.5zM528 259q0 -12 -2 -40h-407
q5 -75 53.5 -119t123.5 -44q100 0 168 64l39 -50q-77 -80 -208 -80q-112 0 -181 71t-69 186q0 113 70 185t180 72q106 0 169.5 -64t63.5 -181zM292 438q-69 0 -115.5 -42t-56.5 -115h339q-3 76 -47 116.5t-120 40.5z" />
    <glyph glyph-name="uni0452" unicode="&#x452;" horiz-adv-x="613" 
d="M333 502q99 0 152 -58.5t53 -166.5v-298q0 -92 -33 -136.5t-107 -44.5q-50 0 -97 27l24 59q37 -17 66 -17q43 0 58 26t15 86v297q0 76 -37.5 117.5t-108.5 41.5q-74 0 -120.5 -48.5t-46.5 -120.5v-266h-74v573h-64v54h64v73h74v-73h139v-54h-139v-64q0 -53 -5 -109l2 -1
q58 103 185 103z" />
    <glyph glyph-name="uni0453" unicode="&#x453;" horiz-adv-x="450" 
d="M204 570l74 130h90l-94 -130h-70zM82 0v494h326v-68h-252v-426h-74z" />
    <glyph glyph-name="uni0454" unicode="&#x454;" horiz-adv-x="517" 
d="M445 108l36 -58q-79 -60 -179 -60q-110 0 -183.5 69.5t-73.5 186.5q0 118 73.5 188t183.5 70q101 0 175 -58l-39 -55q-60 46 -136 46q-68 0 -118 -40.5t-62 -109.5h234v-64h-236q8 -77 59.5 -122t122.5 -45q80 0 143 52z" />
    <glyph glyph-name="uni0455" unicode="&#x455;" horiz-adv-x="490" 
d="M252 -13q-114 0 -213 66l33 57q90 -58 181 -58q54 0 87.5 23.5t33.5 60.5q0 36 -29.5 55t-101.5 30q-187 28 -187 141q0 62 53.5 101t138.5 39q99 0 178 -48l-26 -58q-76 43 -153 43q-55 0 -86.5 -20t-31.5 -55q0 -32 29 -51.5t93 -29.5q108 -17 152.5 -50.5t44.5 -97.5
q0 -66 -54 -107t-142 -41z" />
    <glyph glyph-name="uni0456" unicode="&#x456;" horiz-adv-x="239" 
d="M118 591q-23 0 -38 14.5t-15 37.5t15 38t38 15q24 0 39 -15t15 -38t-15 -37.5t-39 -14.5zM82 0v494h74v-494h-74z" />
    <glyph glyph-name="uni0457" unicode="&#x457;" horiz-adv-x="239" 
d="M37 591q-21 0 -34.5 14t-13.5 36t13.5 36t34.5 14q22 0 35.5 -14t13.5 -36t-13.5 -36t-35.5 -14zM201 591q-21 0 -35 14t-14 36t14 36t35 14q22 0 35.5 -14t13.5 -36t-13.5 -36t-35.5 -14zM82 0v494h74v-494h-74z" />
    <glyph glyph-name="uni0458" unicode="&#x458;" horiz-adv-x="239" 
d="M118 591q-23 0 -38 14.5t-15 37.5t15 38t38 15q24 0 39 -15t15 -38t-15 -37.5t-39 -14.5zM13 -249q-51 0 -97 29l27 57q32 -17 65 -17q41 0 57.5 24.5t16.5 84.5v565h74v-565q0 -92 -34.5 -135t-108.5 -43z" />
    <glyph glyph-name="uni0459" unicode="&#x459;" horiz-adv-x="869" 
d="M658 330q80 0 128 -44t48 -120q0 -83 -47.5 -124.5t-128.5 -41.5h-231v426h-200l-13 -188q-7 -87 -28 -137t-49 -70.5t-81 -39.5l-19 64q37 14 55 28.5t31.5 51.5t18.5 106l20 253h337v-164h159zM650 67q111 0 111 99q0 97 -111 97h-152v-196h152z" />
    <glyph glyph-name="uni045A" unicode="&#x45a;" horiz-adv-x="857" 
d="M646 315q81 0 128.5 -42t47.5 -114q0 -79 -47.5 -119t-128.5 -40h-211v246h-279v-246h-74v494h74v-180h279v180h74v-179h137zM638 66q52 0 81.5 24t29.5 67q0 45 -29 68t-82 23h-131v-182h131z" />
    <glyph glyph-name="uni045B" unicode="&#x45b;" horiz-adv-x="613" 
d="M330 502q101 0 154.5 -57.5t53.5 -163.5v-281h-74v275q0 76 -37.5 118t-109.5 42t-119 -48t-47 -120v-267h-74v573h-64v54h64v73h74v-73h139v-54h-139v-47q0 -71 -5 -126h2q23 44 72 73t110 29z" />
    <glyph glyph-name="uni045C" unicode="&#x45c;" horiz-adv-x="495" 
d="M365 700l-94 -130h-70l74 130h90zM225 254l268 -254h-99l-181 172q-33 31 -57 58l-2 -1q2 -23 2 -65v-164h-74v494h74v-155q0 -41 -2 -64l2 -1l56 61l157 159h93z" />
    <glyph glyph-name="uni045D" unicode="&#x45d;" horiz-adv-x="609" 
d="M336 570h-69l-95 130h90zM82 0v494h74v-260q0 -73 -2 -113l2 -1q20 25 67 84l244 290h59v-494h-74v265q0 69 2 108l-2 1q-38 -52 -74 -93l-234 -281h-62z" />
    <glyph glyph-name="uni045E" unicode="&#x45e;" horiz-adv-x="544" 
d="M270 557q-111 0 -138 126l53 17q15 -82 85 -82q71 0 86 82l53 -17q-27 -126 -139 -126zM437 494h80l-249 -607q-27 -66 -62.5 -97t-85.5 -31q-49 0 -90 27l29 61q24 -18 57 -18q29 0 49 19.5t39 62.5l33 79l-211 504h80l98 -240q42 -104 71 -182h2q43 116 69 182z" />
    <glyph glyph-name="uni045F" unicode="&#x45f;" horiz-adv-x="609" 
d="M526 494v-494h-186v-135h-71v135h-187v494h74v-427h296v427h74z" />
    <glyph glyph-name="uni0490" unicode="&#x490;" horiz-adv-x="548" 
d="M453 856h72v-227h-346v-629h-77v700h351v156z" />
    <glyph glyph-name="uni0491" unicode="&#x491;" horiz-adv-x="450" 
d="M341 608h67v-182h-252v-426h-74v494h259v114z" />
    <glyph glyph-name="uni04D4" unicode="&#x4d4;" horiz-adv-x="1007" 
d="M561 73h383v-73h-459v193h-285l-136 -193h-90l485 700h474v-72h-372v-238h351v-72h-351v-245zM244 263h241v289q0 27 2 57l-2 1q-2 -3 -10.5 -15.5t-18 -26t-18.5 -26.5z" />
    <glyph glyph-name="uni04D5" unicode="&#x4d5;" horiz-adv-x="915" 
d="M879 259q0 -11 -2 -41h-390q8 -73 53.5 -116t117.5 -43q88 0 154 58l42 -47q-36 -37 -89 -57.5t-109 -20.5q-66 0 -123.5 31t-87.5 86q-29 -56 -87.5 -86.5t-126.5 -30.5q-83 0 -138.5 41.5t-55.5 116.5q0 76 57 118.5t143 42.5q100 0 174 -40v41q0 63 -44 94t-120 31
q-85 0 -159 -36l-13 61q87 40 176 40q170 0 210 -109q29 53 82 82t115 29q98 0 159.5 -64.5t61.5 -180.5zM655 438q-67 0 -112.5 -42t-55.5 -115h321q-2 75 -43.5 116t-109.5 41zM240 55q67 0 117 41t57 109q-33 20 -79 32.5t-86 12.5q-61 0 -99.5 -26t-38.5 -72
q0 -45 37.5 -71t91.5 -26z" />
    <glyph glyph-name="Wgrave" unicode="&#x1e80;" horiz-adv-x="1085" 
d="M589 774h-69l-95 127h90zM267 0l-235 700h82l124 -384q17 -50 41 -126.5t29 -92.5h2q26 93 67 217l127 386h77l127 -386q40 -122 68 -217h1q31 103 69 219l126 384h81l-236 -700h-83l-105 324q-30 97 -86 266h-2q-45 -134 -87 -265l-105 -325h-82z" />
    <glyph glyph-name="wgrave" unicode="&#x1e81;" horiz-adv-x="826" 
d="M446 570h-69l-95 130h90zM204 0l-171 494h79l66 -204q39 -120 68 -214h2q32 110 67 213l68 205h64l67 -204q43 -134 66 -214h3q23 85 66 213l67 205h77l-170 -494h-84l-44 136q-54 165 -79 255h-2q-29 -95 -81 -255l-44 -136h-85z" />
    <glyph glyph-name="Wacute" unicode="&#x1e82;" horiz-adv-x="1085" 
d="M498 774l74 127h90l-95 -127h-69zM267 0l-235 700h82l124 -384q17 -50 41 -126.5t29 -92.5h2q26 93 67 217l127 386h77l127 -386q40 -122 68 -217h1q31 103 69 219l126 384h81l-236 -700h-83l-105 324q-30 97 -86 266h-2q-45 -134 -87 -265l-105 -325h-82z" />
    <glyph glyph-name="wacute" unicode="&#x1e83;" horiz-adv-x="826" 
d="M365 570l74 130h90l-94 -130h-70zM204 0l-171 494h79l66 -204q39 -120 68 -214h2q32 110 67 213l68 205h64l67 -204q43 -134 66 -214h3q23 85 66 213l67 205h77l-170 -494h-84l-44 136q-54 165 -79 255h-2q-29 -95 -81 -255l-44 -136h-85z" />
    <glyph glyph-name="Wdieresis" unicode="&#x1e84;" horiz-adv-x="1085" 
d="M439 792q-22 0 -38 14.5t-16 38.5q0 25 16 39t38 14t37.5 -14t15.5 -39q0 -24 -15.5 -38.5t-37.5 -14.5zM647 792q-22 0 -37.5 14.5t-15.5 38.5q0 25 15.5 39t37.5 14t38 -14t16 -39q0 -24 -16 -38.5t-38 -14.5zM267 0l-235 700h82l124 -384q17 -50 41 -126.5t29 -92.5h2
q26 93 67 217l127 386h77l127 -386q40 -122 68 -217h1q31 103 69 219l126 384h81l-236 -700h-83l-105 324q-30 97 -86 266h-2q-45 -134 -87 -265l-105 -325h-82z" />
    <glyph glyph-name="wdieresis" unicode="&#x1e85;" horiz-adv-x="826" 
d="M316 591q-20 0 -34.5 13.5t-14.5 36.5t14.5 36.5t34.5 13.5q21 0 35.5 -13.5t14.5 -36.5t-14.5 -36.5t-35.5 -13.5zM513 591q-21 0 -35.5 13.5t-14.5 36.5t14.5 36.5t35.5 13.5t35.5 -13.5t14.5 -36.5t-14.5 -36.5t-35.5 -13.5zM204 0l-171 494h79l66 -204
q39 -120 68 -214h2q32 110 67 213l68 205h64l67 -204q43 -134 66 -214h3q23 85 66 213l67 205h77l-170 -494h-84l-44 136q-54 165 -79 255h-2q-29 -95 -81 -255l-44 -136h-85z" />
    <glyph glyph-name="uni1E9E" unicode="&#x1e9e;" horiz-adv-x="725" 
d="M456 446q109 -2 171 -62t62 -165q0 -110 -69 -168.5t-198 -58.5q-78 0 -145 26l25 67q53 -21 114 -21q95 0 145.5 40.5t50.5 117.5q0 78 -50 116.5t-139 38.5h-49l-21 44l80 107q59 80 77 101l-1 2q-35 -3 -92 -3h-83q-79 0 -117.5 -37t-38.5 -121v-470h-76v471
q0 229 229 229h284v-46z" />
    <glyph glyph-name="Ygrave" unicode="&#x1ef2;" horiz-adv-x="663" 
d="M377 774h-69l-95 127h90zM641 700l-273 -413v-287h-77v285l-268 415h91l161 -258q53 -90 54 -91h2q16 29 57 93l160 256h93z" />
    <glyph glyph-name="ygrave" unicode="&#x1ef3;" horiz-adv-x="544" 
d="M302 570h-69l-95 130h90zM437 494h80l-249 -607q-27 -66 -62.5 -97t-85.5 -31q-49 0 -90 27l29 61q24 -18 57 -18q29 0 49 19.5t39 62.5l33 79l-211 504h80l98 -240q42 -104 71 -182h2q43 116 69 182z" />
    <glyph glyph-name="uni2009" unicode="&#x2009;" horiz-adv-x="191" 
 />
    <glyph glyph-name="uni200B" unicode="&#x200b;" horiz-adv-x="357" 
 />
    <glyph glyph-name="endash" unicode="&#x2013;" horiz-adv-x="606" 
d="M75 255v68h456v-68h-456z" />
    <glyph glyph-name="emdash" unicode="&#x2014;" horiz-adv-x="709" 
d="M75 255v68h559v-68h-559z" />
    <glyph glyph-name="quoteleft" unicode="&#x2018;" horiz-adv-x="225" 
d="M112 597q34 -8 34 -42q0 -20 -13.5 -33.5t-34.5 -13.5t-34 14t-13 38q0 52 54 153l39 -19q-25 -55 -32 -97z" />
    <glyph glyph-name="quoteright" unicode="&#x2019;" horiz-adv-x="222" 
d="M136 708q21 0 34 -14t13 -37q0 -51 -53 -154l-40 19q26 56 32 98q-34 7 -34 42q0 20 13.5 33t34.5 13z" />
    <glyph glyph-name="quotesinglbase" unicode="&#x201a;" horiz-adv-x="230" 
d="M124 91q23 0 36.5 -15t13.5 -40q0 -55 -57 -163l-42 20q26 56 34 104q-36 9 -36 45q0 21 14.5 35t36.5 14z" />
    <glyph glyph-name="quotedblleft" unicode="&#x201c;" horiz-adv-x="362" 
d="M112 597q34 -8 34 -42q0 -20 -13.5 -33.5t-34.5 -13.5t-34 14t-13 38q0 52 54 153l39 -19q-25 -55 -32 -97zM250 597q34 -9 34 -42q0 -20 -13.5 -33.5t-34.5 -13.5t-34 14t-13 38q0 52 54 153l39 -19q-25 -55 -32 -97z" />
    <glyph glyph-name="quotedblright" unicode="&#x201d;" horiz-adv-x="360" 
d="M136 708q21 0 34 -14t13 -37q0 -51 -53 -154l-40 19q26 56 32 98q-34 7 -34 42q0 20 13.5 33t34.5 13zM274 708q21 0 34 -14t13 -37q0 -52 -54 -154l-39 19q25 57 32 98q-34 8 -34 42q0 20 13.5 33t34.5 13z" />
    <glyph glyph-name="quotedblbase" unicode="&#x201e;" horiz-adv-x="376" 
d="M121 86q21 0 34 -14.5t13 -37.5q0 -52 -54 -154l-39 19q25 57 32 98q-34 9 -34 42q0 20 13.5 33.5t34.5 13.5zM259 86q21 0 34 -14.5t13 -37.5q0 -52 -54 -154l-39 19q25 57 32 98q-34 8 -34 42q0 20 13.5 33.5t34.5 13.5z" />
    <glyph glyph-name="dagger" unicode="&#x2020;" horiz-adv-x="565" 
d="M528 501v-67h-209v-560h-73v560h-209v67h209v199h73v-199h209z" />
    <glyph glyph-name="daggerdbl" unicode="&#x2021;" horiz-adv-x="619" 
d="M557 438h-209v-258h209v-67h-209v-243h-78v243h-209v67h209v258h-209v67h209v195h78v-195h209v-67z" />
    <glyph glyph-name="bullet" unicode="&#x2022;" horiz-adv-x="398" 
d="M199 197q-45 0 -74 28.5t-29 73.5t29 73t74 28t74.5 -28t29.5 -73t-29.5 -73.5t-74.5 -28.5z" />
    <glyph glyph-name="ellipsis" unicode="&#x2026;" horiz-adv-x="614" 
d="M124 -8q-22 0 -36 14t-14 36q0 21 14 35t36 14t36 -14t14 -35q0 -22 -14 -36t-36 -14zM308 -8q-22 0 -36 14t-14 36q0 21 14 35t36 14t36 -14t14 -35q0 -22 -14 -36t-36 -14zM490 -8q-22 0 -36 14t-14 36q0 21 14 35t36 14t36 -14t14 -35q0 -22 -14 -36t-36 -14z" />
    <glyph glyph-name="perthousand" unicode="&#x2030;" horiz-adv-x="1144" 
d="M195 407q-68 0 -111.5 42t-43.5 107q0 66 44 108t112 42t111 -42t43 -107q0 -66 -43.5 -108t-111.5 -42zM121 0l448 700h73l-448 -700h-73zM196 461q42 0 68 26.5t26 68.5q0 43 -26.5 69.5t-68.5 26.5t-68.5 -26.5t-26.5 -68.5q0 -43 27 -69.5t69 -26.5zM567 -6
q-67 0 -110.5 42t-43.5 107q0 67 44 109t112 42q67 0 110.5 -42t43.5 -107q0 -67 -43.5 -109t-112.5 -42zM948 -6q-67 0 -110.5 42t-43.5 107q0 67 44 109t112 42q67 0 110.5 -42t43.5 -107q0 -67 -43.5 -109t-112.5 -42zM569 48q42 0 68 26.5t26 68.5q0 43 -26.5 70
t-69.5 27q-41 0 -67.5 -26.5t-26.5 -68.5q0 -43 26.5 -70t69.5 -27zM950 48q42 0 68 26.5t26 68.5q0 43 -26.5 70t-69.5 27q-41 0 -67.5 -26.5t-26.5 -68.5q0 -43 26.5 -70t69.5 -27z" />
    <glyph glyph-name="minute" unicode="&#x2032;" horiz-adv-x="223" 
d="M64 498l25 202h79l-44 -202h-60z" />
    <glyph glyph-name="second" unicode="&#x2033;" horiz-adv-x="378" 
d="M64 498l25 202h79l-44 -202h-60zM219 498l25 202h79l-44 -202h-60z" />
    <glyph glyph-name="guilsinglleft" unicode="&#x2039;" horiz-adv-x="318" 
d="M266 517l-140 -220l140 -220h-80l-138 220l138 220h80z" />
    <glyph glyph-name="guilsinglright" unicode="&#x203a;" horiz-adv-x="343" 
d="M157 517l138 -220l-138 -220h-80l140 220l-140 220h80z" />
    <glyph glyph-name="uni203D" unicode="&#x203d;" horiz-adv-x="523" 
d="M237 708q107 0 168 -54.5t61 -151.5q0 -124 -124 -182q-54 -26 -74 -48.5t-20 -60.5v-40h-77l-3 346h76l-1 -166q22 14 49 27q49 24 73 54t24 76q0 62 -39.5 95.5t-111.5 33.5q-80 0 -181 -65l-35 61q97 75 215 75zM213 91q22 0 36 -14t14 -35q0 -22 -14 -36t-36 -14
t-36 14t-14 36q0 21 14 35t36 14z" />
    <glyph glyph-name="fraction" unicode="&#x2044;" horiz-adv-x="129" 
d="M-158 0l374 700h69l-375 -700h-68z" />
    <glyph glyph-name="uni2070" unicode="&#x2070;" horiz-adv-x="393" 
d="M195 448q-73 0 -109 52t-36 133q0 85 35.5 137t111.5 52q75 0 110 -52t35 -133q0 -85 -36 -137t-111 -52zM197 502q87 0 87 132q0 134 -89 134q-87 0 -87 -131q0 -135 89 -135z" />
    <glyph glyph-name="uni2074" unicode="&#x2074;" horiz-adv-x="363" 
d="M224 455v77h-193l-5 47l179 236h76v-231h42v-52h-42v-77h-57zM92 583q13 1 35 1h97v129q0 26 1 44h-2q-18 -26 -32 -44l-64 -84l-35 -44v-2z" />
    <glyph glyph-name="uni2075" unicode="&#x2075;" horiz-adv-x="363" 
d="M189 687q64 0 100.5 -31t36.5 -87q0 -59 -41 -90t-114 -31q-81 0 -141 39l28 46q55 -33 115 -33q95 0 95 69q0 29 -22.5 48t-63.5 19q-46 0 -74 -15l-54 12l9 182h244v-53h-194l-5 -91q40 16 81 16z" />
    <glyph glyph-name="uni2076" unicode="&#x2076;" horiz-adv-x="380" 
d="M200 686q57 0 91 -32t34 -84q0 -55 -38 -88.5t-99 -33.5q-70 0 -107 49.5t-37 134.5q0 87 37 138.5t112 51.5q63 0 113 -40l-30 -39q-33 26 -80 26q-95 0 -96 -127q36 44 100 44zM189 500q34 0 56.5 18.5t22.5 49.5t-21 48t-56 17q-38 0 -58.5 -19.5t-20.5 -46.5
q0 -31 20.5 -49t56.5 -18z" />
    <glyph glyph-name="uni2077" unicode="&#x2077;" horiz-adv-x="317" 
d="M277 815l4 -27l-158 -333h-66l148 306h-175v54h247z" />
    <glyph glyph-name="uni2078" unicode="&#x2078;" horiz-adv-x="389" 
d="M274 642q30 -10 48.5 -34t18.5 -55q0 -47 -40.5 -76t-106.5 -29t-106.5 29t-40.5 76q0 31 18.5 55t48.5 34q-56 22 -56 79q0 45 37.5 73t98.5 28q60 0 98 -28.5t38 -72.5q0 -57 -56 -79zM194 773q-35 0 -56.5 -15t-21.5 -40t22 -40t56 -15t56 15t22 40t-21.5 40t-56.5 15
zM194 497q40 0 64 16.5t24 43.5t-24.5 43.5t-63.5 16.5t-63.5 -16.5t-24.5 -43.5t24 -43.5t64 -16.5z" />
    <glyph glyph-name="uni2079" unicode="&#x2079;" horiz-adv-x="380" 
d="M192 822q70 0 107 -50t37 -135q0 -87 -37 -138t-112 -51q-63 0 -113 40l30 39q32 -27 80 -27q95 0 96 127q-36 -44 -100 -44q-57 0 -91 32t-34 84q0 56 38 89.5t99 33.5zM187 635q38 0 59.5 20.5t21.5 47.5q0 30 -20 48t-56 18t-58 -19.5t-22 -49.5q0 -31 20 -48t55 -17z
" />
    <glyph glyph-name="uni2080" unicode="&#x2080;" horiz-adv-x="393" 
d="M195 -93q-73 0 -109 52t-36 133q0 85 35.5 137t111.5 52q75 0 110 -52t35 -133q0 -85 -36 -137t-111 -52zM197 -39q87 0 87 132q0 134 -89 134q-87 0 -87 -131q0 -135 89 -135z" />
    <glyph glyph-name="uni2081" unicode="&#x2081;" horiz-adv-x="252" 
d="M157 280h3v-366h-58v295l-62 -19v57z" />
    <glyph glyph-name="uni2082" unicode="&#x2082;" horiz-adv-x="372" 
d="M106 -32h210v-54h-275q0 74 21 109t97 71q59 27 76 43.5t17 40.5q0 22 -19 36t-54 14q-48 0 -99 -35l-32 42q58 46 136 46q60 0 93.5 -28t33.5 -74q0 -42 -28 -72t-90 -58q-48 -21 -66.5 -39.5t-20.5 -41.5z" />
    <glyph glyph-name="uni2083" unicode="&#x2083;" horiz-adv-x="368" 
d="M265 101q61 -23 61 -82q0 -51 -39 -81.5t-107 -30.5q-76 0 -134 38l25 47q48 -30 109 -30q87 0 87 57q0 58 -83 58h-55v48h53q38 0 58.5 13.5t20.5 38.5q0 23 -21 37t-60 14q-58 0 -102 -25l-21 46q59 32 123 32q67 0 102 -27t35 -70q0 -60 -52 -83z" />
    <glyph glyph-name="uni2084" unicode="&#x2084;" horiz-adv-x="363" 
d="M224 -86v77h-193l-5 47l179 236h76v-231h42v-52h-42v-77h-57zM92 42q13 1 35 1h97v129q0 26 1 44h-2q-18 -26 -32 -44l-64 -84l-35 -44v-2z" />
    <glyph glyph-name="uni2085" unicode="&#x2085;" horiz-adv-x="363" 
d="M189 146q64 0 100.5 -31t36.5 -87q0 -59 -41 -90t-114 -31q-81 0 -141 39l28 46q55 -33 115 -33q95 0 95 69q0 29 -22.5 48t-63.5 19q-46 0 -74 -15l-54 12l9 182h244v-53h-194l-5 -91q40 16 81 16z" />
    <glyph glyph-name="uni2086" unicode="&#x2086;" horiz-adv-x="380" 
d="M200 145q57 0 91 -32t34 -84q0 -55 -38 -88.5t-99 -33.5q-70 0 -107 49.5t-37 134.5q0 87 37 138.5t112 51.5q63 0 113 -40l-30 -39q-33 26 -80 26q-95 0 -96 -127q36 44 100 44zM189 -41q34 0 56.5 18.5t22.5 49.5t-21 48t-56 17q-38 0 -58.5 -19.5t-20.5 -46.5
q0 -31 20.5 -49t56.5 -18z" />
    <glyph glyph-name="uni2087" unicode="&#x2087;" horiz-adv-x="317" 
d="M277 274l4 -27l-158 -333h-66l148 306h-175v54h247z" />
    <glyph glyph-name="uni2088" unicode="&#x2088;" horiz-adv-x="389" 
d="M274 101q30 -10 48.5 -34t18.5 -55q0 -47 -40.5 -76t-106.5 -29t-106.5 29t-40.5 76q0 31 18.5 55t48.5 34q-56 22 -56 79q0 45 37.5 73t98.5 28q60 0 98 -28.5t38 -72.5q0 -57 -56 -79zM194 232q-35 0 -56.5 -15t-21.5 -40t22 -40t56 -15t56 15t22 40t-21.5 40t-56.5 15
zM194 -44q40 0 64 16.5t24 43.5t-24.5 43.5t-63.5 16.5t-63.5 -16.5t-24.5 -43.5t24 -43.5t64 -16.5z" />
    <glyph glyph-name="uni2089" unicode="&#x2089;" horiz-adv-x="380" 
d="M192 281q70 0 107 -50t37 -135q0 -87 -37 -138t-112 -51q-63 0 -113 40l30 39q32 -27 80 -27q95 0 96 127q-36 -44 -100 -44q-57 0 -91 32t-34 84q0 56 38 89.5t99 33.5zM187 94q38 0 59.5 20.5t21.5 47.5q0 30 -20 48t-56 18t-58 -19.5t-22 -49.5q0 -31 20 -48t55 -17z
" />
    <glyph glyph-name="Euro" unicode="&#x20ac;" horiz-adv-x="623" 
d="M559 80l21 -70q-58 -21 -123 -21q-136 0 -226 69.5t-116 191.5h-92l14 62h69q-1 12 -1 36q0 23 1 34h-83l14 62h77q26 126 117 196t231 70q54 0 97 -13l-22 -70q-34 9 -75 9q-103 0 -173 -50.5t-94 -141.5h261l-14 -62h-258q-1 -11 -1 -34q0 -12 2 -36h238l-14 -62h-214
q25 -89 93 -138t169 -49q48 0 102 17z" />
    <glyph glyph-name="uni20B4" unicode="&#x20b4;" horiz-adv-x="663" 
d="M524 444h98v-59h-581v59h391q37 37 37 83q0 52 -42.5 83t-100.5 31q-94 0 -163 -55l-42 58q91 68 206 68q91 0 155.5 -51t64.5 -133q0 -47 -23 -84zM41 256v59h581v-59h-419q-23 -33 -23 -71q0 -56 45 -90.5t111 -34.5q108 0 211 79l44 -57q-117 -95 -254 -95
q-101 0 -168.5 53t-67.5 140q0 42 18 76h-78z" />
    <glyph glyph-name="uni20BA" unicode="&#x20ba;" horiz-adv-x="582" 
d="M480 265h78v-34q0 -107 -62 -169t-160 -62h-226v246l-87 -32v71l87 32v101l-87 -32v71l87 32v211h77v-183l240 88v-72l-240 -87v-101l240 88v-72l-240 -87v-200h137q71 0 113.5 40.5t42.5 118.5v32z" />
    <glyph glyph-name="uni20BD" unicode="&#x20bd;" horiz-adv-x="666" 
d="M397 700q107 0 170.5 -62.5t63.5 -163.5q0 -100 -63.5 -162t-170.5 -62h-218v-70h202v-66h-202v-114h-79v114h-77v66h77v70h-77v68h77v382h297zM393 318q75 0 117 41.5t42 112.5t-42 112.5t-117 41.5h-214v-308h214z" />
    <glyph glyph-name="uni2113" unicode="&#x2113;" horiz-adv-x="502" 
d="M309 63q52 0 104 21l21 -63q-65 -26 -130 -26q-95 0 -144.5 46t-49.5 136v18q-37 -7 -80 -12v70q32 3 80 13v276q0 79 44 123.5t122 44.5q80 0 123.5 -47t43.5 -132q0 -107 -68 -190t-191 -126v-23q0 -67 30 -98t95 -31zM184 535v-246q90 34 137.5 95.5t47.5 143.5
q0 113 -93 113q-92 0 -92 -106z" />
    <glyph glyph-name="uni2116" unicode="&#x2116;" horiz-adv-x="1085" 
d="M895 448q-59 0 -96.5 36t-37.5 93t37.5 93.5t96.5 36.5t96.5 -36.5t37.5 -93.5t-37.5 -93t-96.5 -36zM102 0v700h77l367 -504q41 -56 51 -72l2 1q-2 32 -2 58v517h77v-700h-76l-368 504q-41 56 -51 72l-2 -1q2 -32 2 -58v-517h-77zM895 500q35 0 57 21.5t22 55.5
t-22 55.5t-57 21.5q-34 0 -56 -21.5t-22 -55.5t22 -55.5t56 -21.5zM771 330v51h248v-51h-248z" />
    <glyph glyph-name="uni2117" unicode="&#x2117;" horiz-adv-x="839" 
d="M421 714q160 0 260 -101.5t100 -262.5t-100 -262.5t-260 -101.5t-261.5 102t-101.5 262t101.5 262t261.5 102zM421 47q132 0 213.5 84t81.5 219t-81.5 219t-213.5 84t-215 -84.5t-83 -218.5t83 -218.5t215 -84.5zM468 533q57 0 94 -36t37 -91q0 -56 -37 -91.5t-94 -35.5
h-109v-123h-62v377h171zM462 336q35 0 55 19t20 51t-20 50.5t-55 18.5h-103v-139h103z" />
    <glyph glyph-name="trademark" unicode="&#x2122;" horiz-adv-x="810" 
d="M67 650v50h271v-50h-107v-235h-57v235h-107zM671 700h52v-285h-57v196l-99 -126h-12l-99 127v-197h-56v285h54l108 -141z" />
    <glyph glyph-name="uni2126" unicode="&#x2126;" horiz-adv-x="828" 
d="M770 359q0 -94 -39 -170.5t-108 -119.5h123v-69h-255v71q90 23 146 102t56 182q0 126 -77.5 204.5t-202.5 78.5q-124 0 -201 -78.5t-77 -204.5q0 -103 56 -182t146 -102v-71h-254v69h122q-69 43 -108 119.5t-39 170.5q0 155 100 253.5t257 98.5q156 0 255.5 -98.5
t99.5 -253.5z" />
    <glyph glyph-name="estimated" unicode="&#x212e;" horiz-adv-x="643" 
d="M592 263h-402v-176q59 -47 141 -47q125 0 190 93l37 -29q-80 -111 -227 -111q-116 0 -192 78t-76 218q0 142 75.5 219.5t191.5 77.5q55 0 100.5 -14.5t83 -46t59 -87t21.5 -130.5q0 -13 -2 -45zM473 498q-52 41 -143 41q-84 0 -140 -47v-182h283v188z" />
    <glyph glyph-name="uni2150" unicode="&#x2150;" horiz-adv-x="727" 
d="M160 340h-58v295l-62 -19v57l117 33h3v-366zM498 700h69l-375 -700h-68zM688 360l4 -27l-158 -333h-66l148 306h-175v54h247z" />
    <glyph glyph-name="uni2151" unicode="&#x2151;" horiz-adv-x="791" 
d="M160 340h-58v295l-62 -19v57l117 33h3v-366zM498 700h69l-375 -700h-68zM603 367q70 0 107 -50t37 -135q0 -87 -37 -138t-112 -51q-63 0 -113 40l30 39q32 -27 80 -27q95 0 96 127q-36 -44 -100 -44q-57 0 -91 32t-34 84q0 56 38 89.5t99 33.5zM598 180q38 0 59.5 20.5
t21.5 47.5q0 30 -20 48t-56 18t-58 -19.5t-22 -49.5q0 -31 20 -48t55 -17z" />
    <glyph glyph-name="uni2153" unicode="&#x2153;" horiz-adv-x="779" 
d="M160 340h-58v295l-62 -19v57l117 33h3v-366zM498 700h69l-375 -700h-68zM676 187q61 -23 61 -82q0 -51 -39 -81.5t-107 -30.5q-76 0 -134 38l25 47q48 -30 109 -30q87 0 87 57q0 58 -83 58h-55v48h53q38 0 58.5 13.5t20.5 38.5q0 23 -21 37t-60 14q-58 0 -102 -25l-21 46
q59 32 123 32q67 0 102 -27t35 -70q0 -60 -52 -83z" />
    <glyph glyph-name="uni2154" unicode="&#x2154;" horiz-adv-x="869" 
d="M159 520q59 27 76 43.5t17 40.5q0 22 -19 36t-54 14q-48 0 -99 -35l-32 42q58 46 136 46q60 0 93.5 -28t33.5 -74q0 -42 -28 -72t-90 -58q-48 -21 -66.5 -39.5t-20.5 -41.5h210v-54h-275q0 74 21 109t97 71zM588 700h69l-375 -700h-68zM766 187q61 -23 61 -82
q0 -51 -39 -81.5t-107 -30.5q-76 0 -134 38l25 47q48 -30 109 -30q87 0 87 57q0 58 -83 58h-55v48h53q38 0 58.5 13.5t20.5 38.5q0 23 -21 37t-60 14q-58 0 -102 -25l-21 46q59 32 123 32q67 0 102 -27t35 -70q0 -60 -52 -83z" />
    <glyph glyph-name="uni2155" unicode="&#x2155;" horiz-adv-x="774" 
d="M160 340h-58v295l-62 -19v57l117 33h3v-366zM498 700h69l-375 -700h-68zM600 232q64 0 100.5 -31t36.5 -87q0 -59 -41 -90t-114 -31q-81 0 -141 39l28 46q55 -33 115 -33q95 0 95 69q0 29 -22.5 48t-63.5 19q-45 0 -74 -15l-54 12l9 182h244v-53h-194l-5 -91q40 16 81 16
z" />
    <glyph glyph-name="uni2156" unicode="&#x2156;" horiz-adv-x="864" 
d="M159 520q59 27 76 43.5t17 40.5q0 22 -19 36t-54 14q-48 0 -99 -35l-32 42q58 46 136 46q60 0 93.5 -28t33.5 -74q0 -42 -28 -72t-90 -58q-48 -21 -66.5 -39.5t-20.5 -41.5h210v-54h-275q0 74 21 109t97 71zM588 700h69l-375 -700h-68zM690 232q64 0 100.5 -31t36.5 -87
q0 -59 -41 -90t-114 -31q-81 0 -141 39l28 46q55 -33 115 -33q95 0 95 69q0 29 -22.5 48t-63.5 19q-45 0 -74 -15l-54 12l9 182h244v-53h-194l-5 -91q40 16 81 16z" />
    <glyph glyph-name="uni2157" unicode="&#x2157;" horiz-adv-x="860" 
d="M326 445q0 -51 -39 -81.5t-107 -30.5q-76 0 -134 38l25 47q48 -30 109 -30q87 0 87 57q0 58 -83 58h-55v48h53q38 0 58.5 13.5t20.5 38.5q0 23 -21 37t-60 14q-58 0 -102 -25l-21 46q59 32 123 32q67 0 102 -27t35 -70q0 -60 -52 -83q61 -23 61 -82zM584 700h69
l-375 -700h-68zM686 232q64 0 100.5 -31t36.5 -87q0 -59 -41 -90t-114 -31q-81 0 -141 39l28 46q55 -33 115 -33q95 0 95 69q0 29 -22.5 48t-63.5 19q-45 0 -74 -15l-54 12l9 182h244v-53h-194l-5 -91q40 16 81 16z" />
    <glyph glyph-name="uni2158" unicode="&#x2158;" horiz-adv-x="855" 
d="M224 340v77h-193l-5 47l179 236h76v-231h42v-52h-42v-77h-57zM579 700h69l-375 -700h-68zM127 469h97v129q0 26 1 44h-2q-18 -26 -32 -44l-64 -84l-35 -44v-2q13 1 35 1zM681 232q64 0 100.5 -31t36.5 -87q0 -59 -41 -90t-114 -31q-81 0 -141 39l28 46q55 -33 115 -33
q95 0 95 69q0 29 -22.5 48t-63.5 19q-46 0 -74 -15l-54 12l9 182h244v-53h-194l-5 -91q40 16 81 16z" />
    <glyph glyph-name="uni2159" unicode="&#x2159;" horiz-adv-x="791" 
d="M160 340h-58v295l-62 -19v57l117 33h3v-366zM498 700h69l-375 -700h-68zM611 231q57 0 91 -32t34 -84q0 -55 -38 -88.5t-99 -33.5q-70 0 -107 49.5t-37 134.5q0 87 37 138.5t112 51.5q63 0 113 -40l-30 -39q-32 26 -80 26q-95 0 -96 -127q36 44 100 44zM600 45
q34 0 56.5 18.5t22.5 49.5t-21 48t-56 17q-38 0 -58.5 -19.5t-20.5 -46.5q0 -31 20.5 -49t56.5 -18z" />
    <glyph glyph-name="uni215A" unicode="&#x215a;" horiz-adv-x="872" 
d="M326 454q0 -59 -41 -90t-114 -31q-81 0 -141 39l28 46q55 -33 115 -33q95 0 95 69q0 29 -22.5 48t-63.5 19q-46 0 -74 -15l-54 12l9 182h244v-53h-194l-5 -91q40 16 81 16q64 0 100.5 -31t36.5 -87zM579 700h69l-375 -700h-68zM692 231q57 0 91 -32t34 -84
q0 -55 -38 -88.5t-99 -33.5q-70 0 -107 49.5t-37 134.5q0 87 37 138.5t112 51.5q63 0 113 -40l-30 -39q-32 26 -80 26q-95 0 -96 -127q36 44 100 44zM681 45q34 0 56.5 18.5t22.5 49.5t-21 48t-56 17q-38 0 -58.5 -19.5t-20.5 -46.5q0 -31 20.5 -49t56.5 -18z" />
    <glyph glyph-name="oneeighth" unicode="&#x215b;" horiz-adv-x="799" 
d="M160 340h-58v295l-62 -19v57l117 33h3v-366zM498 700h69l-375 -700h-68zM685 187q30 -10 48.5 -34t18.5 -55q0 -47 -40.5 -76t-106.5 -29t-106.5 29t-40.5 76q0 31 18.5 55t48.5 34q-56 22 -56 79q0 45 37.5 73t98.5 28q60 0 98 -28.5t38 -72.5q0 -57 -56 -79zM605 318
q-35 0 -56.5 -15t-21.5 -40t22 -40t56 -15t56 15t22 40t-21.5 40t-56.5 15zM605 42q40 0 64 16.5t24 43.5t-24.5 43.5t-63.5 16.5t-63.5 -16.5t-24.5 -43.5t24 -43.5t64 -16.5z" />
    <glyph glyph-name="threeeighths" unicode="&#x215c;" horiz-adv-x="885" 
d="M326 445q0 -51 -39 -81.5t-107 -30.5q-76 0 -134 38l25 47q48 -30 109 -30q87 0 87 57q0 58 -83 58h-55v48h53q38 0 58.5 13.5t20.5 38.5q0 23 -21 37t-60 14q-58 0 -102 -25l-21 46q59 32 123 32q67 0 102 -27t35 -70q0 -60 -52 -83q61 -23 61 -82zM584 700h69
l-375 -700h-68zM771 187q30 -10 48.5 -34t18.5 -55q0 -47 -40.5 -76t-106.5 -29t-106.5 29t-40.5 76q0 31 18.5 55t48.5 34q-56 22 -56 79q0 45 37.5 73t98.5 28q60 0 98 -28.5t38 -72.5q0 -57 -56 -79zM691 318q-35 0 -56.5 -15t-21.5 -40t22 -40t56 -15t56 15t22 40
t-21.5 40t-56.5 15zM691 42q40 0 64 16.5t24 43.5t-24.5 43.5t-63.5 16.5t-63.5 -16.5t-24.5 -43.5t24 -43.5t64 -16.5z" />
    <glyph glyph-name="fiveeighths" unicode="&#x215d;" horiz-adv-x="880" 
d="M326 454q0 -59 -41 -90t-114 -31q-81 0 -141 39l28 46q55 -33 115 -33q95 0 95 69q0 29 -22.5 48t-63.5 19q-46 0 -74 -15l-54 12l9 182h244v-53h-194l-5 -91q40 16 81 16q64 0 100.5 -31t36.5 -87zM579 700h69l-375 -700h-68zM766 187q30 -10 48.5 -34t18.5 -55
q0 -47 -40.5 -76t-106.5 -29t-106.5 29t-40.5 76q0 31 18.5 55t48.5 34q-56 22 -56 79q0 45 37.5 73t98.5 28q60 0 98 -28.5t38 -72.5q0 -57 -56 -79zM686 318q-35 0 -56.5 -15t-21.5 -40t22 -40t56 -15t56 15t22 40t-21.5 40t-56.5 15zM686 42q40 0 64 16.5t24 43.5
t-24.5 43.5t-63.5 16.5t-63.5 -16.5t-24.5 -43.5t24 -43.5t64 -16.5z" />
    <glyph glyph-name="seveneighths" unicode="&#x215e;" horiz-adv-x="809" 
d="M277 700l4 -27l-158 -333h-66l148 306h-175v54h247zM508 700h69l-375 -700h-68zM695 187q30 -10 48.5 -34t18.5 -55q0 -47 -40.5 -76t-106.5 -29t-106.5 29t-40.5 76q0 31 18.5 55t48.5 34q-56 22 -56 79q0 45 37.5 73t98.5 28q60 0 98 -28.5t38 -72.5q0 -57 -56 -79z
M615 318q-35 0 -56.5 -15t-21.5 -40t22 -40t56 -15t56 15t22 40t-21.5 40t-56.5 15zM615 42q40 0 64 16.5t24 43.5t-24.5 43.5t-63.5 16.5t-63.5 -16.5t-24.5 -43.5t24 -43.5t64 -16.5z" />
    <glyph glyph-name="arrowleft" unicode="&#x2190;" horiz-adv-x="656" 
d="M581 361v-69h-404l137 -141l-46 -44l-220 220l220 219l46 -44l-137 -141h404z" />
    <glyph glyph-name="arrowup" unicode="&#x2191;" horiz-adv-x="511" 
d="M475 401l-44 -46l-140 137v-405h-70v405l-140 -137l-45 46l220 220z" />
    <glyph glyph-name="arrowright" unicode="&#x2192;" horiz-adv-x="656" 
d="M388 527l220 -219l-220 -220l-46 44l137 141h-404v69h404l-137 141z" />
    <glyph glyph-name="arrowdown" unicode="&#x2193;" horiz-adv-x="511" 
d="M431 353l44 -46l-219 -220l-220 220l45 46l140 -137v405h70v-405z" />
    <glyph glyph-name="uni2196" unicode="&#x2196;" horiz-adv-x="509" 
d="M464 154l-49 -50l-286 287l-2 -197l-64 1v311l310 -1l2 -63l-197 -2z" />
    <glyph glyph-name="uni2197" unicode="&#x2197;" horiz-adv-x="509" 
d="M135 505l311 1v-311l-64 -1l-2 196l-286 -286l-50 49l286 286l-196 3z" />
    <glyph glyph-name="uni2198" unicode="&#x2198;" horiz-adv-x="509" 
d="M382 476l64 -1v-311l-311 1l-1 63l197 2l-287 286l50 50l286 -287z" />
    <glyph glyph-name="uni2199" unicode="&#x2199;" horiz-adv-x="509" 
d="M464 517l-286 -286l197 -2l-2 -64h-310v310l64 1l2 -196l286 286z" />
    <glyph glyph-name="partialdiff" unicode="&#x2202;" horiz-adv-x="603" 
d="M298 -10q-118 0 -185.5 70.5t-67.5 179.5q0 104 67.5 175.5t178.5 71.5q54 0 98 -22t66 -55l1 1q-21 67 -99.5 134t-174.5 93l17 61q168 -46 260.5 -163t92.5 -287q0 -116 -69.5 -187.5t-184.5 -71.5zM298 56q83 0 131.5 53.5t48.5 130.5q0 78 -49 131t-131 53
t-130.5 -53t-48.5 -131q0 -79 48.5 -131.5t130.5 -52.5z" />
    <glyph glyph-name="emptyset" unicode="&#x2205;" horiz-adv-x="695" 
d="M533 536q55 -40 86 -103t31 -138q0 -131 -86 -217t-218 -86q-72 0 -134 28l-42 -68h-68l60 98q-55 40 -86 103t-31 138q0 131 85.5 217t217.5 86q73 0 135 -28l42 68h68zM119 295q0 -117 80 -184l246 395q-43 21 -99 21q-99 0 -163 -65.5t-64 -166.5zM348 59
q99 0 163.5 65.5t64.5 166.5q0 114 -81 184l-246 -395q43 -21 99 -21z" />
    <glyph glyph-name="uni2206" unicode="&#x2206;" horiz-adv-x="757" 
d="M418 700l319 -700h-717l319 700h79zM379 610l-243 -541h485z" />
    <glyph glyph-name="product" unicode="&#x220f;" horiz-adv-x="704" 
d="M102 -189v889h500v-889h-78v815h-345v-815h-77z" />
    <glyph glyph-name="summation" unicode="&#x2211;" horiz-adv-x="596" 
d="M157 74h379v-74h-492v43l239 318l-225 297v42h472v-72h-360l192 -253v-27z" />
    <glyph glyph-name="minus" unicode="&#x2212;" horiz-adv-x="530" 
d="M75 314v66h380v-66h-380z" />
    <glyph glyph-name="uni2215" unicode="&#x2215;" horiz-adv-x="434" 
d="M-6 0l375 700h70l-376 -700h-69z" />
    <glyph glyph-name="uni2219" unicode="&#x2219;" horiz-adv-x="250" 
d="M125 264q-22 0 -36 14t-14 36q0 21 14 35t36 14t36 -14t14 -35q0 -22 -14 -36t-36 -14z" />
    <glyph glyph-name="radical" unicode="&#x221a;" horiz-adv-x="631" 
d="M541 713l59 -14l-238 -699h-61l-167 353l-90 -40l-22 50l147 69l159 -347z" />
    <glyph glyph-name="infinity" unicode="&#x221e;" horiz-adv-x="823" 
d="M596 484q68 0 111.5 -45t43.5 -113t-43.5 -113t-111.5 -45q-57 0 -99 29.5t-85 83.5q-44 -54 -86 -83.5t-99 -29.5q-68 0 -111.5 45t-43.5 113t43.5 113t111.5 45q57 0 99 -29.5t86 -83.5q43 54 85 83.5t99 29.5zM228 226q42 0 75.5 25.5t72.5 74.5q-39 48 -72.5 73.5
t-75.5 25.5q-41 0 -67.5 -27.5t-26.5 -71.5t26.5 -72t67.5 -28zM595 226q41 0 67.5 28t26.5 72t-26.5 71.5t-67.5 27.5q-42 0 -75.5 -25.5t-72.5 -73.5q39 -49 72.5 -74.5t75.5 -25.5z" />
    <glyph glyph-name="integral" unicode="&#x222b;" horiz-adv-x="461" 
d="M114 -176q-54 0 -107 31l30 54q32 -20 68 -20q80 0 80 110v585q0 85 43 130t118 45q59 0 110 -37l-31 -54q-37 25 -76 25q-90 0 -90 -109v-585q0 -84 -37 -129.5t-108 -45.5z" />
    <glyph glyph-name="approxequal" unicode="&#x2248;" horiz-adv-x="599" 
d="M401 339q-41 0 -100.5 32.5t-87.5 32.5q-55 0 -86 -56l-52 29q19 41 53.5 64.5t76.5 23.5q41 0 100 -32t87 -32q49 0 77 51l51 -30q-41 -83 -119 -83zM401 159q-41 0 -100.5 32t-87.5 32q-55 0 -86 -55l-52 29q19 40 53.5 64t76.5 24q41 0 100 -32.5t87 -32.5q48 0 77 51
l51 -30q-40 -82 -119 -82z" />
    <glyph glyph-name="notequal" unicode="&#x2260;" horiz-adv-x="560" 
d="M485 385h-137l-84 -135h221v-69h-264l-52 -83l-37 23l37 60h-94v69h137l84 135h-221v69h264l52 83l37 -23l-37 -60h94v-69z" />
    <glyph glyph-name="lessequal" unicode="&#x2264;" horiz-adv-x="503" 
d="M408 259l-45 -55l-234 177v31l234 177l45 -54l-187 -138zM118 122h305v-68h-305v68z" />
    <glyph glyph-name="greaterequal" unicode="&#x2265;" horiz-adv-x="463" 
d="M140 204l-45 55l186 138l-186 138l45 54l234 -177v-31zM80 122h305v-68h-305v68z" />
    <glyph glyph-name="lozenge" unicode="&#x25ca;" horiz-adv-x="591" 
d="M326 700l217 -350l-217 -350h-62l-216 350l216 350h62zM296 76l168 274l-168 273l-169 -273z" />
    <glyph glyph-name="uniF8FF" unicode="&#xf8ff;" horiz-adv-x="1160" 
d="M81 306v144h-31v42h33v18q0 27 15 43t44 16h38v-42h-29q-20 0 -20 -19v-16h49v-42h-47v-144h-52zM1055 461q-22 0 -37 15t-15 38t15 38t37 15q23 0 38 -15.5t15 -37.5t-15 -37.5t-38 -15.5zM1055 473q18 0 30 12t12 29t-13 29t-29 12q-17 0 -29 -12t-12 -29t12 -29
t29 -12zM735 306q-31 0 -49.5 18t-18.5 50v79h-33v11l75 79h8v-49h53v-41h-50v-73q0 -28 28 -28h22v-46h-35zM1035 487v54h23q21 0 21 -18q0 -13 -12 -15l14 -21h-14l-12 19h-6v-19h-14zM1049 516h9q7 0 7 7t-7 7h-9v-14zM296 301q-44 0 -73.5 28t-29.5 71t29.5 72t73.5 29
q43 0 72 -29t29 -72t-29 -71t-72 -28zM434 306v188h35l9 -22q25 27 62 27q32 0 51 -21.5t19 -57.5v-114h-51v107q0 42 -33 42q-19 0 -30 -14t-11 -37v-98h-51zM296 349q21 0 35.5 14t14.5 37t-14.5 38t-35.5 15q-23 0 -37 -15t-14 -38t14 -37t37 -14zM81 0v145h-31v42h33v18
q0 27 15 43t44 16h38v-42h-29q-20 0 -20 -20v-15h49v-42h-47v-145h-52zM827 216v46h51v-46h-51zM548 -4q-31 0 -59 20l-4 -16h-40v257h53v-79q21 18 50 18q43 0 71 -29t28 -72t-28 -71t-71 -28zM291 -4q-43 0 -70.5 28t-27.5 71t28 72t70 29q38 0 62 -24l7 17h37v-189h-40
l-4 18q-25 -22 -62 -22zM1014 -4q-43 0 -72 29t-29 70q0 43 29 72t72 29q36 0 63 -22t33 -57h-50q-14 30 -46 30q-22 0 -35.5 -14.5t-13.5 -37.5q0 -22 14.5 -36.5t34.5 -14.5q32 0 46 31h50q-6 -35 -33 -57t-63 -22zM684 0v189h33l9 -22q20 24 55 24h15v-48h-22
q-21 0 -30 -10.5t-9 -33.5v-99h-51zM827 0v189h51v-189h-51zM296 44q23 0 38 14.5t15 36.5q0 23 -15 37.5t-38 14.5q-22 0 -36.5 -14.5t-14.5 -37.5q0 -22 14.5 -36.5t36.5 -14.5zM544 44q23 0 38 14.5t15 36.5q0 23 -15 37.5t-38 14.5q-22 0 -36.5 -14.5t-14.5 -37.5
q0 -22 14.5 -36.5t36.5 -14.5z" />
    <glyph glyph-name="uni00A40301" horiz-adv-x="476" 
d="M299 774l74 127h90l-95 -127h-69zM156 -12q-86 0 -159 44l34 61q57 -33 122 -33q153 0 153 187v453h77v-454q0 -127 -58.5 -192.5t-168.5 -65.5z" />
    <glyph glyph-name="Q.ss02" horiz-adv-x="820" 
d="M789 10l-52 -54l-104 102q-94 -72 -225 -72q-156 0 -255 101.5t-99 261.5q0 162 99.5 263.5t258.5 101.5q156 0 254.5 -101.5t98.5 -261.5q0 -143 -79 -241zM133 351q0 -130 77 -211t199 -81q97 0 170 54l-122 119l49 50l122 -119q58 77 58 186q0 130 -77 211t-199 81
t-199.5 -81t-77.5 -209z" />
    <glyph glyph-name="i.loclTRK" horiz-adv-x="239" 
d="M119 591q-22 0 -36.5 14t-14.5 35q0 22 14.5 36t36.5 14t36.5 -14t14.5 -36q0 -21 -14.5 -35t-36.5 -14zM82 0v494h74v-494h-74z" />
    <glyph glyph-name="uni006A0301" horiz-adv-x="239" 
d="M75 570l54 130h91l-76 -130h-69zM13 -249q-51 0 -97 29l27 57q32 -17 65 -17q41 0 57.5 24.5t16.5 84.5v565h74v-565q0 -92 -34.5 -135t-108.5 -43z" />
    <glyph glyph-name="germandbls.calt" horiz-adv-x="761" 
d="M456 446q109 -2 171 -62t62 -165q0 -110 -69 -168.5t-198 -58.5q-78 0 -145 26l25 67q53 -21 114 -21q95 0 145.5 40.5t50.5 117.5q0 78 -50 116.5t-139 38.5h-49l-21 44l80 107q59 80 77 101l-1 2q-35 -3 -92 -3h-83q-79 0 -117.5 -37t-38.5 -121v-470h-76v471
q0 229 229 229h284v-46z" />
    <glyph glyph-name="a.ss01" horiz-adv-x="560" 
d="M251 502q108 0 171 -46t63 -144v-312h-66q0 66 2 98h-2q-24 -49 -76.5 -77.5t-114.5 -28.5q-82 0 -136.5 41.5t-54.5 116.5q0 76 57 118.5t143 42.5q100 0 174 -41v42q0 63 -44 94t-120 31q-72 0 -153 -35l-20 60q89 40 177 40zM240 55q69 0 118.5 41t54.5 110
q-73 44 -164 44q-61 0 -99.5 -26t-38.5 -72q0 -45 37.5 -71t91.5 -26z" />
    <glyph glyph-name="aacute.ss01" horiz-adv-x="560" 
d="M386 700l-94 -130h-70l74 130h90zM251 502q108 0 171 -46t63 -144v-312h-66q0 66 2 98h-2q-24 -49 -76.5 -77.5t-114.5 -28.5q-82 0 -136.5 41.5t-54.5 116.5q0 76 57 118.5t143 42.5q100 0 174 -41v42q0 63 -44 94t-120 31q-72 0 -153 -35l-20 60q89 40 177 40zM240 55
q69 0 118.5 41t54.5 110q-73 44 -164 44q-61 0 -99.5 -26t-38.5 -72q0 -45 37.5 -71t91.5 -26z" />
    <glyph glyph-name="abreve.ss01" horiz-adv-x="560" 
d="M273 577q-60 0 -97 34t-37 89h60q0 -30 20.5 -48.5t53.5 -18.5q32 0 52.5 18.5t20.5 48.5h61q0 -55 -37.5 -89t-96.5 -34zM251 502q108 0 171 -46t63 -144v-312h-66q0 66 2 98h-2q-24 -49 -76.5 -77.5t-114.5 -28.5q-82 0 -136.5 41.5t-54.5 116.5q0 76 57 118.5
t143 42.5q100 0 174 -41v42q0 63 -44 94t-120 31q-72 0 -153 -35l-20 60q89 40 177 40zM240 55q69 0 118.5 41t54.5 110q-73 44 -164 44q-61 0 -99.5 -26t-38.5 -72q0 -45 37.5 -71t91.5 -26z" />
    <glyph glyph-name="acircumflex.ss01" horiz-adv-x="560" 
d="M272 644l-80 -74h-79l135 130h49l135 -130h-79zM251 502q108 0 171 -46t63 -144v-312h-66q0 66 2 98h-2q-24 -49 -76.5 -77.5t-114.5 -28.5q-82 0 -136.5 41.5t-54.5 116.5q0 76 57 118.5t143 42.5q100 0 174 -41v42q0 63 -44 94t-120 31q-72 0 -153 -35l-20 60
q89 40 177 40zM240 55q69 0 118.5 41t54.5 110q-73 44 -164 44q-61 0 -99.5 -26t-38.5 -72q0 -45 37.5 -71t91.5 -26z" />
    <glyph glyph-name="adieresis.ss01" horiz-adv-x="560" 
d="M174 591q-20 0 -34.5 13.5t-14.5 36.5t14.5 36.5t34.5 13.5q21 0 35.5 -13.5t14.5 -36.5t-14.5 -36.5t-35.5 -13.5zM371 591q-21 0 -35.5 13.5t-14.5 36.5t14.5 36.5t35.5 13.5t35.5 -13.5t14.5 -36.5t-14.5 -36.5t-35.5 -13.5zM251 502q108 0 171 -46t63 -144v-312h-66
q0 66 2 98h-2q-24 -49 -76.5 -77.5t-114.5 -28.5q-82 0 -136.5 41.5t-54.5 116.5q0 76 57 118.5t143 42.5q100 0 174 -41v42q0 63 -44 94t-120 31q-72 0 -153 -35l-20 60q89 40 177 40zM240 55q69 0 118.5 41t54.5 110q-73 44 -164 44q-61 0 -99.5 -26t-38.5 -72
q0 -45 37.5 -71t91.5 -26z" />
    <glyph glyph-name="agrave.ss01" horiz-adv-x="560" 
d="M304 570h-69l-95 130h90zM251 502q108 0 171 -46t63 -144v-312h-66q0 66 2 98h-2q-24 -49 -76.5 -77.5t-114.5 -28.5q-82 0 -136.5 41.5t-54.5 116.5q0 76 57 118.5t143 42.5q100 0 174 -41v42q0 63 -44 94t-120 31q-72 0 -153 -35l-20 60q89 40 177 40zM240 55
q69 0 118.5 41t54.5 110q-73 44 -164 44q-61 0 -99.5 -26t-38.5 -72q0 -45 37.5 -71t91.5 -26z" />
    <glyph glyph-name="amacron.ss01" horiz-adv-x="560" 
d="M410 653v-59h-274v59h274zM251 502q108 0 171 -46t63 -144v-312h-66q0 66 2 98h-2q-24 -49 -76.5 -77.5t-114.5 -28.5q-82 0 -136.5 41.5t-54.5 116.5q0 76 57 118.5t143 42.5q100 0 174 -41v42q0 63 -44 94t-120 31q-72 0 -153 -35l-20 60q89 40 177 40zM240 55
q69 0 118.5 41t54.5 110q-73 44 -164 44q-61 0 -99.5 -26t-38.5 -72q0 -45 37.5 -71t91.5 -26z" />
    <glyph glyph-name="aogonek.ss01" horiz-adv-x="560" 
d="M509 -101l32 -40q-49 -43 -113 -43q-44 0 -70 23t-26 62q0 69 87 114q0 56 2 83h-2q-24 -49 -76.5 -77.5t-114.5 -28.5q-82 0 -136.5 41.5t-54.5 116.5q0 76 57 118.5t143 42.5q100 0 174 -41v42q0 63 -44 94t-120 31q-72 0 -153 -35l-20 60q89 40 177 40q108 0 171 -46
t63 -144v-312q-48 -22 -68.5 -41.5t-20.5 -43.5q0 -40 48 -40q35 0 65 24zM240 55q69 0 118.5 41t54.5 110q-73 44 -164 44q-61 0 -99.5 -26t-38.5 -72q0 -45 37.5 -71t91.5 -26z" />
    <glyph glyph-name="aring.ss01" horiz-adv-x="560" 
d="M272 540q-50 0 -82 30.5t-32 76.5t32.5 76t81.5 30t81 -30t32 -76q0 -47 -32 -77t-81 -30zM272 704q-27 0 -43.5 -15.5t-16.5 -41.5t16.5 -42t43.5 -16q26 0 43 16.5t17 41.5t-17 41t-43 16zM251 502q108 0 171 -46t63 -144v-312h-66q0 66 2 98h-2q-24 -49 -76.5 -77.5
t-114.5 -28.5q-82 0 -136.5 41.5t-54.5 116.5q0 76 57 118.5t143 42.5q100 0 174 -41v42q0 63 -44 94t-120 31q-72 0 -153 -35l-20 60q89 40 177 40zM240 55q69 0 118.5 41t54.5 110q-73 44 -164 44q-61 0 -99.5 -26t-38.5 -72q0 -45 37.5 -71t91.5 -26z" />
    <glyph glyph-name="atilde.ss01" horiz-adv-x="560" 
d="M217 636q-28 0 -41 -35l-45 23q21 72 80 72q24 0 66 -23q34 -18 51 -18q28 0 38 34l48 -19q-7 -38 -29 -56.5t-50 -18.5t-66 22q-33 19 -52 19zM251 502q108 0 171 -46t63 -144v-312h-66q0 66 2 98h-2q-24 -49 -76.5 -77.5t-114.5 -28.5q-82 0 -136.5 41.5t-54.5 116.5
q0 76 57 118.5t143 42.5q100 0 174 -41v42q0 63 -44 94t-120 31q-72 0 -153 -35l-20 60q89 40 177 40zM240 55q69 0 118.5 41t54.5 110q-73 44 -164 44q-61 0 -99.5 -26t-38.5 -72q0 -45 37.5 -71t91.5 -26z" />
    <glyph glyph-name="ae.ss01" horiz-adv-x="915" 
d="M879 259q0 -11 -2 -41h-390q8 -73 53.5 -116t117.5 -43q88 0 154 58l42 -47q-36 -37 -89 -57.5t-109 -20.5q-66 0 -123.5 31t-87.5 86q-29 -56 -87.5 -86.5t-126.5 -30.5q-83 0 -138.5 41.5t-55.5 116.5q0 76 57 118.5t143 42.5q100 0 174 -40v41q0 63 -44 94t-120 31
q-85 0 -159 -36l-13 61q87 40 176 40q170 0 210 -109q29 53 82 82t115 29q98 0 159.5 -64.5t61.5 -180.5zM655 438q-67 0 -112.5 -42t-55.5 -115h321q-2 75 -43.5 116t-109.5 41zM240 55q67 0 117 41t57 109q-33 20 -79 32.5t-86 12.5q-61 0 -99.5 -26t-38.5 -72
q0 -45 37.5 -71t91.5 -26z" />
    <glyph glyph-name="aeacute.ss01" horiz-adv-x="915" 
d="M572 700l-94 -130h-70l74 130h90zM879 259q0 -11 -2 -41h-390q8 -73 53.5 -116t117.5 -43q88 0 154 58l42 -47q-36 -37 -89 -57.5t-109 -20.5q-66 0 -123.5 31t-87.5 86q-29 -56 -87.5 -86.5t-126.5 -30.5q-83 0 -138.5 41.5t-55.5 116.5q0 76 57 118.5t143 42.5
q100 0 174 -40v41q0 63 -44 94t-120 31q-85 0 -159 -36l-13 61q87 40 176 40q170 0 210 -109q29 53 82 82t115 29q98 0 159.5 -64.5t61.5 -180.5zM655 438q-67 0 -112.5 -42t-55.5 -115h321q-2 75 -43.5 116t-109.5 41zM240 55q67 0 117 41t57 109q-33 20 -79 32.5t-86 12.5
q-61 0 -99.5 -26t-38.5 -72q0 -45 37.5 -71t91.5 -26z" />
    <glyph glyph-name="g.ss01" horiz-adv-x="637" 
d="M309 -248q-127 0 -228 58l29 62q103 -51 198 -51q78 0 123.5 41.5t47.5 115.5q3 88 5 122h-2q-20 -48 -71.5 -78.5t-118.5 -30.5q-109 0 -178 71.5t-69 183.5q0 114 68.5 186t177.5 72q68 0 121 -31.5t72 -80.5h2q-2 34 -2 102h70v-501q0 -113 -65 -177t-180 -64zM300 59
q82 0 131.5 52t49.5 137q0 84 -50.5 136t-130.5 52t-130.5 -52.5t-50.5 -135.5t50.5 -136t130.5 -53z" />
    <glyph glyph-name="gbreve.ss01" horiz-adv-x="637" 
d="M308 577q-60 0 -97 34t-37 89h60q0 -30 20.5 -48.5t53.5 -18.5q32 0 52.5 18.5t20.5 48.5h61q0 -55 -37.5 -89t-96.5 -34zM309 -248q-127 0 -228 58l29 62q103 -51 198 -51q78 0 123.5 41.5t47.5 115.5q3 88 5 122h-2q-20 -48 -71.5 -78.5t-118.5 -30.5q-109 0 -178 71.5
t-69 183.5q0 114 68.5 186t177.5 72q68 0 121 -31.5t72 -80.5h2q-2 34 -2 102h70v-501q0 -113 -65 -177t-180 -64zM300 59q82 0 131.5 52t49.5 137q0 84 -50.5 136t-130.5 52t-130.5 -52.5t-50.5 -135.5t50.5 -136t130.5 -53z" />
    <glyph glyph-name="gcircumflex.ss01" horiz-adv-x="637" 
d="M467 570h-79l-81 74l-80 -74h-79l135 130h49zM309 -248q-127 0 -228 58l29 62q103 -51 198 -51q78 0 123.5 41.5t47.5 115.5q3 88 5 122h-2q-20 -48 -71.5 -78.5t-118.5 -30.5q-109 0 -178 71.5t-69 183.5q0 114 68.5 186t177.5 72q68 0 121 -31.5t72 -80.5h2
q-2 34 -2 102h70v-501q0 -113 -65 -177t-180 -64zM300 59q82 0 131.5 52t49.5 137q0 84 -50.5 136t-130.5 52t-130.5 -52.5t-50.5 -135.5t50.5 -136t130.5 -53z" />
    <glyph glyph-name="uni0123.ss01" horiz-adv-x="637" 
d="M304 564q-20 0 -32 13t-12 35q0 24 14.5 62.5t33.5 68.5l38 -17q-20 -39 -27 -82q31 -8 31 -38q0 -19 -12.5 -30.5t-33.5 -11.5zM309 -248q-127 0 -228 58l29 62q103 -51 198 -51q78 0 123.5 41.5t47.5 115.5q3 88 5 122h-2q-20 -48 -71.5 -78.5t-118.5 -30.5
q-109 0 -178 71.5t-69 183.5q0 114 68.5 186t177.5 72q68 0 121 -31.5t72 -80.5h2q-2 34 -2 102h70v-501q0 -113 -65 -177t-180 -64zM300 59q82 0 131.5 52t49.5 137q0 84 -50.5 136t-130.5 52t-130.5 -52.5t-50.5 -135.5t50.5 -136t130.5 -53z" />
    <glyph glyph-name="gdotaccent.ss01" horiz-adv-x="637" 
d="M307 591q-22 0 -36.5 14t-14.5 35q0 22 14.5 36t36.5 14t36.5 -14t14.5 -36q0 -21 -14.5 -35t-36.5 -14zM309 -248q-127 0 -228 58l29 62q103 -51 198 -51q78 0 123.5 41.5t47.5 115.5q3 88 5 122h-2q-20 -48 -71.5 -78.5t-118.5 -30.5q-109 0 -178 71.5t-69 183.5
q0 114 68.5 186t177.5 72q68 0 121 -31.5t72 -80.5h2q-2 34 -2 102h70v-501q0 -113 -65 -177t-180 -64zM300 59q82 0 131.5 52t49.5 137q0 84 -50.5 136t-130.5 52t-130.5 -52.5t-50.5 -135.5t50.5 -136t130.5 -53z" />
    <glyph glyph-name="y.ss01" horiz-adv-x="544" 
d="M437 494h80l-249 -607q-27 -66 -62.5 -97t-85.5 -31q-49 0 -90 27l29 61q24 -18 57 -18q29 0 49 19.5t39 62.5l33 79l-211 504h80l98 -240q42 -104 71 -182h2q43 116 69 182z" />
    <glyph glyph-name="yacute.ss01" horiz-adv-x="544" 
d="M384 700l-94 -130h-70l74 130h90zM437 494h80l-249 -607q-27 -66 -62.5 -97t-85.5 -31q-49 0 -90 27l29 61q24 -18 57 -18q29 0 49 19.5t39 62.5l33 79l-211 504h80l98 -240q42 -104 71 -182h2q43 116 69 182z" />
    <glyph glyph-name="ycircumflex.ss01" horiz-adv-x="544" 
d="M269 644l-80 -74h-79l135 130h49l135 -130h-79zM437 494h80l-249 -607q-27 -66 -62.5 -97t-85.5 -31q-49 0 -90 27l29 61q24 -18 57 -18q29 0 49 19.5t39 62.5l33 79l-211 504h80l98 -240q42 -104 71 -182h2q43 116 69 182z" />
    <glyph glyph-name="ydieresis.ss01" horiz-adv-x="544" 
d="M171 591q-20 0 -34.5 13.5t-14.5 36.5t14.5 36.5t34.5 13.5q21 0 35.5 -13.5t14.5 -36.5t-14.5 -36.5t-35.5 -13.5zM368 591q-21 0 -35.5 13.5t-14.5 36.5t14.5 36.5t35.5 13.5t35.5 -13.5t14.5 -36.5t-14.5 -36.5t-35.5 -13.5zM437 494h80l-249 -607q-27 -66 -62.5 -97
t-85.5 -31q-49 0 -90 27l29 61q24 -18 57 -18q29 0 49 19.5t39 62.5l33 79l-211 504h80l98 -240q42 -104 71 -182h2q43 116 69 182z" />
    <glyph glyph-name="ygrave.ss01" horiz-adv-x="544" 
d="M302 570h-69l-95 130h90zM437 494h80l-249 -607q-27 -66 -62.5 -97t-85.5 -31q-49 0 -90 27l29 61q24 -18 57 -18q29 0 49 19.5t39 62.5l33 79l-211 504h80l98 -240q42 -104 71 -182h2q43 116 69 182z" />
    <glyph glyph-name="f.ss02" horiz-adv-x="375" 
d="M296 648q-91 0 -91 -111v-43h157v-65h-157v-429h-74v429h-98v65h98v42q0 83 41.5 129.5t118.5 46.5q58 0 105 -26l-26 -55q-37 17 -74 17z" />
    <glyph glyph-name="g.ss02" horiz-adv-x="637" 
d="M309 -248q-127 0 -228 58l29 62q103 -51 198 -51q78 0 123.5 41.5t47.5 115.5q3 88 5 122h-2q-20 -48 -71.5 -78.5t-118.5 -30.5q-109 0 -178 71.5t-69 183.5q0 114 68.5 186t177.5 72q68 0 121 -31.5t72 -80.5h2q-2 34 -2 102h70v-501q0 -113 -65 -177t-180 -64zM300 59
q82 0 131.5 52t49.5 137q0 84 -50.5 136t-130.5 52t-130.5 -52.5t-50.5 -135.5t50.5 -136t130.5 -53z" />
    <glyph glyph-name="gbreve.ss02" horiz-adv-x="637" 
d="M308 577q-60 0 -97 34t-37 89h60q0 -30 20.5 -48.5t53.5 -18.5q32 0 52.5 18.5t20.5 48.5h61q0 -55 -37.5 -89t-96.5 -34zM309 -248q-127 0 -228 58l29 62q103 -51 198 -51q78 0 123.5 41.5t47.5 115.5q3 88 5 122h-2q-20 -48 -71.5 -78.5t-118.5 -30.5q-109 0 -178 71.5
t-69 183.5q0 114 68.5 186t177.5 72q68 0 121 -31.5t72 -80.5h2q-2 34 -2 102h70v-501q0 -113 -65 -177t-180 -64zM300 59q82 0 131.5 52t49.5 137q0 84 -50.5 136t-130.5 52t-130.5 -52.5t-50.5 -135.5t50.5 -136t130.5 -53z" />
    <glyph glyph-name="gcircumflex.ss02" horiz-adv-x="637" 
d="M467 570h-79l-81 74l-80 -74h-79l135 130h49zM309 -248q-127 0 -228 58l29 62q103 -51 198 -51q78 0 123.5 41.5t47.5 115.5q3 88 5 122h-2q-20 -48 -71.5 -78.5t-118.5 -30.5q-109 0 -178 71.5t-69 183.5q0 114 68.5 186t177.5 72q68 0 121 -31.5t72 -80.5h2
q-2 34 -2 102h70v-501q0 -113 -65 -177t-180 -64zM300 59q82 0 131.5 52t49.5 137q0 84 -50.5 136t-130.5 52t-130.5 -52.5t-50.5 -135.5t50.5 -136t130.5 -53z" />
    <glyph glyph-name="uni0123.ss02" horiz-adv-x="637" 
d="M304 564q-20 0 -32 13t-12 35q0 24 14.5 62.5t33.5 68.5l38 -17q-20 -39 -27 -82q31 -8 31 -38q0 -19 -12.5 -30.5t-33.5 -11.5zM309 -248q-127 0 -228 58l29 62q103 -51 198 -51q78 0 123.5 41.5t47.5 115.5q3 88 5 122h-2q-20 -48 -71.5 -78.5t-118.5 -30.5
q-109 0 -178 71.5t-69 183.5q0 114 68.5 186t177.5 72q68 0 121 -31.5t72 -80.5h2q-2 34 -2 102h70v-501q0 -113 -65 -177t-180 -64zM300 59q82 0 131.5 52t49.5 137q0 84 -50.5 136t-130.5 52t-130.5 -52.5t-50.5 -135.5t50.5 -136t130.5 -53z" />
    <glyph glyph-name="gdotaccent.ss02" horiz-adv-x="637" 
d="M307 591q-22 0 -36.5 14t-14.5 35q0 22 14.5 36t36.5 14t36.5 -14t14.5 -36q0 -21 -14.5 -35t-36.5 -14zM309 -248q-127 0 -228 58l29 62q103 -51 198 -51q78 0 123.5 41.5t47.5 115.5q3 88 5 122h-2q-20 -48 -71.5 -78.5t-118.5 -30.5q-109 0 -178 71.5t-69 183.5
q0 114 68.5 186t177.5 72q68 0 121 -31.5t72 -80.5h2q-2 34 -2 102h70v-501q0 -113 -65 -177t-180 -64zM300 59q82 0 131.5 52t49.5 137q0 84 -50.5 136t-130.5 52t-130.5 -52.5t-50.5 -135.5t50.5 -136t130.5 -53z" />
    <glyph glyph-name="ij.ss02" horiz-adv-x="478" 
d="M118 591q-23 0 -38 14.5t-15 37.5t15 38t38 15q24 0 39 -15t15 -38t-15 -37.5t-39 -14.5zM357 591q-23 0 -38 14.5t-15 37.5t15 38t38 15q24 0 39 -15t15 -38t-15 -37.5t-39 -14.5zM82 0v494h74v-494h-74zM252 -249q-51 0 -97 29l27 57q32 -17 65 -17q41 0 57.5 24.5
t16.5 84.5v565h74v-565q0 -92 -34.5 -135t-108.5 -43z" />
    <glyph glyph-name="j.ss02" horiz-adv-x="239" 
d="M119 591q-22 0 -36.5 14t-14.5 35q0 22 14.5 36t36.5 14t36.5 -14t14.5 -36q0 -21 -14.5 -35t-36.5 -14zM13 -249q-51 0 -97 29l27 57q32 -17 65 -17q41 0 57.5 24.5t16.5 84.5v565h74v-565q0 -92 -34.5 -135t-108.5 -43z" />
    <glyph glyph-name="uni0237.ss02" horiz-adv-x="239" 
d="M13 -249q-51 0 -97 29l27 57q32 -17 65 -17q41 0 57.5 24.5t16.5 84.5v565h74v-565q0 -92 -34.5 -135t-108.5 -43z" />
    <glyph glyph-name="uni006A0301.ss02" horiz-adv-x="239" 
d="M75 570l54 130h91l-76 -130h-69zM13 -249q-51 0 -97 29l27 57q32 -17 65 -17q41 0 57.5 24.5t16.5 84.5v565h74v-565q0 -92 -34.5 -135t-108.5 -43z" />
    <glyph glyph-name="jcircumflex.ss02" horiz-adv-x="239" 
d="M144 700l120 -130h-78l-66 71l-66 -71h-78l120 130h48zM82 -71v565h74v-565q0 -92 -34.5 -135t-108.5 -43q-51 0 -97 29l27 57q32 -17 65 -17q41 0 57.5 24.5t16.5 84.5z" />
    <glyph glyph-name="l.ss02" horiz-adv-x="310" 
d="M221 -12q-70 0 -104.5 39t-34.5 128v545h74v-541q0 -61 17 -82.5t59 -21.5q19 0 49 10l18 -62q-42 -15 -78 -15z" />
    <glyph glyph-name="lacute.ss02" horiz-adv-x="310" 
d="M74 774l74 127h90l-95 -127h-69zM221 -12q-70 0 -104.5 39t-34.5 128v545h74v-541q0 -61 17 -82.5t59 -21.5q19 0 49 10l18 -62q-42 -15 -78 -15z" />
    <glyph glyph-name="lcaron.ss02" horiz-adv-x="346" 
d="M221 -12q-70 0 -104.5 39t-34.5 128v545h74v-541q0 -61 17 -82.5t59 -21.5q19 0 49 10l18 -62q-42 -15 -78 -15zM200 533l40 167h70l-57 -167h-53z" />
    <glyph glyph-name="uni013C.ss02" horiz-adv-x="310" 
d="M221 -12q-70 0 -104.5 39t-34.5 128v545h74v-541q0 -61 17 -82.5t59 -21.5q19 0 49 10l18 -62q-42 -15 -78 -15zM208 -68q21 0 33 -12.5t12 -35.5q0 -53 -49 -131l-38 18q20 38 27 82q-31 7 -31 38q0 18 12.5 29.5t33.5 11.5z" />
    <glyph glyph-name="ldot.ss02" horiz-adv-x="392" 
d="M221 -12q-70 0 -104.5 39t-34.5 128v545h74v-541q0 -61 17 -82.5t59 -21.5q19 0 49 10l18 -62q-42 -15 -78 -15zM281 264q-22 0 -36 14t-14 35q0 22 14 36t36 14t36 -14t14 -36q0 -21 -14 -35t-36 -14z" />
    <glyph glyph-name="lslash.ss02" horiz-adv-x="327" 
d="M298 65l18 -62q-43 -15 -78 -15q-70 0 -105 39.5t-35 127.5v151l-73 -29v63l73 29v331h74v-301l94 38v-63l-94 -38v-177q0 -61 17 -82.5t59 -21.5q20 0 50 10z" />
    <glyph glyph-name="r.ss02" horiz-adv-x="395" 
d="M82 0v494h70q0 -64 -2 -95h2q17 43 59.5 73t99.5 30q35 0 68 -11l-21 -66q-21 8 -52 8q-65 0 -107.5 -49.5t-42.5 -126.5v-257h-74z" />
    <glyph glyph-name="racute.ss02" horiz-adv-x="395" 
d="M189 570l74 130h90l-94 -130h-70zM82 0v494h70q0 -64 -2 -95h2q17 43 59.5 73t99.5 30q35 0 68 -11l-21 -66q-21 8 -52 8q-65 0 -107.5 -49.5t-42.5 -126.5v-257h-74z" />
    <glyph glyph-name="rcaron.ss02" horiz-adv-x="395" 
d="M403 700l-135 -130h-48l-135 130h79l80 -74l81 74h78zM82 0v494h70q0 -64 -2 -95h2q17 43 59.5 73t99.5 30q35 0 68 -11l-21 -66q-21 8 -52 8q-65 0 -107.5 -49.5t-42.5 -126.5v-257h-74z" />
    <glyph glyph-name="uni0157.ss02" horiz-adv-x="395" 
d="M82 0v494h70q0 -64 -2 -95h2q17 43 59.5 73t99.5 30q35 0 68 -11l-21 -66q-21 8 -52 8q-65 0 -107.5 -49.5t-42.5 -126.5v-257h-74zM122 -68q21 0 33 -12.5t12 -35.5q0 -53 -49 -131l-38 18q20 38 27 82q-31 7 -31 38q0 18 12.5 29.5t33.5 11.5z" />
    <glyph glyph-name="t.ss02" horiz-adv-x="398" 
d="M364 77l24 -60q-56 -25 -105 -25q-147 0 -147 166v272h-101v64h101v138l73 7v-145h157v-64h-157v-271q0 -50 18 -75.5t64 -25.5q35 0 73 19z" />
    <glyph glyph-name="tbar.ss02" horiz-adv-x="398" 
d="M364 79l24 -62q-56 -25 -105 -25q-147 0 -147 166v82h-81v60h81v129h-101v65h101v138l73 7v-145h157v-65h-157v-129h117v-60h-117v-80q0 -50 18 -75.5t64 -25.5q36 0 73 20z" />
    <glyph glyph-name="tcaron.ss02" horiz-adv-x="431" 
d="M404 649h71l-58 -171h-55zM291 58q35 0 73 19l24 -60q-56 -25 -105 -25q-147 0 -147 166v272h-101v64h101v138l73 7v-145h117v-64h-117v-270q0 -51 18 -76.5t64 -25.5z" />
    <glyph glyph-name="uni0163.ss02" horiz-adv-x="398" 
d="M273 -46q45 0 72 -24.5t27 -64.5t-32.5 -66.5t-81.5 -26.5q-67 0 -113 44l30 38q35 -30 80 -30q26 0 43 12.5t17 32.5q0 44 -61 44q-20 0 -34 -6l-19 14l25 79q-90 27 -90 158v272h-101v64h101v138l73 7v-145h157v-64h-157v-271q0 -50 18 -75.5t64 -25.5q35 0 73 19
l24 -60q-56 -25 -105 -25h-4l-12 -38h6z" />
    <glyph glyph-name="uni021B.ss02" horiz-adv-x="398" 
d="M388 17q-56 -25 -105 -25q-147 0 -147 166v272h-101v64h101v138l73 7v-145h157v-64h-157v-271q0 -50 18 -75.5t64 -25.5q35 0 73 19zM262 -68q21 0 33 -12.5t12 -35.5q0 -53 -49 -131l-38 18q20 38 27 82q-31 7 -31 38q0 18 12.5 29.5t33.5 11.5z" />
    <glyph glyph-name="u.ss02" horiz-adv-x="613" 
d="M284 -8q-97 0 -153 61t-56 165v276h74v-274q0 -76 39 -118.5t109 -42.5t114.5 48t44.5 120v267h74v-494h-69q0 62 2 92h-3q-22 -47 -69 -73.5t-107 -26.5z" />
    <glyph glyph-name="uacute.ss02" horiz-adv-x="613" 
d="M253 570l74 130h90l-94 -130h-70zM284 -8q-97 0 -153 61t-56 165v276h74v-274q0 -76 39 -118.5t109 -42.5t114.5 48t44.5 120v267h74v-494h-69q0 62 2 92h-3q-22 -47 -69 -73.5t-107 -26.5z" />
    <glyph glyph-name="ubreve.ss02" horiz-adv-x="613" 
d="M304 577q-60 0 -97 34t-37 89h60q0 -30 20.5 -48.5t53.5 -18.5q32 0 52.5 18.5t20.5 48.5h61q0 -55 -37.5 -89t-96.5 -34zM284 -8q-97 0 -153 61t-56 165v276h74v-274q0 -76 39 -118.5t109 -42.5t114.5 48t44.5 120v267h74v-494h-69q0 62 2 92h-3q-22 -47 -69 -73.5
t-107 -26.5z" />
    <glyph glyph-name="ucircumflex.ss02" horiz-adv-x="613" 
d="M462 570h-79l-81 74l-80 -74h-79l135 130h49zM284 -8q-97 0 -153 61t-56 165v276h74v-274q0 -76 39 -118.5t109 -42.5t114.5 48t44.5 120v267h74v-494h-69q0 62 2 92h-3q-22 -47 -69 -73.5t-107 -26.5z" />
    <glyph glyph-name="udieresis.ss02" horiz-adv-x="613" 
d="M204 591q-20 0 -34.5 13.5t-14.5 36.5t14.5 36.5t34.5 13.5q21 0 35.5 -13.5t14.5 -36.5t-14.5 -36.5t-35.5 -13.5zM401 591q-21 0 -35.5 13.5t-14.5 36.5t14.5 36.5t35.5 13.5t35.5 -13.5t14.5 -36.5t-14.5 -36.5t-35.5 -13.5zM284 -8q-97 0 -153 61t-56 165v276h74
v-274q0 -76 39 -118.5t109 -42.5t114.5 48t44.5 120v267h74v-494h-69q0 62 2 92h-3q-22 -47 -69 -73.5t-107 -26.5z" />
    <glyph glyph-name="ugrave.ss02" horiz-adv-x="613" 
d="M334 570h-69l-95 130h90zM284 -8q-97 0 -153 61t-56 165v276h74v-274q0 -76 39 -118.5t109 -42.5t114.5 48t44.5 120v267h74v-494h-69q0 62 2 92h-3q-22 -47 -69 -73.5t-107 -26.5z" />
    <glyph glyph-name="uhungarumlaut.ss02" horiz-adv-x="613" 
d="M186 570l75 130h81l-91 -130h-65zM335 570l77 130h79l-91 -130h-65zM284 -8q-97 0 -153 61t-56 165v276h74v-274q0 -76 39 -118.5t109 -42.5t114.5 48t44.5 120v267h74v-494h-69q0 62 2 92h-3q-22 -47 -69 -73.5t-107 -26.5z" />
    <glyph glyph-name="umacron.ss02" horiz-adv-x="613" 
d="M166 594v59h274v-59h-274zM284 -8q-97 0 -153 61t-56 165v276h74v-274q0 -76 39 -118.5t109 -42.5t114.5 48t44.5 120v267h74v-494h-69q0 62 2 92h-3q-22 -47 -69 -73.5t-107 -26.5z" />
    <glyph glyph-name="uogonek.ss02" horiz-adv-x="613" 
d="M554 -101l32 -40q-49 -43 -113 -43q-44 0 -70 23t-26 62q0 67 84 113q0 53 2 78h-3q-22 -47 -69 -73.5t-107 -26.5q-97 0 -153 61t-56 165v276h74v-274q0 -76 39 -118.5t109 -42.5t114.5 48t44.5 120v267h74v-494q-48 -22 -68.5 -41.5t-20.5 -43.5q0 -40 48 -40
q35 0 65 24z" />
    <glyph glyph-name="uring.ss02" horiz-adv-x="613" 
d="M302 540q-50 0 -82 30.5t-32 76.5t32.5 76t81.5 30t81 -30t32 -76q0 -47 -32 -77t-81 -30zM302 589q26 0 43 16.5t17 41.5t-17 41t-43 16q-27 0 -43.5 -15.5t-16.5 -41.5t16.5 -42t43.5 -16zM284 -8q-97 0 -153 61t-56 165v276h74v-274q0 -76 39 -118.5t109 -42.5
t114.5 48t44.5 120v267h74v-494h-69q0 62 2 92h-3q-22 -47 -69 -73.5t-107 -26.5z" />
    <glyph glyph-name="utilde.ss02" horiz-adv-x="613" 
d="M365 595q-28 0 -66 22q-33 19 -52 19q-28 0 -41 -35l-45 23q21 72 80 72q24 0 66 -23q34 -18 51 -18q28 0 38 34l48 -19q-7 -38 -29 -56.5t-50 -18.5zM284 -8q-97 0 -153 61t-56 165v276h74v-274q0 -76 39 -118.5t109 -42.5t114.5 48t44.5 120v267h74v-494h-69q0 62 2 92
h-3q-22 -47 -69 -73.5t-107 -26.5z" />
    <glyph glyph-name="y.ss02" horiz-adv-x="544" 
d="M437 494h80l-249 -607q-27 -66 -62.5 -97t-85.5 -31q-49 0 -90 27l29 61q24 -18 57 -18q29 0 49 19.5t39 62.5l33 79l-211 504h80l98 -240q42 -104 71 -182h2q43 116 69 182z" />
    <glyph glyph-name="yacute.ss02" horiz-adv-x="544" 
d="M384 700l-94 -130h-70l74 130h90zM437 494h80l-249 -607q-27 -66 -62.5 -97t-85.5 -31q-49 0 -90 27l29 61q24 -18 57 -18q29 0 49 19.5t39 62.5l33 79l-211 504h80l98 -240q42 -104 71 -182h2q43 116 69 182z" />
    <glyph glyph-name="ycircumflex.ss02" horiz-adv-x="544" 
d="M269 644l-80 -74h-79l135 130h49l135 -130h-79zM437 494h80l-249 -607q-27 -66 -62.5 -97t-85.5 -31q-49 0 -90 27l29 61q24 -18 57 -18q29 0 49 19.5t39 62.5l33 79l-211 504h80l98 -240q42 -104 71 -182h2q43 116 69 182z" />
    <glyph glyph-name="ydieresis.ss02" horiz-adv-x="544" 
d="M171 591q-20 0 -34.5 13.5t-14.5 36.5t14.5 36.5t34.5 13.5q21 0 35.5 -13.5t14.5 -36.5t-14.5 -36.5t-35.5 -13.5zM368 591q-21 0 -35.5 13.5t-14.5 36.5t14.5 36.5t35.5 13.5t35.5 -13.5t14.5 -36.5t-14.5 -36.5t-35.5 -13.5zM437 494h80l-249 -607q-27 -66 -62.5 -97
t-85.5 -31q-49 0 -90 27l29 61q24 -18 57 -18q29 0 49 19.5t39 62.5l33 79l-211 504h80l98 -240q42 -104 71 -182h2q43 116 69 182z" />
    <glyph glyph-name="ygrave.ss02" horiz-adv-x="544" 
d="M302 570h-69l-95 130h90zM437 494h80l-249 -607q-27 -66 -62.5 -97t-85.5 -31q-49 0 -90 27l29 61q24 -18 57 -18q29 0 49 19.5t39 62.5l33 79l-211 504h80l98 -240q42 -104 71 -182h2q43 116 69 182z" />
    <glyph glyph-name="a.ss03" horiz-adv-x="560" 
d="M251 502q108 0 171 -46t63 -144v-312h-66q0 66 2 98h-2q-24 -49 -76.5 -77.5t-114.5 -28.5q-82 0 -136.5 41.5t-54.5 116.5q0 76 57 118.5t143 42.5q100 0 174 -41v42q0 63 -44 94t-120 31q-72 0 -153 -35l-20 60q89 40 177 40zM240 55q69 0 118.5 41t54.5 110
q-73 44 -164 44q-61 0 -99.5 -26t-38.5 -72q0 -45 37.5 -71t91.5 -26z" />
    <glyph glyph-name="aacute.ss03" horiz-adv-x="560" 
d="M386 700l-94 -130h-70l74 130h90zM251 502q108 0 171 -46t63 -144v-312h-66q0 66 2 98h-2q-24 -49 -76.5 -77.5t-114.5 -28.5q-82 0 -136.5 41.5t-54.5 116.5q0 76 57 118.5t143 42.5q100 0 174 -41v42q0 63 -44 94t-120 31q-72 0 -153 -35l-20 60q89 40 177 40zM240 55
q69 0 118.5 41t54.5 110q-73 44 -164 44q-61 0 -99.5 -26t-38.5 -72q0 -45 37.5 -71t91.5 -26z" />
    <glyph glyph-name="abreve.ss03" horiz-adv-x="560" 
d="M273 577q-60 0 -97 34t-37 89h60q0 -30 20.5 -48.5t53.5 -18.5q32 0 52.5 18.5t20.5 48.5h61q0 -55 -37.5 -89t-96.5 -34zM251 502q108 0 171 -46t63 -144v-312h-66q0 66 2 98h-2q-24 -49 -76.5 -77.5t-114.5 -28.5q-82 0 -136.5 41.5t-54.5 116.5q0 76 57 118.5
t143 42.5q100 0 174 -41v42q0 63 -44 94t-120 31q-72 0 -153 -35l-20 60q89 40 177 40zM240 55q69 0 118.5 41t54.5 110q-73 44 -164 44q-61 0 -99.5 -26t-38.5 -72q0 -45 37.5 -71t91.5 -26z" />
    <glyph glyph-name="acircumflex.ss03" horiz-adv-x="560" 
d="M272 644l-80 -74h-79l135 130h49l135 -130h-79zM251 502q108 0 171 -46t63 -144v-312h-66q0 66 2 98h-2q-24 -49 -76.5 -77.5t-114.5 -28.5q-82 0 -136.5 41.5t-54.5 116.5q0 76 57 118.5t143 42.5q100 0 174 -41v42q0 63 -44 94t-120 31q-72 0 -153 -35l-20 60
q89 40 177 40zM240 55q69 0 118.5 41t54.5 110q-73 44 -164 44q-61 0 -99.5 -26t-38.5 -72q0 -45 37.5 -71t91.5 -26z" />
    <glyph glyph-name="adieresis.ss03" horiz-adv-x="560" 
d="M174 591q-20 0 -34.5 13.5t-14.5 36.5t14.5 36.5t34.5 13.5q21 0 35.5 -13.5t14.5 -36.5t-14.5 -36.5t-35.5 -13.5zM371 591q-21 0 -35.5 13.5t-14.5 36.5t14.5 36.5t35.5 13.5t35.5 -13.5t14.5 -36.5t-14.5 -36.5t-35.5 -13.5zM251 502q108 0 171 -46t63 -144v-312h-66
q0 66 2 98h-2q-24 -49 -76.5 -77.5t-114.5 -28.5q-82 0 -136.5 41.5t-54.5 116.5q0 76 57 118.5t143 42.5q100 0 174 -41v42q0 63 -44 94t-120 31q-72 0 -153 -35l-20 60q89 40 177 40zM240 55q69 0 118.5 41t54.5 110q-73 44 -164 44q-61 0 -99.5 -26t-38.5 -72
q0 -45 37.5 -71t91.5 -26z" />
    <glyph glyph-name="agrave.ss03" horiz-adv-x="560" 
d="M304 570h-69l-95 130h90zM251 502q108 0 171 -46t63 -144v-312h-66q0 66 2 98h-2q-24 -49 -76.5 -77.5t-114.5 -28.5q-82 0 -136.5 41.5t-54.5 116.5q0 76 57 118.5t143 42.5q100 0 174 -41v42q0 63 -44 94t-120 31q-72 0 -153 -35l-20 60q89 40 177 40zM240 55
q69 0 118.5 41t54.5 110q-73 44 -164 44q-61 0 -99.5 -26t-38.5 -72q0 -45 37.5 -71t91.5 -26z" />
    <glyph glyph-name="amacron.ss03" horiz-adv-x="560" 
d="M410 653v-59h-274v59h274zM251 502q108 0 171 -46t63 -144v-312h-66q0 66 2 98h-2q-24 -49 -76.5 -77.5t-114.5 -28.5q-82 0 -136.5 41.5t-54.5 116.5q0 76 57 118.5t143 42.5q100 0 174 -41v42q0 63 -44 94t-120 31q-72 0 -153 -35l-20 60q89 40 177 40zM240 55
q69 0 118.5 41t54.5 110q-73 44 -164 44q-61 0 -99.5 -26t-38.5 -72q0 -45 37.5 -71t91.5 -26z" />
    <glyph glyph-name="aogonek.ss03" horiz-adv-x="560" 
d="M509 -101l32 -40q-49 -43 -113 -43q-44 0 -70 23t-26 62q0 69 87 114q0 56 2 83h-2q-24 -49 -76.5 -77.5t-114.5 -28.5q-82 0 -136.5 41.5t-54.5 116.5q0 76 57 118.5t143 42.5q100 0 174 -41v42q0 63 -44 94t-120 31q-72 0 -153 -35l-20 60q89 40 177 40q108 0 171 -46
t63 -144v-312q-48 -22 -68.5 -41.5t-20.5 -43.5q0 -40 48 -40q35 0 65 24zM240 55q69 0 118.5 41t54.5 110q-73 44 -164 44q-61 0 -99.5 -26t-38.5 -72q0 -45 37.5 -71t91.5 -26z" />
    <glyph glyph-name="aring.ss03" horiz-adv-x="560" 
d="M272 540q-50 0 -82 30.5t-32 76.5t32.5 76t81.5 30t81 -30t32 -76q0 -47 -32 -77t-81 -30zM272 704q-27 0 -43.5 -15.5t-16.5 -41.5t16.5 -42t43.5 -16q26 0 43 16.5t17 41.5t-17 41t-43 16zM251 502q108 0 171 -46t63 -144v-312h-66q0 66 2 98h-2q-24 -49 -76.5 -77.5
t-114.5 -28.5q-82 0 -136.5 41.5t-54.5 116.5q0 76 57 118.5t143 42.5q100 0 174 -41v42q0 63 -44 94t-120 31q-72 0 -153 -35l-20 60q89 40 177 40zM240 55q69 0 118.5 41t54.5 110q-73 44 -164 44q-61 0 -99.5 -26t-38.5 -72q0 -45 37.5 -71t91.5 -26z" />
    <glyph glyph-name="atilde.ss03" horiz-adv-x="560" 
d="M217 636q-28 0 -41 -35l-45 23q21 72 80 72q24 0 66 -23q34 -18 51 -18q28 0 38 34l48 -19q-7 -38 -29 -56.5t-50 -18.5t-66 22q-33 19 -52 19zM251 502q108 0 171 -46t63 -144v-312h-66q0 66 2 98h-2q-24 -49 -76.5 -77.5t-114.5 -28.5q-82 0 -136.5 41.5t-54.5 116.5
q0 76 57 118.5t143 42.5q100 0 174 -41v42q0 63 -44 94t-120 31q-72 0 -153 -35l-20 60q89 40 177 40zM240 55q69 0 118.5 41t54.5 110q-73 44 -164 44q-61 0 -99.5 -26t-38.5 -72q0 -45 37.5 -71t91.5 -26z" />
    <glyph glyph-name="ae.ss03" horiz-adv-x="915" 
d="M879 259q0 -11 -2 -41h-390q8 -73 53.5 -116t117.5 -43q88 0 154 58l42 -47q-36 -37 -89 -57.5t-109 -20.5q-66 0 -123.5 31t-87.5 86q-29 -56 -87.5 -86.5t-126.5 -30.5q-83 0 -138.5 41.5t-55.5 116.5q0 76 57 118.5t143 42.5q100 0 174 -40v41q0 63 -44 94t-120 31
q-85 0 -159 -36l-13 61q87 40 176 40q170 0 210 -109q29 53 82 82t115 29q98 0 159.5 -64.5t61.5 -180.5zM655 438q-67 0 -112.5 -42t-55.5 -115h321q-2 75 -43.5 116t-109.5 41zM240 55q67 0 117 41t57 109q-33 20 -79 32.5t-86 12.5q-61 0 -99.5 -26t-38.5 -72
q0 -45 37.5 -71t91.5 -26z" />
    <glyph glyph-name="aeacute.ss03" horiz-adv-x="915" 
d="M572 700l-94 -130h-70l74 130h90zM879 259q0 -11 -2 -41h-390q8 -73 53.5 -116t117.5 -43q88 0 154 58l42 -47q-36 -37 -89 -57.5t-109 -20.5q-66 0 -123.5 31t-87.5 86q-29 -56 -87.5 -86.5t-126.5 -30.5q-83 0 -138.5 41.5t-55.5 116.5q0 76 57 118.5t143 42.5
q100 0 174 -40v41q0 63 -44 94t-120 31q-85 0 -159 -36l-13 61q87 40 176 40q170 0 210 -109q29 53 82 82t115 29q98 0 159.5 -64.5t61.5 -180.5zM655 438q-67 0 -112.5 -42t-55.5 -115h321q-2 75 -43.5 116t-109.5 41zM240 55q67 0 117 41t57 109q-33 20 -79 32.5t-86 12.5
q-61 0 -99.5 -26t-38.5 -72q0 -45 37.5 -71t91.5 -26z" />
    <glyph glyph-name="g.ss03" horiz-adv-x="637" 
d="M309 -248q-127 0 -228 58l29 62q103 -51 198 -51q78 0 123.5 41.5t47.5 115.5q3 88 5 122h-2q-20 -48 -71.5 -78.5t-118.5 -30.5q-109 0 -178 71.5t-69 183.5q0 114 68.5 186t177.5 72q68 0 121 -31.5t72 -80.5h2q-2 34 -2 102h70v-501q0 -113 -65 -177t-180 -64zM300 59
q82 0 131.5 52t49.5 137q0 84 -50.5 136t-130.5 52t-130.5 -52.5t-50.5 -135.5t50.5 -136t130.5 -53z" />
    <glyph glyph-name="gbreve.ss03" horiz-adv-x="637" 
d="M308 577q-60 0 -97 34t-37 89h60q0 -30 20.5 -48.5t53.5 -18.5q32 0 52.5 18.5t20.5 48.5h61q0 -55 -37.5 -89t-96.5 -34zM309 -248q-127 0 -228 58l29 62q103 -51 198 -51q78 0 123.5 41.5t47.5 115.5q3 88 5 122h-2q-20 -48 -71.5 -78.5t-118.5 -30.5q-109 0 -178 71.5
t-69 183.5q0 114 68.5 186t177.5 72q68 0 121 -31.5t72 -80.5h2q-2 34 -2 102h70v-501q0 -113 -65 -177t-180 -64zM300 59q82 0 131.5 52t49.5 137q0 84 -50.5 136t-130.5 52t-130.5 -52.5t-50.5 -135.5t50.5 -136t130.5 -53z" />
    <glyph glyph-name="gcircumflex.ss03" horiz-adv-x="637" 
d="M467 570h-79l-81 74l-80 -74h-79l135 130h49zM309 -248q-127 0 -228 58l29 62q103 -51 198 -51q78 0 123.5 41.5t47.5 115.5q3 88 5 122h-2q-20 -48 -71.5 -78.5t-118.5 -30.5q-109 0 -178 71.5t-69 183.5q0 114 68.5 186t177.5 72q68 0 121 -31.5t72 -80.5h2
q-2 34 -2 102h70v-501q0 -113 -65 -177t-180 -64zM300 59q82 0 131.5 52t49.5 137q0 84 -50.5 136t-130.5 52t-130.5 -52.5t-50.5 -135.5t50.5 -136t130.5 -53z" />
    <glyph glyph-name="uni0123.ss03" horiz-adv-x="637" 
d="M304 564q-20 0 -32 13t-12 35q0 24 14.5 62.5t33.5 68.5l38 -17q-20 -39 -27 -82q31 -8 31 -38q0 -19 -12.5 -30.5t-33.5 -11.5zM309 -248q-127 0 -228 58l29 62q103 -51 198 -51q78 0 123.5 41.5t47.5 115.5q3 88 5 122h-2q-20 -48 -71.5 -78.5t-118.5 -30.5
q-109 0 -178 71.5t-69 183.5q0 114 68.5 186t177.5 72q68 0 121 -31.5t72 -80.5h2q-2 34 -2 102h70v-501q0 -113 -65 -177t-180 -64zM300 59q82 0 131.5 52t49.5 137q0 84 -50.5 136t-130.5 52t-130.5 -52.5t-50.5 -135.5t50.5 -136t130.5 -53z" />
    <glyph glyph-name="gdotaccent.ss03" horiz-adv-x="637" 
d="M307 591q-22 0 -36.5 14t-14.5 35q0 22 14.5 36t36.5 14t36.5 -14t14.5 -36q0 -21 -14.5 -35t-36.5 -14zM309 -248q-127 0 -228 58l29 62q103 -51 198 -51q78 0 123.5 41.5t47.5 115.5q3 88 5 122h-2q-20 -48 -71.5 -78.5t-118.5 -30.5q-109 0 -178 71.5t-69 183.5
q0 114 68.5 186t177.5 72q68 0 121 -31.5t72 -80.5h2q-2 34 -2 102h70v-501q0 -113 -65 -177t-180 -64zM300 59q82 0 131.5 52t49.5 137q0 84 -50.5 136t-130.5 52t-130.5 -52.5t-50.5 -135.5t50.5 -136t130.5 -53z" />
    <glyph glyph-name="y.ss03" horiz-adv-x="544" 
d="M437 494h80l-249 -607q-27 -66 -62.5 -97t-85.5 -31q-49 0 -90 27l29 61q24 -18 57 -18q29 0 49 19.5t39 62.5l33 79l-211 504h80l98 -240q42 -104 71 -182h2q43 116 69 182z" />
    <glyph glyph-name="yacute.ss03" horiz-adv-x="544" 
d="M384 700l-94 -130h-70l74 130h90zM437 494h80l-249 -607q-27 -66 -62.5 -97t-85.5 -31q-49 0 -90 27l29 61q24 -18 57 -18q29 0 49 19.5t39 62.5l33 79l-211 504h80l98 -240q42 -104 71 -182h2q43 116 69 182z" />
    <glyph glyph-name="ycircumflex.ss03" horiz-adv-x="544" 
d="M269 644l-80 -74h-79l135 130h49l135 -130h-79zM437 494h80l-249 -607q-27 -66 -62.5 -97t-85.5 -31q-49 0 -90 27l29 61q24 -18 57 -18q29 0 49 19.5t39 62.5l33 79l-211 504h80l98 -240q42 -104 71 -182h2q43 116 69 182z" />
    <glyph glyph-name="ydieresis.ss03" horiz-adv-x="544" 
d="M171 591q-20 0 -34.5 13.5t-14.5 36.5t14.5 36.5t34.5 13.5q21 0 35.5 -13.5t14.5 -36.5t-14.5 -36.5t-35.5 -13.5zM368 591q-21 0 -35.5 13.5t-14.5 36.5t14.5 36.5t35.5 13.5t35.5 -13.5t14.5 -36.5t-14.5 -36.5t-35.5 -13.5zM437 494h80l-249 -607q-27 -66 -62.5 -97
t-85.5 -31q-49 0 -90 27l29 61q24 -18 57 -18q29 0 49 19.5t39 62.5l33 79l-211 504h80l98 -240q42 -104 71 -182h2q43 116 69 182z" />
    <glyph glyph-name="ygrave.ss03" horiz-adv-x="544" 
d="M302 570h-69l-95 130h90zM437 494h80l-249 -607q-27 -66 -62.5 -97t-85.5 -31q-49 0 -90 27l29 61q24 -18 57 -18q29 0 49 19.5t39 62.5l33 79l-211 504h80l98 -240q42 -104 71 -182h2q43 116 69 182z" />
    <glyph glyph-name="f_f.ss02" horiz-adv-x="699" 
d="M620 648q-92 0 -92 -111v-43h157v-65h-157v-429h-74v429h-249v-429h-74v429h-98v65h98v42q0 83 41.5 129.5t118.5 46.5q58 0 105 -26l-26 -55q-37 17 -74 17q-91 0 -91 -111v-43h249v42q0 83 42 129.5t119 46.5q57 0 104 -26l-26 -55q-37 17 -73 17z" />
    <glyph glyph-name="fi.ss02" horiz-adv-x="611" 
d="M528 494v-494h-74v429h-252v-429h-74v429h-95v65h95v42q0 83 42 129.5t119 46.5q57 0 104 -26l-25 -55q-37 17 -74 17q-92 0 -92 -111v-43h326zM490 696q23 0 38.5 -15t15.5 -38q0 -22 -15.5 -37t-38.5 -15t-38.5 15t-15.5 37q0 23 15.5 38t38.5 15z" />
    <glyph glyph-name="fl.ss02" horiz-adv-x="689" 
d="M660 65l18 -62q-42 -15 -78 -15q-70 0 -104.5 39t-34.5 128v455q-66 38 -133 38q-58 0 -90.5 -30.5t-32.5 -90.5v-33h157v-65h-157v-429h-74v429h-98v65h98v32q0 83 50.5 134.5t141.5 51.5q74 0 138 -32v20h74v-541q0 -62 17 -83t59 -21q19 0 49 10z" />
    <glyph glyph-name="uni0414.loclBGR" horiz-adv-x="840" 
d="M731 72h79v-227h-77v155h-626v-155h-77v227h79l267 628h88zM419 622q-29 -77 -63 -157l-165 -395h457l-165 396q-54 134 -62 156h-2z" />
    <glyph glyph-name="uni041B.loclBGR" horiz-adv-x="725" 
d="M20 0l299 700h87l298 -700h-84l-184 443q-38 88 -72 180h-3q-39 -104 -72 -180l-185 -443h-84z" />
    <glyph glyph-name="uni0424.loclBGR" horiz-adv-x="941" 
d="M887 355q0 -161 -98 -256.5t-280 -100.5v-97h-77v97q-176 5 -277 101t-101 254q0 156 98 250t280 99v91h77v-91q182 -5 280 -98.5t98 -248.5zM129 355q0 -129 77.5 -205.5t228.5 -80.5v564q-150 -4 -228 -79t-78 -199zM505 69q151 4 229 79.5t78 204.5q0 125 -78.5 200.5
t-228.5 79.5v-564z" />
    <glyph glyph-name="uni0414.ss02" horiz-adv-x="803" 
d="M665 72h104v-227h-76v155h-598v-155h-77v227h63q44 40 66.5 89.5t27.5 139.5l26 399h464v-628zM251 295q-9 -151 -75 -224h413v557h-318z" />
    <glyph glyph-name="uni041B.ss02" horiz-adv-x="782" 
d="M206 700h474v-700h-76v628h-328l-17 -305q-4 -70 -16.5 -122.5t-29.5 -86t-43 -58t-51 -38t-60 -25.5l-23 71q28 11 44 19.5t37 28t32.5 46t21 72t13.5 107.5z" />
    <glyph glyph-name="uni0427.ss02" horiz-adv-x="712" 
d="M534 0v187q0 93 3 127l-2 1q-76 -97 -214 -97q-121 0 -188 70.5t-67 196.5v215h76v-209q0 -203 191 -203q94 0 147.5 52t53.5 143v217h76v-700h-76z" />
    <glyph glyph-name="uni0409.ss02" horiz-adv-x="1159" 
d="M838 456q123 0 190 -58t67 -165q0 -115 -66 -174t-191 -59h-255v628h-308l-16 -302q-5 -88 -21 -148t-45.5 -96t-59 -54t-75.5 -35l-22 72q47 16 74 38t48 79.5t27 156.5l21 361h454v-244h178zM845 72q80 0 126.5 41t46.5 115q0 75 -46 115.5t-127 40.5h-185v-312h185z
" />
    <glyph glyph-name="uni0414.ss03" horiz-adv-x="840" 
d="M731 72h79v-227h-77v155h-626v-155h-77v227h79l267 628h88zM419 622q-29 -77 -63 -157l-165 -395h457l-165 396q-54 134 -62 156h-2z" />
    <glyph glyph-name="uni041B.ss03" horiz-adv-x="725" 
d="M20 0l299 700h87l298 -700h-84l-184 443q-38 88 -72 180h-3q-39 -104 -72 -180l-185 -443h-84z" />
    <glyph glyph-name="uni0424.ss03" horiz-adv-x="941" 
d="M887 355q0 -161 -98 -256.5t-280 -100.5v-97h-77v97q-176 5 -277 101t-101 254q0 156 98 250t280 99v91h77v-91q182 -5 280 -98.5t98 -248.5zM129 355q0 -129 77.5 -205.5t228.5 -80.5v564q-150 -4 -228 -79t-78 -199zM505 69q151 4 229 79.5t78 204.5q0 125 -78.5 200.5
t-228.5 79.5v-564z" />
    <glyph glyph-name="uni0414.ss04" horiz-adv-x="840" 
d="M731 72h79v-227h-77v155h-626v-155h-77v227h79l267 628h88zM419 622q-29 -77 -63 -157l-165 -395h457l-165 396q-54 134 -62 156h-2z" />
    <glyph glyph-name="uni041B.ss04" horiz-adv-x="725" 
d="M20 0l299 700h87l298 -700h-84l-184 443q-38 88 -72 180h-3q-39 -104 -72 -180l-185 -443h-84z" />
    <glyph glyph-name="uni0424.ss04" horiz-adv-x="941" 
d="M887 355q0 -161 -98 -256.5t-280 -100.5v-97h-77v97q-176 5 -277 101t-101 254q0 156 98 250t280 99v91h77v-91q182 -5 280 -98.5t98 -248.5zM129 355q0 -129 77.5 -205.5t228.5 -80.5v564q-150 -4 -228 -79t-78 -199zM505 69q151 4 229 79.5t78 204.5q0 125 -78.5 200.5
t-228.5 79.5v-564z" />
    <glyph glyph-name="uni0432.loclBGR" horiz-adv-x="591" 
d="M416 391q122 -46 122 -182q0 -100 -66.5 -160t-173.5 -60q-110 0 -172 69t-62 191v208q0 117 66 187t178 70q92 0 148 -47.5t56 -126.5q0 -103 -96 -149zM310 646q-82 0 -127 -49t-45 -137v-78l148 26q153 29 153 133q0 50 -34.5 77.5t-94.5 27.5zM301 57q74 0 118 41.5
t44 111.5q0 63 -35 100t-97 37q-19 0 -46 -5l-147 -26v-62q0 -93 42.5 -145t120.5 -52z" />
    <glyph glyph-name="uni0433.loclBGR" horiz-adv-x="506" 
d="M247 -13q-93 0 -149.5 39.5t-56.5 104.5q0 63 49.5 99t156.5 51q72 11 101.5 29.5t29.5 52.5q0 35 -33.5 54.5t-92.5 19.5q-84 0 -158 -49l-34 53q92 61 193 61q88 0 143 -39t55 -102q0 -58 -45.5 -90.5t-151.5 -47.5q-77 -12 -108 -31.5t-31 -56.5q0 -38 35.5 -60.5
t95.5 -22.5q54 0 102 18t78 49l40 -49q-86 -83 -219 -83z" />
    <glyph glyph-name="uni0434.loclBGR" horiz-adv-x="637" 
d="M309 -248q-127 0 -228 58l29 62q103 -51 198 -51q78 0 123.5 41.5t47.5 115.5q3 88 5 122h-2q-20 -48 -71.5 -78.5t-118.5 -30.5q-109 0 -178 71.5t-69 183.5q0 114 68.5 186t177.5 72q68 0 121 -31.5t72 -80.5h2q-2 34 -2 102h70v-501q0 -113 -65 -177t-180 -64zM300 59
q82 0 131.5 52t49.5 137q0 84 -50.5 136t-130.5 52t-130.5 -52.5t-50.5 -135.5t50.5 -136t130.5 -53z" />
    <glyph glyph-name="uni0436.loclBGR" horiz-adv-x="715" 
d="M466 255l247 -255h-98l-153 157q-36 36 -68 75l-2 -1q1 -31 1 -95v-136h-72v135q0 63 2 96l-2 1q-28 -34 -69 -75l-154 -157h-96l247 254l-216 240h92l133 -146l63 -73l2 1q-2 34 -2 93v331h72v-331q0 -59 -2 -94l2 -1q40 49 63 75l133 145h91z" />
    <glyph glyph-name="uni0437.loclBGR" horiz-adv-x="540" 
d="M378 151q61 -23 93.5 -69.5t32.5 -106.5q0 -101 -70 -162t-186 -61q-132 0 -219 78l33 59q46 -38 88 -53t98 -15q84 0 133 41.5t49 113.5q0 65 -43.5 102.5t-118.5 37.5h-116v67h117q65 0 99.5 33.5t34.5 96.5q0 56 -40 89.5t-107 33.5q-98 0 -179 -59l-37 53
q96 75 218 75q100 0 159 -51.5t59 -137.5q0 -121 -98 -165z" />
    <glyph glyph-name="uni0438.loclBGR" horiz-adv-x="613" 
d="M284 -8q-97 0 -153 61t-56 165v276h74v-274q0 -76 39 -118.5t109 -42.5t114.5 48t44.5 120v267h74v-494h-69q0 62 2 92h-3q-22 -47 -69 -73.5t-107 -26.5z" />
    <glyph glyph-name="uni0439.loclBGR" horiz-adv-x="613" 
d="M303 557q-111 0 -138 126l53 17q15 -82 85 -82q71 0 86 82l53 -17q-27 -126 -139 -126zM284 -8q-97 0 -153 61t-56 165v276h74v-274q0 -76 39 -118.5t109 -42.5t114.5 48t44.5 120v267h74v-494h-69q0 62 2 92h-3q-22 -47 -69 -73.5t-107 -26.5z" />
    <glyph glyph-name="uni045D.loclBGR" horiz-adv-x="613" 
d="M334 570h-69l-95 130h90zM284 -8q-97 0 -153 61t-56 165v276h74v-274q0 -76 39 -118.5t109 -42.5t114.5 48t44.5 120v267h74v-494h-69q0 62 2 92h-3q-22 -47 -69 -73.5t-107 -26.5z" />
    <glyph glyph-name="uni043A.loclBGR" horiz-adv-x="495" 
d="M225 253l268 -253h-99l-151 143q-57 56 -87 91l-3 -1q3 -42 3 -145v-88h-74v700h74v-259q0 -126 -2 -168l2 -1q25 31 77 83l136 139h93z" />
    <glyph glyph-name="uni043B.loclBGR" horiz-adv-x="553" 
d="M31 0l205 494h81l205 -494h-79l-94 229q-34 86 -70 190h-3q-39 -111 -72 -190l-93 -229h-80z" />
    <glyph glyph-name="uni043F.loclBGR" horiz-adv-x="619" 
d="M82 0v494h70q0 -44 -3 -98h3q22 50 71 78t113 28q100 0 154 -58t54 -163v-281h-74v275q0 76 -37.5 118t-109.5 42q-73 0 -120 -48t-47 -120v-267h-74z" />
    <glyph glyph-name="uni0442.loclBGR" horiz-adv-x="934" 
d="M662 502q93 0 145.5 -56.5t52.5 -151.5v-294h-74v285q0 69 -34.5 109.5t-98.5 40.5t-104.5 -44t-40.5 -111v-280h-74v283q0 71 -35.5 111.5t-99.5 40.5q-63 0 -103 -43.5t-40 -111.5v-280h-74v494h70q0 -55 -6 -98h2q16 49 61 77.5t101 28.5q131 0 170 -112q25 56 74 84
t108 28z" />
    <glyph glyph-name="uni0446.loclBGR" horiz-adv-x="638" 
d="M530 153q0 -55 17.5 -73.5t71.5 -18.5v-196h-67v142q-36 8 -55.5 29t-26.5 67h-3q-27 -55 -76 -83t-110 -28q-95 0 -150.5 61t-55.5 166v275h74v-274q0 -75 39 -118t109 -43t114.5 48.5t44.5 120.5v266h74v-341z" />
    <glyph glyph-name="uni0448.loclBGR" horiz-adv-x="934" 
d="M778 494h74v-494h-69q0 55 6 98h-3q-16 -49 -60.5 -77.5t-101.5 -28.5q-131 0 -170 112q-25 -56 -74 -84t-108 -28q-93 0 -145 56t-52 152v294h74v-285q0 -70 35 -110t100 -40q62 0 102 44.5t40 110.5v280h74v-283q0 -70 35.5 -111t99.5 -41q63 0 103 44t40 111v280z" />
    <glyph glyph-name="uni0449.loclBGR" horiz-adv-x="959" 
d="M852 157q0 -56 16.5 -76t71.5 -20v-196h-67v143q-72 13 -81 95h-3q-23 -53 -69.5 -82t-99.5 -29q-122 0 -167 112q-52 -112 -178 -112q-96 0 -148 56t-52 154v292h74v-283q0 -71 34 -111.5t98 -40.5t104.5 44.5t40.5 111.5v279h74v-282q0 -71 35.5 -112t99.5 -41
q63 0 103 44.5t40 111.5v279h74v-337z" />
    <glyph glyph-name="uni044C.loclBGR" horiz-adv-x="541" 
d="M283 -13q-96 0 -152 52.5t-56 155.5v299h74v-110q0 -43 -4 -75l2 -1q56 76 158 76q87 0 143.5 -54.5t56.5 -143.5q0 -92 -60.5 -145.5t-161.5 -53.5zM289 52q65 0 104 37t39 95q0 61 -38 97.5t-103 36.5q-67 0 -105 -36.5t-38 -94.5q0 -62 38 -98.5t103 -36.5z" />
    <glyph glyph-name="uni044A.loclBGR" horiz-adv-x="605" 
d="M370 384q87 0 143 -54.5t56 -143.5q0 -92 -60 -145.5t-161 -53.5q-97 0 -153 52.5t-56 155.5v232h-131v67h205v-110q0 -43 -4 -75l3 -1q56 76 158 76zM354 52q65 0 104 37t39 95q0 61 -38 97.5t-103 36.5q-67 0 -105.5 -36.5t-38.5 -94.5q0 -62 38.5 -98.5t103.5 -36.5z
" />
    <glyph glyph-name="uni044E.loclBGR" horiz-adv-x="813" 
d="M518 504q109 0 179.5 -71.5t70.5 -184.5q0 -115 -70 -186.5t-180 -71.5q-105 0 -172.5 64.5t-74.5 169.5h-115v-224h-74v700h74v-413h117q13 98 80 157.5t165 59.5zM518 57q76 0 126 54t50 135q0 82 -50 136.5t-126 54.5q-77 0 -126.5 -54t-49.5 -135q0 -83 49.5 -137
t126.5 -54z" />
    <glyph glyph-name="uni0430.ss01" horiz-adv-x="560" 
d="M251 502q108 0 171 -46t63 -144v-312h-66q0 66 2 98h-2q-24 -49 -76.5 -77.5t-114.5 -28.5q-82 0 -136.5 41.5t-54.5 116.5q0 76 57 118.5t143 42.5q100 0 174 -41v42q0 63 -44 94t-120 31q-72 0 -153 -35l-20 60q89 40 177 40zM240 55q69 0 118.5 41t54.5 110
q-73 44 -164 44q-61 0 -99.5 -26t-38.5 -72q0 -45 37.5 -71t91.5 -26z" />
    <glyph glyph-name="uni0443.ss01" horiz-adv-x="544" 
d="M437 494h80l-249 -607q-27 -66 -62.5 -97t-85.5 -31q-49 0 -90 27l29 61q24 -18 57 -18q29 0 49 19.5t39 62.5l33 79l-211 504h80l98 -240q42 -104 71 -182h2q43 116 69 182z" />
    <glyph glyph-name="uni045E.ss01" horiz-adv-x="544" 
d="M270 557q-111 0 -138 126l53 17q15 -82 85 -82q71 0 86 82l53 -17q-27 -126 -139 -126zM437 494h80l-249 -607q-27 -66 -62.5 -97t-85.5 -31q-49 0 -90 27l29 61q24 -18 57 -18q29 0 49 19.5t39 62.5l33 79l-211 504h80l98 -240q42 -104 71 -182h2q43 116 69 182z" />
    <glyph glyph-name="uni04D5.ss01" horiz-adv-x="915" 
d="M879 259q0 -11 -2 -41h-390q8 -73 53.5 -116t117.5 -43q88 0 154 58l42 -47q-36 -37 -89 -57.5t-109 -20.5q-66 0 -123.5 31t-87.5 86q-29 -56 -87.5 -86.5t-126.5 -30.5q-83 0 -138.5 41.5t-55.5 116.5q0 76 57 118.5t143 42.5q100 0 174 -40v41q0 63 -44 94t-120 31
q-85 0 -159 -36l-13 61q87 40 176 40q170 0 210 -109q29 53 82 82t115 29q98 0 159.5 -64.5t61.5 -180.5zM655 438q-67 0 -112.5 -42t-55.5 -115h321q-2 75 -43.5 116t-109.5 41zM240 55q67 0 117 41t57 109q-33 20 -79 32.5t-86 12.5q-61 0 -99.5 -26t-38.5 -72
q0 -45 37.5 -71t91.5 -26z" />
    <glyph glyph-name="uni0431.ss02" horiz-adv-x="612" 
d="M307 -10q-120 0 -189 77t-69 212v41q0 166 71.5 253t226.5 109q64 9 98.5 18t75.5 29l27 -64q-74 -41 -187 -55q-122 -14 -177.5 -66.5t-65.5 -168.5l2 -1q64 109 204 109q110 0 176.5 -67t66.5 -177q0 -113 -71 -181t-189 -68zM311 58q81 0 131.5 49.5t50.5 129.5
q0 82 -50.5 131.5t-133.5 49.5t-133 -49t-50 -130q0 -82 51 -131.5t134 -49.5z" />
    <glyph glyph-name="uni0434.ss02" horiz-adv-x="603" 
d="M504 68h76v-203h-71v135h-416v-135h-71v203h53q26 29 40 65.5t20 105.5l21 255h348v-426zM208 233q-7 -106 -55 -169h277v364h-207z" />
    <glyph glyph-name="uni043B.ss02" horiz-adv-x="591" 
d="M161 494h348v-494h-74v426h-208l-14 -188q-9 -118 -42.5 -169.5t-115.5 -77.5l-18 64q56 20 77 57t28 129z" />
    <glyph glyph-name="uni0443.ss02" horiz-adv-x="544" 
d="M437 494h80l-249 -607q-27 -66 -62.5 -97t-85.5 -31q-49 0 -90 27l29 61q24 -18 57 -18q29 0 49 19.5t39 62.5l33 79l-211 504h80l98 -240q42 -104 71 -182h2q43 116 69 182z" />
    <glyph glyph-name="uni045E.ss02" horiz-adv-x="544" 
d="M270 557q-111 0 -138 126l53 17q15 -82 85 -82q71 0 86 82l53 -17q-27 -126 -139 -126zM437 494h80l-249 -607q-27 -66 -62.5 -97t-85.5 -31q-49 0 -90 27l29 61q24 -18 57 -18q29 0 49 19.5t39 62.5l33 79l-211 504h80l98 -240q42 -104 71 -182h2q43 116 69 182z" />
    <glyph glyph-name="uni0447.ss02" horiz-adv-x="547" 
d="M390 0v97q0 61 5 125l-3 1q-51 -78 -155 -78q-81 0 -131 53.5t-50 141.5v154h71v-145q0 -67 32 -101.5t94 -34.5q64 0 100.5 35.5t36.5 96.5v149h74v-494h-74z" />
    <glyph glyph-name="uni0459.ss02" horiz-adv-x="869" 
d="M658 330q80 0 128 -44t48 -120q0 -83 -47.5 -124.5t-128.5 -41.5h-231v426h-200l-13 -188q-7 -87 -28 -137t-49 -70.5t-81 -39.5l-19 64q37 14 55 28.5t31.5 51.5t18.5 106l20 253h337v-164h159zM650 67q111 0 111 99q0 97 -111 97h-152v-196h152z" />
    <glyph glyph-name="uni0434.loclBGR.ss02" horiz-adv-x="637" 
d="M309 -248q-127 0 -228 58l29 62q103 -51 198 -51q78 0 123.5 41.5t47.5 115.5q3 88 5 122h-2q-20 -48 -71.5 -78.5t-118.5 -30.5q-109 0 -178 71.5t-69 183.5q0 114 68.5 186t177.5 72q68 0 121 -31.5t72 -80.5h2q-2 34 -2 102h70v-501q0 -113 -65 -177t-180 -64zM300 59
q82 0 131.5 52t49.5 137q0 84 -50.5 136t-130.5 52t-130.5 -52.5t-50.5 -135.5t50.5 -136t130.5 -53z" />
    <glyph glyph-name="uni0437.loclBGR.ss02" horiz-adv-x="540" 
d="M378 151q61 -23 93.5 -69.5t32.5 -106.5q0 -101 -70 -162t-186 -61q-132 0 -219 78l33 59q46 -38 88 -53t98 -15q84 0 133 41.5t49 113.5q0 65 -43.5 102.5t-118.5 37.5h-116v67h117q65 0 99.5 33.5t34.5 96.5q0 56 -40 89.5t-107 33.5q-98 0 -179 -59l-37 53
q96 75 218 75q100 0 159 -51.5t59 -137.5q0 -121 -98 -165z" />
    <glyph glyph-name="uni043F.loclBGR.ss02" horiz-adv-x="619" 
d="M82 0v494h70q0 -44 -3 -98h3q22 50 71 78t113 28q100 0 154 -58t54 -163v-281h-74v275q0 76 -37.5 118t-109.5 42q-73 0 -120 -48t-47 -120v-267h-74z" />
    <glyph glyph-name="uni0442.loclBGR.ss02" horiz-adv-x="934" 
d="M662 502q93 0 145.5 -56.5t52.5 -151.5v-294h-74v285q0 69 -34.5 109.5t-98.5 40.5t-104.5 -44t-40.5 -111v-280h-74v283q0 71 -35.5 111.5t-99.5 40.5q-63 0 -103 -43.5t-40 -111.5v-280h-74v494h70q0 -55 -6 -98h2q16 49 61 77.5t101 28.5q131 0 170 -112q25 56 74 84
t108 28z" />
    <glyph glyph-name="uni0432.ss03" horiz-adv-x="591" 
d="M416 391q122 -46 122 -182q0 -100 -66.5 -160t-173.5 -60q-110 0 -172 69t-62 191v208q0 117 66 187t178 70q92 0 148 -47.5t56 -126.5q0 -103 -96 -149zM310 646q-82 0 -127 -49t-45 -137v-78l148 26q153 29 153 133q0 50 -34.5 77.5t-94.5 27.5zM301 57q74 0 118 41.5
t44 111.5q0 63 -35 100t-97 37q-19 0 -46 -5l-147 -26v-62q0 -93 42.5 -145t120.5 -52z" />
    <glyph glyph-name="uni0433.ss03" horiz-adv-x="506" 
d="M247 -13q-93 0 -149.5 39.5t-56.5 104.5q0 63 49.5 99t156.5 51q72 11 101.5 29.5t29.5 52.5q0 35 -33.5 54.5t-92.5 19.5q-84 0 -158 -49l-34 53q92 61 193 61q88 0 143 -39t55 -102q0 -58 -45.5 -90.5t-151.5 -47.5q-77 -12 -108 -31.5t-31 -56.5q0 -38 35.5 -60.5
t95.5 -22.5q54 0 102 18t78 49l40 -49q-86 -83 -219 -83z" />
    <glyph glyph-name="uni0434.ss03" horiz-adv-x="637" 
d="M309 -248q-127 0 -228 58l29 62q103 -51 198 -51q78 0 123.5 41.5t47.5 115.5q3 88 5 122h-2q-20 -48 -71.5 -78.5t-118.5 -30.5q-109 0 -178 71.5t-69 183.5q0 114 68.5 186t177.5 72q68 0 121 -31.5t72 -80.5h2q-2 34 -2 102h70v-501q0 -113 -65 -177t-180 -64zM300 59
q82 0 131.5 52t49.5 137q0 84 -50.5 136t-130.5 52t-130.5 -52.5t-50.5 -135.5t50.5 -136t130.5 -53z" />
    <glyph glyph-name="uni0436.ss03" horiz-adv-x="715" 
d="M466 255l247 -255h-98l-153 157q-36 36 -68 75l-2 -1q1 -31 1 -95v-136h-72v135q0 63 2 96l-2 1q-28 -34 -69 -75l-154 -157h-96l247 254l-216 240h92l133 -146l63 -73l2 1q-2 34 -2 93v331h72v-331q0 -59 -2 -94l2 -1q40 49 63 75l133 145h91z" />
    </font>
</defs>
</svg>
