<?xml version="1.0" standalone="no"?>
<!DOCTYPE svg PUBLIC "-//W3C//DTD SVG 20010904//EN"
 "http://www.w3.org/TR/2001/REC-SVG-20010904/DTD/svg10.dtd">
<svg version="1.0" xmlns="http://www.w3.org/2000/svg"
 width="96.000000pt" height="96.000000pt" viewBox="0 0 96.000000 96.000000"
 preserveAspectRatio="xMidYMid meet">
<metadata>
Created by potrace 1.14, written by Peter Selinger 2001-2017
</metadata>
<g transform="translate(0.000000,96.000000) scale(0.100000,-0.100000)"
fill="#000000" stroke="none">
<path d="M47 912 l-47 -48 0 -73 0 -73 80 84 c44 46 80 85 80 89 0 3 -15 19
-33 37 l-33 32 -47 -48z"/>
<path d="M142 804 l-142 -144 0 -71 0 -72 183 184 183 184 -25 32 c-14 17 -33
32 -41 32 -8 -1 -79 -65 -158 -145z"/>
<path d="M242 704 l-242 -244 0 -70 c0 -39 1 -70 3 -70 2 0 531 528 566 565 6
7 -57 65 -71 64 -7 0 -122 -110 -256 -245z"/>
<path d="M297 552 l-297 -297 0 -75 0 -75 336 338 c295 298 334 340 322 355
-35 44 -43 52 -53 52 -5 0 -144 -134 -308 -298z"/>
<path d="M351 399 c-383 -385 -394 -399 -302 -399 l49 0 255 258 c140 141 292
295 337 341 l82 83 -34 35 -35 35 -352 -353z"/>
<path d="M494 339 c-170 -171 -315 -318 -322 -325 -11 -12 -3 -14 56 -14 l70
0 290 291 c316 319 296 289 235 342 -21 18 -24 15 -329 -294z"/>
<path d="M490 135 l-135 -135 75 0 75 0 103 103 103 104 -36 31 c-19 18 -39
32 -43 32 -4 0 -68 -61 -142 -135z"/>
<path d="M652 89 c-45 -44 -82 -82 -82 -85 0 -2 31 -4 68 -4 l68 0 52 53 52
53 -33 32 c-18 18 -35 32 -38 32 -3 0 -42 -36 -87 -81z"/>
<path d="M800 35 l-34 -35 67 0 c37 0 67 2 67 4 0 7 -54 66 -60 66 -3 0 -21
-16 -40 -35z"/>
</g>
</svg>
